<svg xmlns="http://www.w3.org/2000/svg" viewBox="0 0 69 45.8"><defs><style>.a{fill:#fff;}</style></defs><title>amex</title><path class="a" d="M60.8,45.8H8.2A8.24,8.24,0,0,1,0,37.6V8.2A8.24,8.24,0,0,1,8.2,0H60.8A8.24,8.24,0,0,1,69,8.2V37.6A8.17,8.17,0,0,1,60.8,45.8ZM8.2,1.1A7.17,7.17,0,0,0,1,8.3V37.7a7.17,7.17,0,0,0,7.2,7.2H60.8A7.17,7.17,0,0,0,68,37.7V8.3a7.17,7.17,0,0,0-7.2-7.2Z"/><path class="a" d="M6,37.95a6.46,6.46,0,0,1-1-3.4V11.25A6.23,6.23,0,0,1,11.25,5h46.5a5.93,5.93,0,0,1,2.3.5l.8-.8a7.83,7.83,0,0,0-3.1-.7H11.25A7.17,7.17,0,0,0,4,11.25v23.3a7.39,7.39,0,0,0,1.3,4.1Z"/><path class="a" d="M63.35,6.85l-.7.7a6.23,6.23,0,0,1,1.3,3.8v23.3a6.23,6.23,0,0,1-6.2,6.2H11.25a5.3,5.3,0,0,1-2.8-.7l-.7.7a6.76,6.76,0,0,0,3.5.9h46.5a7.17,7.17,0,0,0,7.2-7.2V11.25A7,7,0,0,0,63.35,6.85Z"/><path class="a" d="M29.2,27.53l2-2.11v4.3Zm-6.27-1.58v1h2.81V28H22.93v1.07h3.15l1.47-1.58-1.4-1.56H22.93Zm34.88.81a2.37,2.37,0,0,1,.64,1.76c0,1.61-1.08,2.58-2.9,2.58h-2.5a.88.88,0,0,1-.81-.54,3.28,3.28,0,0,1-1.93.54h-2.5a.87.87,0,0,1-.38-.1.88.88,0,0,1-.38.1H42.76a.88.88,0,0,1-.39-.1.84.84,0,0,1-.39.1H40.69a.89.89,0,0,1-.89-.89v-.78c0-.08,0-.19,0-.29h-.74V30.2a.89.89,0,0,1-.89.89H36.88A.89.89,0,0,1,36,30.2V28.84a3.75,3.75,0,0,1-2,.45h-.71v.92a.89.89,0,0,1-.89.89H30a.88.88,0,0,1-.66-.3l-.93-1-1,1.06a.88.88,0,0,1-.65.28H21.65a.89.89,0,0,1-.89-.89V24.83a.89.89,0,0,1,.89-.89h5.16a.87.87,0,0,1,.66.3l.93,1,1-1a.88.88,0,0,1,.65-.28h4.1a3.55,3.55,0,0,1,2,.49.88.88,0,0,1,.78-.49h3a4,4,0,0,1,2,.36c.06,0,.11.09.17.13a.88.88,0,0,1,.78-.49H47a.87.87,0,0,1,.76.46,2.94,2.94,0,0,1,1.69-.46h2.57a.88.88,0,0,1,.83.59,2.85,2.85,0,0,1,1.84-.59H57.3a.89.89,0,0,1,.89.89V26a.89.89,0,0,1-.4.74ZM36.28,26.6c0-1.49-1.15-1.77-2.16-1.77H30l-1.63,1.76-1.58-1.76H21.65V30.2h5.08l1.64-1.78L30,30.2h2.49V28.4H34C35.17,28.4,36.28,28.09,36.28,26.6Zm4.86,1.11A1.51,1.51,0,0,0,42,26.28a1.26,1.26,0,0,0-.66-1.19,3.18,3.18,0,0,0-1.54-.25h-3V30.2h1.29v-2h1.37c.47,0,.75,0,.94.24s.21.73.21,1.05v.67H42V29.14a1.55,1.55,0,0,0-.21-1A1.36,1.36,0,0,0,41.14,27.71ZM47,24.83H42.76V30.2H47V29.09H44V28H47v-1.1H44v-1h3Zm5.28,3.67a1.49,1.49,0,0,0-.38-1.14,2.08,2.08,0,0,0-1.46-.43l-.69,0a1.49,1.49,0,0,1-.5-.06.45.45,0,0,1-.09-.79.86.86,0,0,1,.51-.1h2.35V24.83H49.49c-1.35,0-1.83.82-1.83,1.6,0,1.7,1.5,1.62,2.7,1.66a.68.68,0,0,1,.46.12.45.45,0,0,1,.16.35.48.48,0,0,1-.15.35.74.74,0,0,1-.52.13H47.81V30.2h2.5C51.6,30.2,52.32,29.66,52.32,28.51Zm5.24,0a1.5,1.5,0,0,0-.38-1.14,2.08,2.08,0,0,0-1.47-.43l-.69,0a1.49,1.49,0,0,1-.5-.06.45.45,0,0,1-.09-.79A.86.86,0,0,1,55,26H57.3V24.83H54.73c-1.35,0-1.83.82-1.83,1.6,0,1.7,1.5,1.62,2.7,1.66a.67.67,0,0,1,.46.12.45.45,0,0,1,.16.35.48.48,0,0,1-.15.35.74.74,0,0,1-.52.13H53.05V30.2h2.5C56.84,30.2,57.56,29.66,57.56,28.51ZM34.12,25.94H32.45v1.37H34.1c.49,0,.8-.24.8-.71S34.58,25.94,34.12,25.94Zm.75-8.15a.55.55,0,0,0,.26-.51.49.49,0,0,0-.27-.47,1.33,1.33,0,0,0-.61-.1H32.68v1.19h1.56A1.21,1.21,0,0,0,34.87,17.8ZM40.36,26a1.26,1.26,0,0,0-.61-.1H38.17v1.2h1.56a1.25,1.25,0,0,0,.64-.11.58.58,0,0,0,.26-.52A.52.52,0,0,0,40.36,26Zm4.74-9.53-.88,2.14H46ZM13.78,18.65h1.75l-.88-2.14ZM21,21.85a.89.89,0,0,1-.81-.53L20,20.94v0a.89.89,0,0,1-.89.89H16.49a.89.89,0,0,1-.82-.55l-.27-.65H13.92l-.27.65a.89.89,0,0,1-.82.55H11.43a.89.89,0,0,1-.81-1.24l2.3-5.37a.89.89,0,0,1,.82-.54h1.9a.89.89,0,0,1,.82.54l.48,1.12V15.6a.89.89,0,0,1,.89-.89h2.09a.89.89,0,0,1,.81.51L21.56,17l.76-1.8a.89.89,0,0,1,.81-.54h2.14a.87.87,0,0,1,.48.16.86.86,0,0,1,.48-.16h4.28a.85.85,0,0,1,.44.14.87.87,0,0,1,.44-.14h3a3.77,3.77,0,0,1,2,.38,1.82,1.82,0,0,1,.16.12.88.88,0,0,1,.79-.5H38.6a.87.87,0,0,1,.86.75,3.52,3.52,0,0,1,2.41-.75h1.24a.88.88,0,0,1,.53.18.88.88,0,0,1,.53-.18h1.92a.89.89,0,0,1,.81.54l.47,1.1V15.6a.89.89,0,0,1,.89-.89h2a.89.89,0,0,1,.76.43l.61,1V15.6a.89.89,0,0,1,.89-.89h1.31a.89.89,0,0,1,.89.89V21a.89.89,0,0,1-.89.89H52a.89.89,0,0,1-.76-.43l-.79-1.31V21a.89.89,0,0,1-.89.89H46.93a.89.89,0,0,1-.82-.55l-.27-.65H44.36l-.26.64a.88.88,0,0,1-.82.56h-1.5a3.72,3.72,0,0,1-2.32-.71.87.87,0,0,1-.85.71H37.29a.87.87,0,0,1-.4-.11.86.86,0,0,1-.4.11H35.2a.89.89,0,0,1-.89-.88v-.8c0-.07,0-.18,0-.27h-.74V21a.89.89,0,0,1-.89.89H31.4a.86.86,0,0,1-.44-.14.85.85,0,0,1-.44.14H26.23a.87.87,0,0,1-.48-.16.88.88,0,0,1-.48.16H24a.88.88,0,0,1-.89-.89v0l-.17.38a.88.88,0,0,1-.81.53Zm18.27-3.53a2.69,2.69,0,0,0,.69,2,2.69,2.69,0,0,0,1.86.59h1.5l.48-1.2h2.67l.5,1.2h2.61v-4L52,21h1.82V15.6H52.47v3.74L50.22,15.6h-2v5.08L46.09,15.6H44.17l-1.81,4.22h-.58a1.24,1.24,0,0,1-.89-.28,1.85,1.85,0,0,1-.35-1.26,1.77,1.77,0,0,1,.37-1.22,1.23,1.23,0,0,1,1-.32H43.1V15.6H41.87a2.6,2.6,0,0,0-1.95.63A2.88,2.88,0,0,0,39.23,18.32Zm2.67-.69c-.3,0-.33,0-.37.07a1.3,1.3,0,0,0-.1.58,1.36,1.36,0,0,0,.1.63,1,1,0,0,0,.25,0l.56-1.3ZM37.29,21H38.6V15.6H37.29Zm-5.9,0h1.28V19h1.38a1.26,1.26,0,0,1,.93.23,1.61,1.61,0,0,1,.2,1V21h1.29V19.91a1.54,1.54,0,0,0-.21-1,1.5,1.5,0,0,0-.64-.45,1.51,1.51,0,0,0,.9-1.43,1.25,1.25,0,0,0-.65-1.19,3,3,0,0,0-1.55-.26h-3V21Zm-5.17,0h4.28V19.85h-3V18.78h2.93v-1.1H27.51v-1h3V15.6H26.22ZM21,21h1.13l1.86-4.2V21h1.31V15.6H23.13l-1.54,3.64L19.91,15.6H17.82v5.08L15.63,15.6h-1.9L11.43,21h1.39l.5-1.2H16l.49,1.2H19.1V16.76Z"/></svg>