<svg xmlns="http://www.w3.org/2000/svg" viewBox="0 0 100 106.74"><defs><style>.a{fill:#e5e5e5;}.b{fill:#e63a3a;}</style></defs><title>collection_1</title><circle class="a" cx="50" cy="56.74" r="50"/><path class="b" d="M86.8,39.7a2.84,2.84,0,0,0,0-.33v-.06c0-.08,0-.16-.06-.24l0-.1-.08-.21,0-.09c0-.09-.09-.17-.14-.25v0a2.86,2.86,0,0,0-.18-.26l-.05-.06L86,37.89l-.07-.06-.19-.16-.06,0a2.84,2.84,0,0,0-.57-.33l-.09,0-.15-.06L67.3,31.37a23.11,23.11,0,0,0,0-12.46c-.08-.31-.18-.6-.28-.9q-.32-1.06-.72-2.08t-1-2.19a26.86,26.86,0,0,0-2.72-4.36A26,26,0,0,0,59.1,5.66a23.63,23.63,0,0,0-7-4.26A20.07,20.07,0,0,0,43.47,0a20.61,20.61,0,0,0-3.12.46c-.35.08-.7.17-1,.27L38.8.93l-.95.31-.94.36c-.61.25-1.2.52-1.77.82a22.85,22.85,0,0,0-3.83,2.5l-.66.55-.26.23c-.31.28-.61.56-.91.85L29,7a24.4,24.4,0,0,0-2.07,2.49c-.4.55-.77,1.12-1.13,1.7a24.46,24.46,0,0,0-3,7.72c-.08.36-.14.72-.2,1.08s-.1.7-.14,1v0a23.7,23.7,0,0,0-.13,3.5c0,.34,0,.67.06,1s.06.66.1,1c.08.68.19,1.36.34,2a24.67,24.67,0,0,0,1.15,3.77c.12.3.24.6.37.89s.27.59.41.88l.34.67L9.65,42.46l-.13.08-.09.05a2.84,2.84,0,0,0-.51.4L8.85,43l-.16.19-.06.07-.14.2,0,.07a2.86,2.86,0,0,0-.15.28v0c0,.09-.07.18-.1.27l0,.1c0,.07,0,.14-.05.22l0,.1c0,.08,0,.17,0,.25v.07a2.84,2.84,0,0,0,0,.33h0L11.13,89a2.85,2.85,0,0,0,2,2.52l37.49,12h0l0,0,.08,0,.17,0,.11,0,.16,0h.55l.28,0,.13,0,.14,0,.16-.05.1,0,.16-.07.08,0,0,0h0L88.26,86.3a2.85,2.85,0,0,0,1.6-2.77L86.8,39.71ZM27.11,24.48c0-.37,0-.73,0-1.09s0-.75,0-1.12a19.15,19.15,0,0,1,.53-3.17c.11-.42.23-.83.36-1.24s.3-.89.48-1.32A19.59,19.59,0,0,1,31.11,12a18.6,18.6,0,0,1,6.13-5.21c.31-.16.62-.29.94-.43s.62-.28.94-.4.49-.17.74-.25.5-.18.76-.26a15.87,15.87,0,0,1,3.19-.56,15.69,15.69,0,0,1,9.09,2.2,19.91,19.91,0,0,1,4.8,4A23,23,0,0,1,61,15.94a21.84,21.84,0,0,1,1.62,4.21c0,.06,0,.12,0,.19a17.39,17.39,0,0,1-1.86,13.75C58.63,37.6,53,41.57,49.1,42.42a17.48,17.48,0,0,1-2.43.34A18.43,18.43,0,0,1,29.1,32.22c-.14-.29-.27-.58-.4-.88s-.25-.6-.36-.9a20,20,0,0,1-.85-2.83A18.37,18.37,0,0,1,27.11,24.48ZM48.38,96.89,16.69,86.72,14.05,49,45.74,59.2ZM48.24,54,18.48,44.45l9.81-4.86a22.81,22.81,0,0,0,18.72,8,22,22,0,0,0,3.1-.44C55.26,46,62,41.23,64.92,36.66l0-.05L76.38,40.4ZM84,82l-30,14.49L51.43,58.8l30-14.49Z"/><path class="b" d="M36,19.34a7.26,7.26,0,0,0,2.2,2.85,6.31,6.31,0,0,0,.89.57,5.77,5.77,0,0,0,.91.39l.18.07a20.47,20.47,0,0,0,3.31.6c.22,2.15.43,4.38.64,6.79a12.82,12.82,0,0,1-3.27-2.16,2.12,2.12,0,0,0-1.63-.62,2.43,2.43,0,0,0-2,1.58,2,2,0,0,0,.57,2.23,17.1,17.1,0,0,0,6.76,3.78l.06.72a2.19,2.19,0,0,0,.74,1.54,2.43,2.43,0,0,0,1.76.57,2,2,0,0,0,2-2.21v-.14a7.1,7.1,0,0,0,4.6-2.18,10.27,10.27,0,0,0,3-7.61,5.57,5.57,0,0,0-1.86-3.63,6.67,6.67,0,0,0-.63-.5,14.93,14.93,0,0,0-6.56-2.21c-.07-.63-.14-1.25-.21-1.88q-.17-1.51-.34-3a13.45,13.45,0,0,1,2.19.61,2,2,0,0,0,2.72-1.7,2.44,2.44,0,0,0-.51-1.89,2.27,2.27,0,0,0-1-.69,16,16,0,0,0-4-.92v0a2.37,2.37,0,0,0-2.58-2.08,2.06,2.06,0,0,0-1.47.7A2,2,0,0,0,42,10.4v0a12.33,12.33,0,0,0-1.32.33,10.35,10.35,0,0,0-1.21.45,8.73,8.73,0,0,0-.93.5,8,8,0,0,0-.92.64,7.09,7.09,0,0,0-1.08,1.09,5.16,5.16,0,0,0-.47.74,5.7,5.7,0,0,0-.33,4.51A6.46,6.46,0,0,0,36,19.34Zm15.48,6.24a1.43,1.43,0,0,1,.74,1.22,5.75,5.75,0,0,1-2,4,3.57,3.57,0,0,1-1.56.69c-.2-2.47-.42-4.8-.65-7.08A10.57,10.57,0,0,1,51.46,25.58ZM40.17,16.22a2.23,2.23,0,0,1,.79-.74,5.69,5.69,0,0,1,1.54-.61c.08.73.16,1.47.25,2.2L43,19.22l-.91-.14A2.54,2.54,0,0,1,40,17.22,1.39,1.39,0,0,1,40.17,16.22Z"/></svg>