<svg xmlns="http://www.w3.org/2000/svg" viewBox="0 0 100 100"><defs><style>.a{fill:#e5e5e5;}.b{fill:#e63a3a;}</style></defs><title>collection</title><circle class="a" cx="50" cy="50" r="50"/><path class="b" d="M66.66,47.89A2.5,2.5,0,0,0,63.22,46C53.06,46.7,43,48.16,32.83,49.19A2.79,2.79,0,0,0,30.51,52c.26,2.71.55,5.41,1,8.09a2.42,2.42,0,0,0,2.62,2,2.33,2.33,0,0,0,1.19.18c10.22-1,20.45-2,30.69-2.79A2.26,2.26,0,0,0,67.32,59a2,2,0,0,0,.82-2.09Q67.41,52.41,66.66,47.89ZM35.95,57.48c-.17-1.26-.3-2.52-.44-3.77,8.94-1,17.85-2.17,26.82-2.84L63,55C54,55.75,45,56.6,35.95,57.48Z"/><path class="b" d="M93.93,19c-.08-.29-.19-.56-.28-.84q-.33-1-.74-2t-1-2.05a25.49,25.49,0,0,0-2.69-4.07,24.63,24.63,0,0,0-3.44-3.44A22.43,22.43,0,0,0,79,2.76a19,19,0,0,0-8.21-1.06,19.56,19.56,0,0,0-2.94.52l-1,.28-.48.16L65.51,3l-.89.37c-.57.25-1.12.52-1.66.82a21.68,21.68,0,0,0-3.57,2.47l-.61.54-.24.22c-.29.27-.57.55-.84.83l-.44.47a23.15,23.15,0,0,0-1.9,2.41c-.36.53-.71,1.08-1,1.64s-.66,1.23-1,1.86c-11.58.94-23.12,2.25-34.68,3.39a2.17,2.17,0,0,0-2,1.64A54.79,54.79,0,0,0,9,31.53a2.53,2.53,0,0,0-.16.41,2.19,2.19,0,0,0-.56,1.77c.27,2.78.5,5.55.51,8.34a2.49,2.49,0,0,0,.09.63,2.29,2.29,0,0,0,2.61,2.4c1.37-.28,2.75-.49,4.13-.66,1.55,15.29,3.33,26,3.75,41.54a2,2,0,0,0,.78,1.64,2.37,2.37,0,0,0,1.86.8c20.33-.32,40.36-3.87,60.55-5.9a2.51,2.51,0,0,0,.67-.17,2.38,2.38,0,0,0,2.07-2.5c-.58-13.32-1.4-23.19-2.56-35.43a26.16,26.16,0,0,0,9.41-8.54A21.05,21.05,0,0,0,93.93,19ZM20.45,22.62c10.44-1,20.88-2.21,31.33-3.09,0,.21-.09.41-.12.62s-.11.69-.16,1-.08.66-.11,1v0a22.49,22.49,0,0,0,0,3.32q0,.24,0,.49c-12.06.78-24.08,2.13-36.06,3.81A46.15,46.15,0,0,1,20.45,22.62Zm-7,17.28c-.05-1.65-.18-3.31-.33-5,13-1.88,26.07-3.38,39.16-4.23q.35,1.11.8,2.17c.12.28.24.56.37.84s.27.55.41.82a23.31,23.31,0,0,0,1.18,2c-11.64.77-23.28,1.62-34.86,3.09a2.24,2.24,0,0,0-1.53-.37C16.94,39.45,15.2,39.64,13.48,39.9Zm66.92,38C61.6,79.9,42.92,83,24,83.59c-.53-14.7-2.12-24.53-3.62-39.15,12.8-1.64,25.66-2.51,38.53-3.36a21.48,21.48,0,0,0,16.47,5.6,20.94,20.94,0,0,0,2.68-.44C79.11,57.2,79.81,65.87,80.39,77.93Zm7.78-44.4c-2,3.39-7.22,7.3-10.93,8.2a16.59,16.59,0,0,1-2.29.39A17.49,17.49,0,0,1,58,32.58c-.14-.27-.27-.54-.4-.82s-.25-.56-.37-.84a19,19,0,0,1-.88-2.67,17.43,17.43,0,0,1-.44-3c0-.35,0-.69,0-1s0-.71,0-1.06a18.17,18.17,0,0,1,.42-3c.09-.4.2-.79.31-1.19s.26-.85.42-1.27a18.59,18.59,0,0,1,2.36-4.4,17.65,17.65,0,0,1,5.68-5.1c.29-.16.58-.29.88-.44s.58-.28.88-.41.46-.17.69-.26.47-.19.71-.26a15.06,15.06,0,0,1,3-.62,14.89,14.89,0,0,1,8.68,1.85,18.89,18.89,0,0,1,4.65,3.64,21.86,21.86,0,0,1,3.31,4.58,20.73,20.73,0,0,1,1.65,4c0,.06,0,.12,0,.18A16.5,16.5,0,0,1,88.18,33.53Z"/><path class="b" d="M81.44,22.23a14.17,14.17,0,0,0-6.28-1.93c-.08-.59-.17-1.19-.25-1.78q-.2-1.43-.4-2.85a12.77,12.77,0,0,1,2.09.52,1.89,1.89,0,0,0,2.53-1.68,2.32,2.32,0,0,0-.53-1.78,2.15,2.15,0,0,0-.93-.63,15.18,15.18,0,0,0-3.78-.77v0a2.25,2.25,0,0,0-2.5-1.9,2,2,0,0,0-1.37.71,1.85,1.85,0,0,0-.35,1.44v0a11.7,11.7,0,0,0-1.25.35,9.82,9.82,0,0,0-1.13.46,8.28,8.28,0,0,0-.87.5,7.62,7.62,0,0,0-.86.63,6.72,6.72,0,0,0-1,1.06,4.9,4.9,0,0,0-.43.71,5.41,5.41,0,0,0-.2,4.29,6.13,6.13,0,0,0,.25.61,6.88,6.88,0,0,0,2.16,2.64,6,6,0,0,0,.86.52,5.48,5.48,0,0,0,.88.35l.18.06a19.43,19.43,0,0,0,3.16.48c.27,2,.52,4.14.78,6.43a12.17,12.17,0,0,1-3.16-2,2,2,0,0,0-1.57-.54,2.3,2.3,0,0,0-1.9,1.55,1.93,1.93,0,0,0,.6,2.1,16.22,16.22,0,0,0,6.51,3.41l.07.68a2.08,2.08,0,0,0,.74,1.45,2.31,2.31,0,0,0,1.68.49A1.91,1.91,0,0,0,77,35.7v-.13a6.73,6.73,0,0,0,4.31-2.19,9.75,9.75,0,0,0,2.61-7.3,5.29,5.29,0,0,0-1.85-3.4A6.33,6.33,0,0,0,81.44,22.23ZM70,19.78a2.41,2.41,0,0,1-2-1.7,1.32,1.32,0,0,1,.15-1,2.12,2.12,0,0,1,.73-.72,5.4,5.4,0,0,1,1.45-.62l.29,2.08.28,2Zm8,10.88a3.38,3.38,0,0,1-1.47.69c-.26-2.34-.52-4.54-.8-6.7a10,10,0,0,1,3.31,1.06,1.36,1.36,0,0,1,.73,1.14A5.46,5.46,0,0,1,78,30.66Z"/></svg>