<svg xmlns="http://www.w3.org/2000/svg" viewBox="0 0 69 45.8"><defs><style>.a{fill:#fff;}</style></defs><title>discover</title><path class="a" d="M60.8,45.8H8.2A8.24,8.24,0,0,1,0,37.6V8.2A8.24,8.24,0,0,1,8.2,0H60.8A8.24,8.24,0,0,1,69,8.2V37.6A8.17,8.17,0,0,1,60.8,45.8ZM8.2,1.1A7.17,7.17,0,0,0,1,8.3V37.7a7.17,7.17,0,0,0,7.2,7.2H60.8A7.17,7.17,0,0,0,68,37.7V8.3a7.17,7.17,0,0,0-7.2-7.2Z"/><path class="a" d="M6,37.95a6.46,6.46,0,0,1-1-3.4V11.25A6.23,6.23,0,0,1,11.25,5h46.5a5.93,5.93,0,0,1,2.3.5l.8-.8a7.83,7.83,0,0,0-3.1-.7H11.25A7.17,7.17,0,0,0,4,11.25v23.3a7.39,7.39,0,0,0,1.3,4.1Z"/><path class="a" d="M63.35,6.85l-.7.7a6.23,6.23,0,0,1,1.3,3.8v23.3a6.23,6.23,0,0,1-6.2,6.2H11.25a5.3,5.3,0,0,1-2.8-.7l-.7.7a6.76,6.76,0,0,0,3.5.9h46.5a7.17,7.17,0,0,0,7.2-7.2V11.25A7,7,0,0,0,63.35,6.85Z"/><path class="a" d="M47.6,19.76H43.73v-7H47.6V14H45.1V15.5h2.41v1.18H45.1v1.89h2.5Zm2.27,0H48.51v-7h2c1.57,0,2.47.76,2.47,2.06a1.86,1.86,0,0,1-1.59,2l2.2,2.94H51.93L50,16.95h-.18Zm0-3.77h.4c.87,0,1.33-.38,1.33-1.08s-.46-1-1.31-1h-.42V16Zm-9.77,4,3-7.17H41.64l-1.89,4.7-1.86-4.7H36.4l3,7.17Zm13.43-6.47h-.15v-.61h.2c.15,0,.23.07.23.19a.17.17,0,0,1-.13.17l.2.25H53.7l-.17-.24v.24Zm0-.34h0c.07,0,.11,0,.11-.08s0-.08-.11-.08h0ZM16.41,19.76h1.36v-7H16.41Zm-.63-3.49A3.5,3.5,0,0,1,14.51,19a3.64,3.64,0,0,1-2.49.81H10v-7h2A3.47,3.47,0,0,1,15.78,16.27Zm-1.4,0a2.35,2.35,0,0,0-.76-1.74A2.53,2.53,0,0,0,11.75,14h-.37v4.62h.37A2.58,2.58,0,0,0,13.62,18,2.39,2.39,0,0,0,14.37,16.26ZM33.11,20a3.72,3.72,0,0,0,3.55-2.61c0-.06,0-.13.05-.19l0-.16a3.6,3.6,0,0,0,.08-.75A3.72,3.72,0,1,0,33.11,20Zm-5.87-.09a3.74,3.74,0,0,0,1.71-.41V17.9a2.18,2.18,0,0,1-1.65.77A2.28,2.28,0,0,1,25,16.26a2.32,2.32,0,0,1,2.28-2.4,2.28,2.28,0,0,1,1.71.79V13a3.47,3.47,0,0,0-1.68-.43,3.68,3.68,0,0,0-3.72,3.66A3.62,3.62,0,0,0,27.23,19.91Zm25.84-6.75a.53.53,0,1,1,.54.54A.53.53,0,0,1,53.07,13.16Zm.11,0a.42.42,0,1,0,.42-.44A.43.43,0,0,0,53.18,13.16Zm7.29,22.9V22.68s-13.1,9.25-37.11,13.39H60.47ZM21.1,15.45c-.82-.3-1.06-.5-1.06-.88s.43-.78,1-.78a1.41,1.41,0,0,1,1.1.57l.71-.94a3.07,3.07,0,0,0-2.05-.77,2.05,2.05,0,0,0-2.18,2c0,1,.44,1.46,1.72,1.92a5.44,5.44,0,0,1,.94.4.84.84,0,0,1,.41.72,1,1,0,0,1-1.06,1,1.61,1.61,0,0,1-1.49-.93l-.88.85a2.72,2.72,0,0,0,2.42,1.33,2.25,2.25,0,0,0,2.41-2.3C23.11,16.52,22.65,16,21.1,15.45Z"/></svg>