<svg xmlns="http://www.w3.org/2000/svg" viewBox="0 0 100 107.1"><defs><style>.a{fill:#e5e5e5;}.b{fill:#e63a3a;}</style></defs><title>Asset 4</title><circle class="a" cx="50" cy="53.81" r="50"/><path class="b" d="M68.46,47.82h-.28A141,141,0,0,0,57.79,25.75c-5.31-9-14-21.43-27.67-25.64a2.27,2.27,0,0,0-1.58.07C23,2.51,22.25,29.09,22.26,29.36a101.84,101.84,0,0,0,5.05,32.05c.25.76.52,1.5.79,2.25a2.86,2.86,0,0,0-.33.31c-8.86,9.84-10.41,24.52-4.25,40.28v.43a2.35,2.35,0,0,0,1,2A3,3,0,0,0,29,104.45a2.59,2.59,0,0,0,0-1.12c.12-7.9,3.62-15.71,9.85-22a2.4,2.4,0,0,0,.4-.13L42.09,80l.67-.29,2.48,5.91a2.85,2.85,0,0,0,.31.55A2.65,2.65,0,0,0,48.47,88l1.11-.16h0c2.72,7.89,9.08,11.58,15.81,15.49,1.51.87,3.07,1.78,4.67,2.78a2.78,2.78,0,0,0,2.9.35,2.84,2.84,0,0,0,1.79-2.74c-.07-2.55.09-5,.23-7.42.36-5.8.7-11.29-2-17a2.89,2.89,0,0,0,1.32-3.39c-.9-2.86-2-5.6-3.28-8.77l.48-.22.19-.11c9.3-2.33,16.51,3.6,20.17,9.94a3,3,0,0,0,3.78,1.21,2.38,2.38,0,0,0,1.57-2.61,3,3,0,0,0-.12-1.09C92.54,59,81.83,49.1,68.46,47.82ZM25.76,91.69c-1-6.51-.66-15,4.7-22.25,1.24,2.75,2.66,5.53,4.23,8.29A41,41,0,0,0,25.76,91.69Zm43.8,5.26c-.05.78-.11,1.57-.15,2.37l-1-.54c-5.49-3-11.16-6.12-13.38-12,.66-.16,1.35-.34,2.09-.54a22.68,22.68,0,0,0,7.2,6.66,3,3,0,0,0,3.19.74,2.59,2.59,0,0,0,1.4-1.49c.33-.83.62-1.68.87-2.55A66.07,66.07,0,0,1,69.56,96.95ZM62.68,84.41c.92-.36,1.84-.75,2.75-1.16a27.52,27.52,0,0,1-.56,3.34A17.62,17.62,0,0,1,62.68,84.41Zm5.63-8.88a52.3,52.3,0,0,1-18.45,6.54l-1.94-4.62C54,74.8,60.16,72,65.94,69.4,66.66,71.14,67.52,73.3,68.31,75.54Zm-.92-12.73c-.66.48-3.65,2.14-16.89,7.69C45.47,72.6,41,74.42,39.56,75,28,54.25,25.07,31.18,30.94,6.37,42.18,11.11,49.37,22,54.4,31.09,59.25,39.82,63.39,49.91,67.39,62.81ZM72.69,61c-.78-2.51-1.58-5-2.4-7.35a24.79,24.79,0,0,1,15.14,9.47A21.9,21.9,0,0,0,72.69,61Z"/><path class="b" d="M48.14,29.71A9,9,0,0,0,40,29.06c-3.91,1.64-6.65,6-7,11.09a19.59,19.59,0,0,0,1.43,8.28A14,14,0,0,0,41.81,56a9.17,9.17,0,0,0,7.27.21,9,9,0,0,0,2.49-1.58c2.35-2.09,3.75-5.41,3.94-9.34.24-4.89-1.45-10-4.29-13.08A13.58,13.58,0,0,0,48.14,29.71Zm1.57,13a8,8,0,0,1-2.43,7.15c-1.62,1.32-3.56,1.17-5.42-.44-2.13-1.85-3.21-5.78-3.14-8.54,0-1.77,1.3-5.51,3.22-6.32a1.94,1.94,0,0,1,.69-.15C46.19,34.3,49.07,39.25,49.71,42.72Z"/></svg>