<svg xmlns="http://www.w3.org/2000/svg" viewBox="0 0 114.11 102.45"><defs><style>.a{fill:#e5e5e5;}.b{fill:#e63a3a;}</style></defs><title>Asset 7</title><circle class="a" cx="57.77" cy="50.02" r="50"/><path class="b" d="M20.32,75.32a2.37,2.37,0,0,0-.48-.46c-.68-.47-1.79-1.15-2.06-2-.24-.65.73-1.15,1.27-1.46,2.63-1.54.49-5.78-2.16-4.24-2,1.19-3.89,2.91-3.92,5.45s1.94,4.52,3.87,5.94a2.52,2.52,0,0,0,.92.74A18.42,18.42,0,0,1,24,84c1.73,2.09,0,2.68-2.13,3.24-2.95.75-2,5.4,1,4.65,4-1,8.06-3.82,6.2-8.5C27.58,79.66,23.83,77.12,20.32,75.32Z"/><path class="b" d="M30.14,62.15c-1.91-1.89-4.87.3-4.09,2.33,1.76,7,3.58,13.9,5.34,20.86.75,2.95,5.4,2,4.65-1l-.73-2.85c1.18-.6,2.33-1.17,3.47-1.84a2.91,2.91,0,0,0,.65-.54c.71.84,1.42,1.64,2.1,2.5,1.92,2.4,5.47-.79,3.54-3.16A202,202,0,0,0,30.14,62.15Zm4,14.63L32.83,71.7C34,73,35.2,74.26,36.38,75.58,35.63,76,34.87,76.39,34.12,76.78Z"/><path class="b" d="M51.72,73.27a12.77,12.77,0,0,1-2.08,1.21A164.3,164.3,0,0,1,39.66,58c-1.45-2.69-5.69-.55-4.24,2.16A166.93,166.93,0,0,0,46.84,78.74a2.23,2.23,0,0,0,.85.73,2,2,0,0,0,1.61.23,20.18,20.18,0,0,0,5.58-2.86,2.38,2.38,0,0,0-3.16-3.56Z"/><path class="b" d="M61.1,65.27c-.33.23-.88.55-1.37.81l-.63.31C58.22,65.2,57.4,64,56.6,62.75c.5-.27,1-.56,1.44-.86a2.43,2.43,0,0,0,1-3.19,2.37,2.37,0,0,0-3.19-1q-.82.54-1.7,1c-.79-1.46-1.55-2.95-2.24-4.47A24.6,24.6,0,0,0,54.38,53a2.4,2.4,0,0,0,1-3.19,2.36,2.36,0,0,0-3.19-1,20.18,20.18,0,0,1-3.69,1.74,2.7,2.7,0,0,0-1.74,1.57,2.47,2.47,0,0,0-.09,2,68.86,68.86,0,0,0,9.74,16.7,2,2,0,0,0,2,.84,1.83,1.83,0,0,0,.49-.09,18.49,18.49,0,0,0,5.37-2.69,2.38,2.38,0,0,0,.19-3.35A2.45,2.45,0,0,0,61.1,65.27Z"/><path class="b" d="M112.29,4.76c-3.75-6.07-11.48-5.27-17.35-3.38a69.18,69.18,0,0,0-10,4.06C74.77,10.62,55.1,22.36,56.42,36c-18,9.73-38.49,20.17-54.85,28.38a2.25,2.25,0,0,0-.86.73,2,2,0,0,0-.38,2.65c1.58,2.72,3.05,5.5,4.45,8.3,0,0,0,0,0,.07,3.47,8.2,7.15,16.32,10.91,24.4a3.07,3.07,0,0,0,.4.62,2,2,0,0,0,2.56,1.24C43.31,95.44,72,77.48,92.87,63.11a1.83,1.83,0,0,0,.9-1.73,2.32,2.32,0,0,0-.14-1.49,92,92,0,0,0-4.68-9.39,53.91,53.91,0,0,0,6-4.62,62.48,62.48,0,0,0,14.22-17.31c2.53-4.73,5.3-11.62,4.91-17.66A12.36,12.36,0,0,0,112.29,4.76ZM88.69,60.31c-19.3,13.32-46.6,30.12-69.26,36.87-3.3-7.12-6.54-14.25-9.61-21.47a2.51,2.51,0,0,0-.23-.77C8.36,72.45,7.06,70,5.68,67.56c20-10.08,47-23.86,66.49-34.86,3.6,5.58,7.34,11,10.72,16.73a14.93,14.93,0,0,1-3.59,1.17,7.94,7.94,0,0,0-1.56-4c-.13-.14-.26-.31-.39-.43-3.93-4.16-12.11-1.85-14.49,3-1.21,2.47-.33,7,1.88,8.87a10.58,10.58,0,0,0,10.07,1.55,7.46,7.46,0,0,0,4.09-4.87,20.15,20.15,0,0,0,5.94-1.86C86.23,55.27,87.53,57.75,88.69,60.31Zm-17-12a3.09,3.09,0,0,1,2.35,1,3,3,0,0,1,.7,1A8.59,8.59,0,0,1,71.66,48.3Zm1.79,5.93a4.28,4.28,0,0,1-3.77,1.21A2.86,2.86,0,0,1,68,54.38a3.44,3.44,0,0,1,.21-3.67s0,.07.09.1A12.16,12.16,0,0,0,73.45,54.23ZM110,10.64c-.5,11.71-6.08,20.13-13.86,28.38a60.87,60.87,0,0,1-9.08,8c-3.74-6.23-7.91-12.2-11.79-18.37a2.86,2.86,0,0,0-.49-.55,2.07,2.07,0,0,0-2.89-.69c-3.57,2-7.37,4.11-11.31,6.27C61.44,24,76.63,15,83.58,10.91c6.58-3.84,24.26-13.18,26.39-.36Z"/></svg>