<svg xmlns="http://www.w3.org/2000/svg" viewBox="0 0 512 512"><defs><style>.a{fill:#fff;}</style></defs><title>Asset 1</title><path class="a" d="M437,75A256,256,0,0,0,0,256,256.07,256.07,0,0,0,256,512,256.07,256.07,0,0,0,512,256,254,254,0,0,0,437,75ZM425.7,425.7A240,240,0,1,1,86.3,86.3,240,240,0,1,1,425.7,425.7Z"/><path class="a" d="M430,115a8,8,0,0,0-12.5,10.1,208.68,208.68,0,0,1,46.4,131A207.92,207.92,0,0,1,117.3,411a8,8,0,0,0-11.3.6,8,8,0,0,0,.6,11.3A224,224,0,0,0,430,115Z"/><path class="a" d="M48,256C48,141.3,141.3,48,256,48a207.53,207.53,0,0,1,138.7,53,8,8,0,1,0,10.7-11.9A224,224,0,0,0,82,397a8.22,8.22,0,0,0,6.2,3,7.68,7.68,0,0,0,5-1.8,8.07,8.07,0,0,0,1.2-11.3A208.2,208.2,0,0,1,48,256Z"/><path class="a" d="M398.7,194.8a8,8,0,0,0-.5-9.6,8.15,8.15,0,0,0-9.4-2.2l-.6.3a56.59,56.59,0,0,0,4.6-10.7,8,8,0,0,0-11.7-9.3,94,94,0,0,1-25.7,10.5,58.9,58.9,0,0,0-98.5,43.6,26.2,26.2,0,0,0,.1,2.8,136.49,136.49,0,0,1-89.4-49.4,8,8,0,0,0-13.1,1,58.76,58.76,0,0,0-.9,57.6,7.56,7.56,0,0,0-3.5,1.1,8.06,8.06,0,0,0-3.9,6.9v.6a59,59,0,0,0,20.6,44.7,6,6,0,0,0-.8.8,7.74,7.74,0,0,0-1.6,7.7,58.71,58.71,0,0,0,34.3,36.7,94.3,94.3,0,0,1-42.3,9.9,103.67,103.67,0,0,1-11.2-.6,8,8,0,0,0-8.5,5.3,7.94,7.94,0,0,0,3.2,9.4A152.05,152.05,0,0,0,222.2,376c57.5,0,93.4-27.1,113.5-49.9,25-28.3,39.3-65.8,39.3-102.9v-2.7A116.17,116.17,0,0,0,398.7,194.8Zm-36.8,15.4a8.13,8.13,0,0,0-3.3,6.9c.1,2,.1,4,.1,6.2,0,33.2-12.9,66.9-35.3,92.3-17.9,20.3-50,44.5-101.5,44.5a137.14,137.14,0,0,1-45.9-7.9,109.8,109.8,0,0,0,48.2-21.7,7.84,7.84,0,0,0,2.6-8.8,8.17,8.17,0,0,0-7.4-5.5,43.08,43.08,0,0,1-34.5-18.5,53.85,53.85,0,0,0,11.9-2,8,8,0,0,0-.5-15.6,43,43,0,0,1-32.7-30.3,58.36,58.36,0,0,0,13.1,1.9,8,8,0,0,0,4.7-14.6,43,43,0,0,1-19.1-35.7,43.83,43.83,0,0,1,1.4-10.8,152.54,152.54,0,0,0,102,46.3,8,8,0,0,0,8.1-9.8,44.59,44.59,0,0,1-1.1-9.8,42.94,42.94,0,0,1,74.2-29.4,8.18,8.18,0,0,0,7.4,2.4c3-.6,6-1.3,9-2.2a35.47,35.47,0,0,1-4.7,3.2,8,8,0,0,0,5,14.8c1.3-.2,2.6-.3,3.9-.5A41.53,41.53,0,0,1,361.9,210.2Z"/></svg>