<svg xmlns="http://www.w3.org/2000/svg" viewBox="0 0 68.99 45.75"><defs><style>.a{fill:#fff;}</style></defs><title>Asset 2</title><path class="a" d="M55.24,15.83h-3a2,2,0,0,0-2,1.2l-5.8,13.1h4.1s.7-1.8.8-2.1h5c.1.5.5,2.1.5,2.1h3.6ZM50.44,25l1.5-4s.3-.8.5-1.4l.3,1.2s.7,3.4.9,4.1h-3.2Zm-5.8.4c0,3-2.7,4.9-6.8,4.9a11.75,11.75,0,0,1-4.3-.8l.5-3.2.5.2a8.73,8.73,0,0,0,3.7.7c1.1,0,2.3-.4,2.3-1.4,0-.6-.5-1.1-2-1.8s-3.4-1.8-3.4-3.9c0-2.8,2.7-4.7,6.6-4.7a10,10,0,0,1,3.5.6l-.5,3.1-.4-.2a5.81,5.81,0,0,0-2.9-.5c-1.5,0-2.2.6-2.2,1.2s.8,1.1,2.2,1.8C43.64,22.53,44.74,23.83,44.64,25.43ZM10.54,16l.1-.3h6a1.54,1.54,0,0,1,1.7,1.2l1.3,6.3C18.34,19.83,15.24,17.13,10.54,16Zm17.6-.2L22,30h-4.1l-3.5-11.8a15.48,15.48,0,0,1,5.4,5.9l.4,1.5,3.8-9.7,4.1-.1Zm1.6,0h3.8l-2.4,14.3h-3.9Z"/><path class="a" d="M60.8,45.75H8.18A8.19,8.19,0,0,1,0,37.57V8.18A8.19,8.19,0,0,1,8.18,0H60.8A8.19,8.19,0,0,1,69,8.18V37.57A8.19,8.19,0,0,1,60.8,45.75ZM8.18,1A7.19,7.19,0,0,0,1,8.18V37.57a7.19,7.19,0,0,0,7.18,7.18H60.8A7.19,7.19,0,0,0,68,37.57V8.18A7.19,7.19,0,0,0,60.8,1Z"/><path class="a" d="M6.06,37.89a6.13,6.13,0,0,1-1-3.38V11.24a6.18,6.18,0,0,1,6.17-6.17H57.77a6.13,6.13,0,0,1,2.33.46l.75-.75a7.12,7.12,0,0,0-3.08-.7H11.22A7.18,7.18,0,0,0,4,11.24V34.51a7.13,7.13,0,0,0,1.3,4.1Z"/><path class="a" d="M63.35,6.75l-.71.71a6.14,6.14,0,0,1,1.3,3.78V34.51a6.18,6.18,0,0,1-6.17,6.17H11.22A6.13,6.13,0,0,1,8.42,40l-.74.74a7.12,7.12,0,0,0,3.53.94H57.77a7.18,7.18,0,0,0,7.17-7.17V11.24A7.14,7.14,0,0,0,63.35,6.75Z"/></svg>