<svg xmlns="http://www.w3.org/2000/svg" viewBox="0 0 100 105.96"><defs><style>.a{fill:#e5e5e5;}.b{fill:#e63a3a;}</style></defs><title>3</title><circle class="a" cx="50" cy="52.44" r="50"/><path class="b" d="M47.5,77.76c1-.84,1.26-2.38,2.24-3.36.28-.42,1-.42,1.54-.7a5.76,5.76,0,0,1-.14,1.54c-.7,1.4-1.82,2.94-2,4.48-.42,4.62-4.06,8.68-2.38,13.44.14.42,0,1,.28,1.12a70.62,70.62,0,0,0,6.16,3.64,4,4,0,0,0,3.08-.84,13.25,13.25,0,0,0,5.46-6.86c3.36-8.26,4.48-16.52,1-25.06-.84-2.52-1.12-5-3.5-7-3.22-2.38-6.58-3.78-10.5-2.1a7.77,7.77,0,0,1-7.42-.28c-.28-.28-1.12-.14-1.4-.42a13.27,13.27,0,0,1-3.36-2.8,1.74,1.74,0,0,1,1-2.66c6.16-3.36,10.5-8.26,14.28-13.86a51.38,51.38,0,0,0,7-14.84,24.44,24.44,0,0,0,.42-11.9c-.84-3.22-2.66-4.62-5.6-3.36a57.43,57.43,0,0,0-10.22,4.9c-2,.84-3.5,2.38-5.18,3.64l-.84.42c-1.26.7-2.52,2.1-3.92.56-1.12-1-.42-4.2.84-5.18,3.08-2.52,6-4.9,9.24-7.28C46.52.48,50.44-.22,54.22.06c4.34.42,8.54,1,12,4.06,2.38,2.24,3.92,4.48,3.36,8.12-.56,1.68.14,3.78,0,5.6a23.41,23.41,0,0,1-.7,4.34,18.84,18.84,0,0,1-2,3.08c-1.12,2.66-1.82,5.46-3.08,7.84C62.34,36,61.08,39,58.42,41.22c-.28.28-.56.42-.7.7a56.85,56.85,0,0,1-2.94,4.9c-1,1.68-1,1.82.56,2.38h.28c4.34.56,7.42,3.36,10.92,5.18a17.22,17.22,0,0,1,6,4.9c1.4,1.54,2.1,3.64,2.94,5.88A56.75,56.75,0,0,1,77.88,72a1.54,1.54,0,0,1,0,1.12A4.74,4.74,0,0,0,78,77.06a2.38,2.38,0,0,1,.28.7c-.28,2.66-.42,5.18-.7,7.7-.28,1.4-.7,2.94-1,4.34a23.61,23.61,0,0,1-6.72,12.6c-3.64,3.64-8.26,4.34-13.16,2.8-3.08-1-6.44-2.24-9.52-3.36-4.62-1.4-5.74-3.08-5.6-9.38C42.74,88.12,43.72,82.52,47.5,77.76Zm-3.36,12.6s.42,0,.42-.14-.28-.28-.42-.42c0,.14-.14.14-.28.28C44,90.22,44,90.36,44.14,90.36ZM54.36,37c-.7,1.12-1.68,2.24-2.52,3.36,0,.14.7.42.7.7.84-1.26,1.82-2.38,2.8-3.78C54.92,37.16,54.36,36.74,54.36,37Zm3.22-5c-.84,1-1.4,1.82-2.24,2.94.14,0,.56.14.7.14.56-.84,1.4-1.68,2.1-2.66A1,1,0,0,1,57.58,32Zm2.1-3.36a2,2,0,0,1-.42-.28,8.47,8.47,0,0,0-1.12,1.12c0,.14.28.42.56.7C58.84,29.6,59.4,29.18,59.68,28.62Zm1.54,68.32c1-1.26,1.82-2.66,2.66-3.92,0,0-.56-.42-.7-.56-1,1.26-2.1,2.8-3.22,4.2C60.66,96.8,61.08,97.08,61.22,96.94Z"/></svg>