<svg xmlns="http://www.w3.org/2000/svg" viewBox="0 0 100 103.39"><defs><style>.a{fill:#e5e5e5;}.b{fill:#e63a3a;}</style></defs><title>5</title><circle class="a" cx="50" cy="52.46" r="50"/><path class="b" d="M77.52,66.55c-1.12,2.52-1.68,5.32-3.08,7.42s-3.22,3.22-2.1,5.74c-1.82,1.4-1.54,3.36-1.54,5.18-.14.7-.7,1.12-1,1.82-1.54,2.38-3.08,4.76-4.48,7-.42,1-1.26,1.4-1.82,2.24-.84,1-2.1,1.54-2.38,2.52-1.26,3.22-3.5,5.18-6.3,4.9a145.2,145.2,0,0,1-14.42-3.08c-2.38-.7-4.48-2.52-6.58-4.9a18.05,18.05,0,0,1-3.92-10.08c.14-2.24.42-4.76.56-7.14a8.87,8.87,0,0,0,2-3.36c1.68-2.94,3.08-6.3,5-9.24,1.26-2.1,3.5-3.5,5.18-5,.14-.28.42-.28.84-.42a2.38,2.38,0,0,1-.14,1c-1.26,2-2.38,4.06-3.5,6.16-2.8,6.16-4.48,12.32-3.08,18.9a11.09,11.09,0,0,0,8.4,9c2.1.7,3.5-.28,4.9-1.54,6.3-5.88,11.2-12.74,13.44-21.42.14-.42.28-1,.42-1.4s.84-.7,1-1a3.3,3.3,0,0,1,.28,1.12,1.29,1.29,0,0,1,.56.84c.14-.42.42-.42.42-.56a49,49,0,0,0-1.26-23c-1.68-5.74-3.5-11.76-8-16.38C54,28.61,53.3,28.19,49.8,30.57A72.34,72.34,0,0,0,42.38,36c-.28.28-1,.84-1,1-.42,2.38-2.52,3.64-4.2,5.18-3.22,2.52-4.34,2.8-7.7,1C27.68,42,26.28,39.95,24,39.67c-.28,0-.7-1.54-.7-2.24.56-2.94,1.12-6,1.82-9.1,2-6.16,3.78-12.6,5.6-18.9a13.13,13.13,0,0,1,1.68-2.52,5,5,0,0,0,1.4-1c.28-.14.42-.42.56-.56A4.65,4.65,0,0,1,36.64,3c2.94-.84,6.16-1.4,9.38-2.1,2.66-.28,5.46-.56,8.4-.7,1.54,0,3.22-.42,4.62,0,.84,0,1.26.84,2.1,1.4-.7.42-1,1.26-1.4,1.4-3.5,1.4-7,2.52-10.36,3.78-1.82.7-3.36,1.26-5.18,2V7.89c-1.82.14-3.22,0-4.9,0,.84,1,.84,2.1.7,3.78-.28,5.18-1.82,10.36-3.36,15.4a3.57,3.57,0,0,0,.14,1.68,11.72,11.72,0,0,0,1.68-.56,69.72,69.72,0,0,1,8.68-4.06C53.72,22,59.46,24,64.92,28a35.26,35.26,0,0,1,5.88,6.86c1.54,2.52,2,5.32,2.8,8,0,.14-.14.28,0,.28C77,46.53,75.28,51,76.26,54.51c1,2.52.14,4.62.56,6.86a1.87,1.87,0,0,1-.14,1.26c-.84,1.12-2.66,2.38.56,2.24C77.52,64.87,77.52,66,77.52,66.55ZM59.88,86.43c-.14.28-.7.14-.84.42-.7,1.26-1.68,2.38-2.38,3.5-.14.42.28.7.42.84s.28.28.56.28A36.32,36.32,0,0,0,60,87.55C60.16,87.27,59.88,86.85,59.88,86.43Zm3.92-6c-.14,0-.42-.28-.42-.28-.7,1.26-1.4,2.52-2.1,3.64,0,.28.28.56.42.84.14-.14.28-.14.28-.28C62.68,83.07,63.24,81.53,63.8,80.41Zm.7-4.06-.14-.14v.14Z"/></svg>