<svg preserveAspectRatio="none" xmlns="http://www.w3.org/2000/svg" viewBox="0 0 1183.16 863.75"><defs><style>.cls-1{fill:#fdfdfd;}</style></defs><title>Asset 1</title><g id="Layer_2" data-name="Layer 2"><g id="Layer_1-2" data-name="Layer 1"><path class="cls-1" d="M2.13,150.36C2.8,157.92,3.35,165.5,4.69,173c1,5.53,2.31,11,2.6,16.72C7.5,194,7.16,199,9.74,202.32c4.61,5.88,4.94,12.82,6.51,19.46.72,3.06,1.5,6.67-2.16,9a1.92,1.92,0,0,0-.46,2.31c2.87,6,1.89,13.22,5.82,18.91,1.25,1.81,2.44,3.71.56,5.87-1.26,1.67-1.31,3.62-1.36,5.59-.09,4.2,1.1,8.33.65,12.55.45,1.43,1.21,2.82,1.12,4.33-.57,9.51,1.1,18.84,2.13,28.23.29,2.69.17,5.46,3.62,6.28,4.39,1,5.48,4.12,5.43,8.27-.14,11.32-.05,22.64,0,34,0,2-.24,4.06.45,5.95,1.88,5.08.5,10.37.28,15.36-.3,6.81-.81,13.44.32,20.27s1.64,13.74,0,20.81c-1,4.37-.71,9.17-.89,13.78-.06,1.61.21,3.41,2.35,3.92,3.57.91,1.12,3,.75,4.45-.68,2.63-3.16,4.74-2.21,7.84a14.69,14.69,0,0,1,1.54,6.7c-.22,7.72-2,15.62,2.19,22.95a4.25,4.25,0,0,1,0,3.42c-.87,2.76-.67,5.6-.72,8.43-.08,4.94.85,10.07-2.87,14.3a2.4,2.4,0,0,0-.44,2.38c2,4.54.54,9.65,2.39,14.2a6.41,6.41,0,0,1,0,5.33,8.16,8.16,0,0,0,.06,6.78c2.26,5.68-2,11.34-.1,17a.59.59,0,0,1-.23.44c-4.62,3.78-4.39,9.31-5.58,14.45-.8,3.45-.84,6.12,1.87,8.59,2.24,2,2.31,3.95,0,6.3-2.91,2.91-4.25,6.43-1.22,10.26,3.07,2.23-.28,2.87-1,4.15-1,2-1,4.09-.84,6.19.14,2.46.22,5.08,3.72,5.23.31,0,.61-.24.84-.19s-.11.13,0,.22c-2.32,1.18-4.48,2.78-7.3,2.88a2.52,2.52,0,0,0-2.45,2.69c0,3.37-1.27,6.57-1.34,9.85-.27,11.94-.53,23.89-.35,35.83a23.53,23.53,0,0,1-1.24,8.83c-1,2.69-1.78,6.28.53,8,3.72,2.77,4.14,6.67,5.12,10.37s1.83,7.32,3.93,10.66c1.56,2.48,1.86,5.18-1.18,7.42-2,1.47-1.93,3.37-.18,5.58,2.64,3.32,4.93,6.89,2.43,11.58-.93,1.73-.3,3.93.41,5.84a10.53,10.53,0,0,1,1,4.35c-.07,1.18-.18,2.45-1.26,3.11-1.58,1-1.88-.75-2.59-1.49-2.4-2.49-4.87-3.51-7.63-.55-4.4,8.28-3.45,12.6,4.1,18.5,1,.62,2.07,1,3.09,1.56,4.66,2.48,4.89,4.5.9,8.34-1.4,1.91-2.73,3.46-5.69,2.9-6.11-1.16-6.71-.47-6.72,5.94a19.81,19.81,0,0,0,.91,6.36c2,6.13,1.69,12.54.45,18.64-1.71,8.42-2.24,16.55.29,24.89,1,3.34,2.37,6.75.72,10.59a8.75,8.75,0,0,0,.41,7.76c3,4.87,3,10.16,2.92,15.53,3.21,3.66,7.21,4.3,8.29,1,1.37-4.18,4.5-4.54,7.64-5.7a9.68,9.68,0,0,1,.22,2.86c0,10.26.29,10.5,10.77,10.51,15.83,0,31.66,0,47.5,0,3,0,6.1-.37,8.24,2.47h6c4.32-3.74,12.68-3.74,17,0h9c2.67-.68,5.33-1.12,8,0h2c8.34-1.07,16.72-.25,25.08-.62,4.07.48,8.07-.58,12.12-.52,5.44,0,10.9,0,16.32-.28,23.07-1.22,46.15-1.08,69.23-1,2.65,0,5.39,0,7.25,2.46h9c1.55-2.17,3.9-2.32,6.25-2.42,3-.12,6,.05,9-.14a7,7,0,0,0,5.63-2.69c2.44-3.26,7.87-4.77,10.73-2.19,5.45,4.9,12.1,4.83,18.38,4.79,20.48-.11,40.92,1.23,61.39,1.25,25.94,0,51.89-1,77.83-.14,2,.07,4-.12,6-.24,13.28-.83,26.53-2.08,39.77-3.35a94.11,94.11,0,0,0,16.9-3.65c1.69-2.69-1.8-3-2.19-4.78-.32-1.29-.72-2.72.67-3.54,1.18-.7,2.17.23,3,1a10.23,10.23,0,0,0,2.92,1.77c4,2.89,8,5.79,13.46,4.86a1.67,1.67,0,0,1,1.39.44c2.76,3.22,6.36,2.9,10,2.55,1-.09,2.21-.33,2.89.38,3.1,3.18,7,2.44,10.78,2.47,7,.07,13.94.05,20.91,0a12.4,12.4,0,0,1,6.23,1.32c2.38,1,4.9.8,7.39.8q33.21,0,66.42,0c2.51,0,5-.07,7.18,1.52h7a10.54,10.54,0,0,1,8-2.29c10.82,1.82,21.58-.4,32.36-.19,11.14.22,22.3.08,33.44,0,2.17,0,4.45.31,6.4-.9a11.71,11.71,0,0,1,1.54.46,8.86,8.86,0,0,0,1.61.23c28.14.18,56.29.05,84.45.05a46.1,46.1,0,0,0,4.95-.54,52.55,52.55,0,0,1,21.59,2.11c2,1,4,.4,6.07.5a1.92,1.92,0,0,0,1.3-1,2.81,2.81,0,0,1,3.12-2c6.76.64,13-2.09,19.55-2.81s14-1.83,19.7.42c7,2.74,13.59,1.76,20.37,2.29,6.43.5,12.95-.76,19.33.85,6.64.92,13.2-.69,19.8-.75,13.1-.11,26.21-.06,39.31,0q8.4,0,16.8,0c20.75,0,41.52.58,62.16-2.14,5.42-.72,11-.49,16.26-2,2-.58,4.51-.79,3.55-4.11-1.13-3.92,1-6.66,4.31-7.56,3.87-1.05,4.36-3.4,4.45-6.63.12-4.47-.53-9,.48-13.42.82-2.79-.2-6,1.76-8.51,1.47-6.49.38-13.08.7-19.61.1-2-.17-4,.48-5.86.8-2.29,1.52-.46,2.23.16,1.16,9.18.21,18.41.55,27.62.08,2.25-.5,4.67,1.36,6.58,2.54-.12,2-2.19,2.28-3.67s-.27-3.46.51-4.92c2.23-4.13,2.5-8.13.12-12.28a3.54,3.54,0,0,1,0-3.83c1.93-2.52,1.43-5.35,1.43-8.13,0-4.65-.11-9.31,0-14,.14-4,2-5,6.18-3.55,4.41,3.11,4.53,7.64,3.84,12.3-.31,2.11-.83,4.16-.07,6.25,1.33,2.07,1.36,4.39,1.34,6.73a15.42,15.42,0,0,0,.39,5c.37,1.16,1,2.26,2.37,2.18a1.91,1.91,0,0,0,1.59-2.19c-.22-4.72,1.37-8.88,3.24-13.13,2.59-5.88,2.55-12.59,5.3-18.48a6.74,6.74,0,0,0-.32-5.79c-1.53-3.46-1.42-6.76,1.29-9.68a7.67,7.67,0,0,0,.61-1.53c-1.88-14.77.21-29.73-2.54-44.54-1.16-6.26-3-12.61-2.56-19.17a3.63,3.63,0,0,0-1.19-2.69c-2.33-2.18-2-4.61-1.16-7.34a14.16,14.16,0,0,0-.43-10.24c-.53-1-1.8-1.84-1.7-3,.64-7-4.77-9.63-9.27-12.93-1.28-3.81-3.24-7.46-2.88-11.68-.57-2-2.42-3.68-1-6,0-2.35-3.79-6.32,2.54-5.93a2.9,2.9,0,0,0,1.93-1.06c1.21-1.8,3.32-4.53,1.81-5.79-5.11-4.28-4.16-10.18-5.5-15.54-.46-1.83-1.05-3.62-1.46-5.54-1.34-6.29,2.18-11.82,2.16-18.08,0-9,0-17.8-2.31-26.53-.66-2.46-.06-6.41-3.65-6-3.42.4-2.2,4.26-2.26,6.7-.19,8.18.68,16.46-3,24.26-.25-16.1-.35-32.2-.19-48.31-.1-2.64-3.76-4.74-1.2-7.78a9.4,9.4,0,0,0,.85-2.18c.57-5.31.21-10.63.23-16,0-2.09-.54-4-2.44-5.18-3.05-4-1.4-8.51-1.13-12.83,0-.57,1.14-.45,1.76-.61a2.7,2.7,0,0,0,1.1-.94,305.4,305.4,0,0,0,.62-30.63,7.43,7.43,0,0,0-2.33-4.82c-2-2.11-1.35-3.85.88-5.29,2-5.17,1.81-10.52,1.22-15.87-.15-1.36-1-2.46-2.76-2-.85.57-.89,1.62-1.4,2.34-.8,1.13-.57-.28-.87-.46-.11-.4-.23-.81-.37-1.22-.37-1.25-.53-2.46.65-3.41,1.43-1,2.61-2.2,1.68-4.05-1.06-2.11.58-3.32,1.31-4.85a1.91,1.91,0,0,0-.29-1.33c-3.3-3-4.73-10.29-2-13.35,3.56-4,2.81-8.14,1.48-12.52-4.12-1.82-2.88-4.89-1.87-7.91a11.18,11.18,0,0,1,.52-4.92c-.92-10.31,2.31-20.31,2.28-30.55,0-3.47.32-7-1.55-10.21-.67-1.16,0-2.55.17-3.87.88-7-1-14.22,1.11-21.21.22-.72-.51-1.54-.79-2.32-1.41-3.79-1.82-7.06,2.22-10,4.29-3.11,4.59-8.2,1.59-12.85-.91-1.42-1.16-3.1-1.8-4.63-.92-2.2-1.5-4,2.13-4.38a3.84,3.84,0,0,0,3-5c-1.48-3.64-3-6.86-.49-10.69.5-.75-1.28-1.7-2.05-2.54-2.26-2.44-2.48-5.55,0-7.43,3.34-2.56,3.55-5.69,3.53-9.25,0-6.15-.14-12.3.05-18.45.08-2.5-.78-6.71,4.36-4,1,.52,1.5-.14,2-.9,1.9-3.12.3-10.1-2.85-12.39-.35-.33-.68-.69-1-1-.91-1.69-.36-3.55-.6-5.32-.34-2.52,1.11-5.24-.87-7.56A4.32,4.32,0,0,0,1155,196c-2.5.15-2.78-1.44-2.34-3.25.91-3.71-.32-6.95-1.13-10.52-1-4.43-2-9.38-.45-14.11a36,36,0,0,0,1.24-13.22,5.64,5.64,0,0,0-3-4.84c-2.89-4.19.76-6.75,2.45-9.79,1-3.18-2.17-6-.74-9.23,1.55-3.46,1.4-7.06,1.47-10.75.1-5-.52-10,.24-14.93a5.77,5.77,0,0,0,.06-1.53,5.65,5.65,0,0,0-1.21-2.67,3.9,3.9,0,0,1-1.17-2.65c.15-1.7-1-4.16,1.12-4.83s4.1.5,4.5,3.23c.21,1.45,1.05,2.43,2.77,1.95,2-1.06,2.94,1.73,4.75,1.41a6.69,6.69,0,0,0,4.33-4c.74-3.29,1.2-6.77-.15-9.81-2.33-5.29-1.61-10.29.18-15.39a8.22,8.22,0,0,0,.35-1.61c.21-8.44,1.07-17-.31-25.3s-1.47-17-3.77-25.24c-.59-2.08-.72-4.26-1.39-6.3a3.91,3.91,0,0,0-3.65-2.92c-2-.07-2.4,1.53-2.53,3.05s-.51,2.94-2.35,3.28a13.26,13.26,0,0,0-5.72,2.89,2.59,2.59,0,0,0-.87,1.93,3,3,0,0,0,2.27,2.49c3.25-.11,2.59,1.61,1.6,3.44-1.32,2.44-3.42,4.49-3.69,7.45-.51,2.81.91,6.22-2.94,8.87-1.08-6.66,1.08-12,2.9-17.42a2.68,2.68,0,0,0,.49-1.27c-.36-1.64-2.83-1.48-2.9-3.36-.06-.69,0-1.4-.06-2.1,0-1.56,0-3.12.05-4.68-.73-2.85,1.88-6.52-2.11-8.57-10.1-.71-20.21-.25-30.32-.29-18.21-.09-36.43,0-54.65-.28a4.16,4.16,0,0,1-1.39-.91c-1.11-3.65-3-5.25-7-3.29a16.15,16.15,0,0,1-8.21,1.41c-7.7-.48-15.4-1.32-23.13-.69a11.42,11.42,0,0,0-2.93,1.07c-2.55,1.21-5.14.87-7.73.2a7.48,7.48,0,0,0-4.18.1c-1,.49-1.6,2-3,1a7.45,7.45,0,0,0-1.26-.33c-2.08-.15-4.06-1-6.19-.91a7.83,7.83,0,0,0-1.37.25,33.21,33.21,0,0,1-12.35,1c-2.85-.07-5.69.43-8.54.12-5.94,2.32-11.77,1.45-17.53-.66A3.54,3.54,0,0,0,952,4c-1.63,1.49-3.68,1.4-5.67,1.35-7-.15-14-.61-20.93-.35-13.82.52-27.63,0-41.44.42-3,.1-5.93-1.22-8.86-.66-6,1.13-12,.4-17.93.56-1.76,0-3.25-.22-3.42-2.59-.2-2.77-2.08-3.16-4.31-2.33a21.92,21.92,0,0,1-3.8,1.19,9.64,9.64,0,0,1-7.08.16c-6.46.23-12.91-.49-19.37-.32-3.37.09-6.25,2.37-9.73,1.87-6.83-1-13.76.85-20.59-.82a9.31,9.31,0,0,0-5.43.39c-7,2.7-14.38,1.86-21.51,2.25-14.88.82-29.83,0-44.75.25-4.2.07-9,1.24-10.17-4.85-1.91.81-2.11,2.22-2.63,3.42a5.1,5.1,0,0,1-1,1.07c-6,.46-12,1-18-.29-1.48-1.3-.89-4.24-3.62-4.56a45.65,45.65,0,0,1-15,1.7c-6.8-.29-13.79-1.57-20.64.22a10.57,10.57,0,0,0-1.34.66c-2,1-4.09,1.7-6.38,1-2-.3-4-1.3-6.07-.65a4.28,4.28,0,0,1-4.42.44c-5.42-2.15-10.81,0-16.22.16-2.84.48-5.59,2-8.57.77a7,7,0,0,0-6.67,0c-2.89,1.55-5.85.9-8.81.27a8.6,8.6,0,0,0-3.28.13A220.2,220.2,0,0,1,555.9,5a7.15,7.15,0,0,0-2.4-.14c-3,.34-6.12,1.71-8.79-.93a2.21,2.21,0,0,0-1.37-.59,3,3,0,0,0-1.44.63c-1.31,1.28-3,1.35-4.65,1.36q-32.72,0-65.44,0c-2.12,0-3.8-.33-4.7-2.74-1.13-3-2.2-1.9-3.44.21-1.76,3-17.57,3.82-19.83,1.16a4.19,4.19,0,0,1-.62-1.35c-.87-2.45-2.54-2.78-4.77-1.9-3.8,1.51-7.7,1.05-11.7,1.1-8.19.1-16.59-2.22-24.65,1.36a7.74,7.74,0,0,1-4.9.27C391.72,2.16,386,2.82,380.58,3c-11.65.48-23.25,1.79-35,2.07-15.45.36-30.89-.51-46.32.31-3,.16-5.75-2.15-8.2-1.39-5.25,1.62-10.51.84-15.75,1.29-2.94.25-4.47,1.83-4.7,4.81-.11,1.39.37,3.33-1.57,3.77-1.75.4-2.27-1.69-3.54-2.39a4,4,0,0,0-2.14-1.08c-2.18.63-2.93,2.6-4,4.27-.45,1.05-.35,2.3-.91,3.25-1.09,1.85-2.19,1.63-3-.3a14.64,14.64,0,0,0-.94-4.2c-1.62-1.77-.73-4.63-2.7-6.24-2-1.08-4.19-.81-6.34-.48a17.89,17.89,0,0,1-9.2.26,7.7,7.7,0,0,0-1.59-.15,52,52,0,0,1-12.19-.79c-4.32-.89-8.94.45-13-1.89-2.21-1-4.56-.8-6.88-.81-11.14,0-22.28,0-33.43,0-12.31,0-24.61-.17-36.91.07-15.77.3-31.58-1.2-47.29,1C74.64,5.85,64.14,5.49,53.81,7.29c-3.72.65-6.12,1.88-6,6a8.23,8.23,0,0,0-1,1.2C46.46,18,44.84,20,41.06,19.71a2.59,2.59,0,0,0-2.5,1.36,3.39,3.39,0,0,0-.14,1.48c1.66,10.79-2.81,21-1.93,32.37-2.74-1.81-2.05-3.64-2.08-5.16-.1-5.82-.05-11.65,0-17.47,0-1.32.14-2.82-1.77-3-1.68-.15-2.32,1-2.68,2.4a23.38,23.38,0,0,0-.34,5c-.08,1.64.23,3.47-1.35,4.59-2.53,1.81-2.63,4.43-2.64,7.14,0,11.48,0,23,0,34.44,0,1.68.55,3.59-1.34,5.41-1.59-3.68-.75-7.14-.85-10.48-.15-5,0-5-3.92-9.3,1.92-3.07-2.5-4.45-1.94-7,1.07-4.82-2.12-7.19-6.08-10.11,1.21,7.16-4,12.24-4.81,18.73a2.23,2.23,0,0,1,0,.24,1.8,1.8,0,0,1,0,.26c.41,5.23-2.67,9.89-2.49,15.1a1.4,1.4,0,0,1-1.59,1.51C2.44,82.16,2.71,77,2.5,71.9c-.19-4.59.87-9.28-1-13.75A1.1,1.1,0,0,0,0,57.75v69"/></g></g></svg>
