<svg xmlns="http://www.w3.org/2000/svg" viewBox="0 0 18.06 13.14"><defs><style>.a{fill:#57e073;}</style></defs><title>Asset 1</title><path class="a" d="M18,8.16,16.81,4.51A9,9,0,0,0,18,0H0A8.94,8.94,0,0,0,1.26,4.51L.07,8.16A1.43,1.43,0,0,0,1,10l.11,0a1.43,1.43,0,0,0,1.8-.92l.64-2a8.87,8.87,0,0,0,1.64,1l-.5,3.36a1.43,1.43,0,0,0,1.2,1.62l.12,0a1.43,1.43,0,0,0,1.62-1.2l.44-3A9,9,0,0,0,9,9a9,9,0,0,0,1-.05l.44,3a1.43,1.43,0,0,0,1.62,1.2l.12,0a1.43,1.43,0,0,0,1.2-1.62l-.5-3.36a8.88,8.88,0,0,0,1.64-1l.64,2A1.43,1.43,0,0,0,17,10l.11,0A1.43,1.43,0,0,0,18,8.16"/></svg>