<svg preserveAspectRatio="none" xmlns="http://www.w3.org/2000/svg" viewBox="0 0 630.52 145.64"><defs><style>.cls-1{fill:#56e172;}</style></defs><title>Asset 1</title><g id="Layer_2" data-name="Layer 2"><g id="Layer_1-2" data-name="Layer 1"><path class="cls-1" d="M296.31.92c16.85.07,33.48,2.69,50.24,3.65,6.17.35,12.62,2.15,18.9,3.44a36.84,36.84,0,0,0,16.29.19c1.48-.35,3.14-.9,4.36.06,3.1,2.45,6.61,2.08,10,1.73,18.79-1.89,37.62-.48,56.43-.91,3-.07,6,.13,8.43-2.23,1.35-1.31,3.06-.82,4.74-.52,5.78,1,11.52,1.58,17.07-1.27,2.26-1.16,4.87-1,7.37-1,17,0,34,.07,51,0C548.92,4,556.25,6.52,563.7,8c3.19.63,6.67,3.57,10.12,5.3,8.48,4.26,17.19,7.13,26.85,5.12,5-1,6.6,0,7.79,5a9.49,9.49,0,0,1,.35,2c.19,7.7.22,7.55,9.1,7.83,4.26.13,9.11-1.85,12.62,2.46v23A4.88,4.88,0,0,1,626.86,60c-6.9-.62-13.47,1.64-20.23,2.24-7.51.67-8.92,2.09-8.58,9.63.47,10.45-1.32,20.85-.28,31.31.36,3.6-1.22,6.81-3.62,9.53-1,1.5-1,1.47.61,1.91a3.7,3.7,0,0,1,2.16,1.82c.62,2.66.82,5.32,2.36,7.84a5.43,5.43,0,0,1-1,6.51c-1.5,1.48-3.36.71-5.13-.05-2.78-1.21-5.25-1.51-7.36,1.63-1.57,2.33-4.53,1.71-7,1.71q-28,.05-56,0c-1.64,0-3-.66-4.17,1.94-1.41,3.17-5.26,2.38-7.47.83-4.38-3.06-9.1-2.76-13.91-2.76-5.16,0-10.33,0-15.49,0-3.27,0-6.63-.55-8.86,3.06-1.18,1.9-3.08.8-4.25-.45-1.79-1.93-4-1.75-6.31-2.06-12.72-1.72-25.27,1.67-37.81,1.18-14.16-.55-28.25.25-42.34.72-6.68.23-13.47.63-20.18,1.33a4.3,4.3,0,0,1-1.49.11c-7.8-2.13-15.84.38-23.66-1.29a42.69,42.69,0,0,0-10-.58c-1.77,0-3.29.48-4,2.35-1.72,4.49-5.52,5.49-9.71,5.55a27.52,27.52,0,0,0-9.7,1.62h-58c-1.53-3.13-4.34-1.28-6.59-1.68-.52,0-1,0-1.55,0-9.16-1.77-18.5-2.1-27.66-3.84-1.14-.22-2.37-.21-3.32-.94-.7-.54-.68-1.53-2.24-1.44-7.27.42-14.62,1.26-21.73-1.38a11.3,11.3,0,0,0-3.47-.27c-24.08-1-48.19-.44-72.24.35-11.55.38-23.17,1.46-34.77,1.93q-14.42.59-28.86.53c-.84,0-2.11,0-2.37-.49-1.91-4-5.85-4.26-9.28-5.7-2.09-.88-2.22-3.55-2.3-5.75-.17-4.66-.26-9.33,0-14,.22-4.05-1.44-6.35-5.27-7.15-7.07-1.47-13-5.86-20.07-7.45A5.39,5.39,0,0,1,.3,95.74a12.88,12.88,0,0,1-.06-5.21c1.92-4.07,6.2-5.32,9.43-7.8,2.47-1.9,5.56-3.3.63-6.07-1.82-1-2.08-3.37-1.79-5.43.62-4.47.42-9,.56-13.46.18-5.82,2-8.12,7.49-9.63,1.6-.44,3.21-.89,4.82-1.32,7.59-2,7.65-2,7.64-9.66a139.88,139.88,0,0,0-.79-18.93c-1-7.39,2.34-11,9.73-11.06,6.3,0,12.61-.53,18.81,1.52,3,1,6.28.47,9.44.34,1,0,2.29-.06,2.77-.9C73.36.27,81.54,1.75,88.1,1.53c12.39-.41,24.76-1.83,34.24-1.47"/></g></g></svg>
