<svg xmlns="http://www.w3.org/2000/svg" viewBox="0 0 212.56 214.75"><defs><style>.a{fill:#c22020;}</style></defs><title>Asset 1</title><path class="a" d="M102.75.52a3.71,3.71,0,0,0,3,0l1,0c9.65,2.38,19.59,3.13,29.4,3.71,9.57.57,17.19,4.7,25,9.24-.68,3.23-2.77,3-4.78,1.6A26.77,26.77,0,0,0,149,12c-3,.35-5.1-4.64-8.7-1.62,7.18,6.54,7.33,6.61,13.61,6.74,3.45.48,6.08,2.59,8.66,4.62,10.6,8.33,20.94,16.93,29.33,27.61a12.26,12.26,0,0,0,3.76,5.11c1.93,5.42,6.64,9.32,8.11,15,1.2,4.23,2,8.62,3.69,12.66,1.73,4.21.39,9.11,3.27,13a2.19,2.19,0,0,1-.08,1.92c-3.32,5.7-1.72,12.43-3.87,18.36-.15.41.11,1,.18,1.48,2.34.21,1.44-2.94,3.56-3.1,1.73,1.35.55,4,2.06,5.59a23.49,23.49,0,0,1-1.35,7.75c-5.52,15.82-12.45,30.7-25.39,42.11-5,4.42-10.85,7.91-15.15,13.15-1.92-.09-3.66.35-3.78,2.57-.06,1,1.28.41,2,.57-1.42,3-4.05,4.31-7.12,5l0-1.65c-1.38.28-1.34,1.75-2.13,2.53-3.93,4.12-10,4.94-14.06,8.45-9.4,8.07-20.58,11.61-32.28,13.56a94.54,94.54,0,0,1-55.84-7.45c-6.2-2.83-12.41-5.68-17.7-10.07-2.1-1.74-4.71-3.18-5-6.38,1.81-2.33,3.54-3.31,6.27-.85,1.66,1.5,3.25,3.37,5.62,4,21,15.11,60.56,22.34,73,13.07-5.81-.35-11.35-1.08-16.76,1-3.2-2-6.67-1.4-10.11-1.11L88,205.22l-.31-1.71c1.84,0,3.9,1.85,5.57-.59a5,5,0,0,0-4.53-1.31c-1.89-.38-3.76-1.05-5.72-.43l-.08-.05c-.62-1-1.08-.8-1.44.18a4.57,4.57,0,0,0-.66.07c-1.26-4.63,2.12-3.49,4-2.74,4.55,1.85,9.05,1.64,13.71.83-7.89-1.09-15.34-3.84-23.2-6.07,1.41,5.35,1.1,5.71-3.91,5-1.27-.18-2.51-.53-3.76-.8a31.4,31.4,0,0,1-19.76-6.29c-2.77-2.3-4.34-7.81-8-6.67-3,.93-6-2.72-8.3,1,.63-4,3.18-3.57,7-2.13-2.57-3.34-4.29-5.54-6.61-7.24l-1.07-.43.21,1.15c.38,1.07,1.71,1.83,1.28,3.34-2.15-.87-2.56-3.51-4.76-3.91-1.47,1.18-.43,2.83-1,4.14l-2.73-3.75c0-.66,0-1.29-.93-1.33-.54-2.27-3.37-1.22-4.28-3,.9-.25,2-.93,2.66-.65,1.12.47,2.14,2.17,3.27.57,1-1.4-.69-2.35-1.51-3.28-3.21-3.66-4.55-8.26-6.43-12.58-.69-1.59-.67-3.65-3-3.91-1.52,1.13,1.29,2.92-1,4a12,12,0,0,1-3.21-5.81c-.33-1.31-.8-1.82-1.78-.45a1.2,1.2,0,0,0-.43-.87c-.61-2-1.13-4-1.59-6.09-.72-3.21.77-7.5-3.6-9.34L0,114.28l.1-.39c1.76-1.12.88-3,1.25-4.47-.22-3.82.86-7.31,2.06-10.92.93-2.78,2.16-6,.43-9.12a3.12,3.12,0,0,0-.06-3.88c1.26-.7,2.12-1.53,1-3l.39-1.63c2.94-1,2.72-3.41,2.63-5.78,5.19-9.51,8.59-19.92,14.77-28.92a30.5,30.5,0,0,0,7.95-7.8,1.16,1.16,0,0,0,.56-.52,4.16,4.16,0,0,0,2.79-2.27c5.91-3.67,12-7.1,16.6-14-3.09.44-5.07,3.2-6.69,0-1.88-1.59-1.72-.17-1.64,1.12-6.53,4.07-11.71,9.77-17.56,14.65-3,2.85-6.44,5.4-8.27,9.33l-3.64,4.71c-2.42-.3-.67-1.65-.43-2.32.54-1.52,2.67-2.49,1.5-4.59l.79,0-.08-.47-.66.57a1.87,1.87,0,0,0-2.17,1.44c-.31.92-1.28,1.88-2.21,1.21-.57-.4-.47-1.76-.66-2.68,2.43-1.46,2.18-5,4.92-6.25,4.45-1.82,6.6-6.15,10-9.16.44-.51,1.66-.92.73-1.72-.67-.58-1.3.34-1.8.89L20,28.48C41.06,7.86,66.3-1.66,95.79.24,98.11.38,100.43.43,102.75.52Zm-45,18,1.84-.28c2.48.55,3.67-1.68,5.48-2.56.88-.43,1.89-.83,1.61-2.12a2.8,2.8,0,0,0-2.4-2.16c-3.93-1-6,1.19-5.66,6-.53.25-1.55.18-.8,1.25-.64-1.09-1.35-.28-2-.08-1.81-1.76-3.17-.71-4.46.72-.56.62-1.07,1.44-.17,2,1.5,1,2.67-.54,4-.81.24,0,.41-.43.62-.65C56.53,19.52,57.56,19.64,57.72,18.47Zm148.61,86c1.57-7,0-17.26-3.17-19.75.38,3.32,2.24,7.74.81,9.54-3.36,4.23-1.53,8.24-1.54,12.37-1.19,5.82-.58,11.82-2,17.69,2.45-2,3.17-4.62,3.25-7.38A34.46,34.46,0,0,1,206.33,104.51ZM13.44,149.32a5.1,5.1,0,0,0-1.14-.46c-.1,0-.45.61-.4.66a2.88,2.88,0,0,0,1,.62C12.94,150.16,13.18,149.7,13.44,149.32ZM51.86,24.48c-.26-.31-.31-1.07-1-.58a4,4,0,0,0-1.2,1.35.66.66,0,0,0,1,.56C51.27,25.54,51.84,25.28,51.86,24.48ZM29,174.1l.29.33.3-.3-.46-.3Z"/></svg>