<?xml version="1.0" encoding="utf-8"?>
<!-- Generator: Adobe Illustrator 20.0.0, SVG Export Plug-In . SVG Version: 6.00 Build 0)  -->
<svg version="1.1" id="Layer_1" xmlns="http://www.w3.org/2000/svg" xmlns:xlink="http://www.w3.org/1999/xlink" x="0px" y="0px"
	 viewBox="0 0 639 639" style="enable-background:new 0 0 639 639;" xml:space="preserve">
<style type="text/css">
	.st0{opacity:0.11;}
	.st1{opacity:1.000000e-02;}
	.st2{fill:#1D1E1C;}
	.st3{opacity:4.000000e-02;}
	.st4{opacity:8.000000e-02;}
	.st5{opacity:0.14;}
	.st6{opacity:0.18;}
	.st7{opacity:0.21;}
	.st8{opacity:0.24;}
	.st9{opacity:0.27;}
	.st10{opacity:0.31;}
	.st11{opacity:0.34;}
	.st12{opacity:0.37;}
	.st13{opacity:0.41;}
	.st14{opacity:0.44;}
	.st15{opacity:0.47;}
	.st16{opacity:0.51;}
	.st17{opacity:0.54;}
	.st18{opacity:0.57;}
	.st19{opacity:0.6;}
	.st20{opacity:0.64;}
	.st21{opacity:0.67;}
	.st22{opacity:0.7;}
	.st23{opacity:0.74;}
	.st24{opacity:0.77;}
	.st25{opacity:0.8;}
	.st26{opacity:0.83;}
	.st27{opacity:0.87;}
	.st28{opacity:0.9;}
	.st29{opacity:0.93;}
	.st30{opacity:0.97;}
	.st31{fill:#F5F5F5;}
	.st32{fill:#56E172;}
</style>
<title>Asset 1</title>
<g id="Layer_2">
	<g id="Layer_1-2">
		<g class="st0">
			<g class="st1">
				<path class="st2" d="M519.8,189.9v181.2c-0.1,6-5,10.9-11,11h-8.5c-6-0.1-10.9-5-11-11V189.9c0.1-6,5-10.9,11-11h8.5
					C514.8,179,519.7,183.8,519.8,189.9 M423.8,356c-13.5,0-21.6-10.3-24-13.9v-49.4c6.5-2.8,13.6-4.3,20.7-4.4
					c18.8,0,30,12.5,30,33.3C450.5,338.2,441.2,356,423.8,356 M423,258.2c-8,0-15.9,1.3-23.4,3.9v-72.3c-0.1-6-5-10.9-11-11H380
					c-6,0.1-10.9,5-11,11v38.6c0.9,0.8,1.8,1.6,2.6,2.4c16.1,16.2,16.1,42.4-0.1,58.5c-0.8,0.8-1.7,1.6-2.5,2.3v79.4
					c0.1,6,5,10.9,11,11h5.7c4.4-0.1,8.3-2.9,9.8-7.1c8.8,6.3,19.4,9.7,30.2,9.8c30.7,0,55.7-28.5,55.7-63.6
					C481.4,284.1,457.4,258.2,423,258.2 M342.2,301.5c5.2,0,10.4-1,15.2-2.9c1,1.7,1.6,3.6,1.6,5.6v66.9c-0.1,6-5,10.9-11,11h-8.5
					c-6.1-0.1-11-4.9-11-11v-66.9c0-1.6,0.4-3.2,1.1-4.7C333.6,300.8,337.9,301.5,342.2,301.5 M318.1,294.5
					c1.3,6.2,1.9,12.5,1.8,18.8v57.7c-0.1,6-5,10.9-11,11h-8.8c-6-0.1-10.9-5-11-11v-57.8c0-25.1-14.1-25.1-18.8-25.1
					c-14.2,0-25.4,8.7-29.5,12.3v70.6c-0.1,6-5,10.9-11,11h-8.5c-6-0.1-10.9-5-11-11V272c0.1-6,5-10.9,11-11h5.2
					c4.8-0.2,9,3,10.1,7.7l0.1,0.2c7.3-4.7,19.7-10.6,35.1-10.6c9.6,0,20,1.8,28.6,7.6c1.6,11.7,8.1,22.1,17.8,28.7 M147.1,286.9
					c13.1,0,21.5,9.7,21.5,24.8s-8.4,24.8-21.5,24.8c-13.5,0-22.9-10.2-22.9-24.8S133.6,286.9,147.1,286.9 M147.3,437.6
					c-15.4,0-27-7.3-27-16.9c0-10.1,10.6-14.3,13.4-15.2h29.5c13.5,0,15,8.4,15,12C178.2,429.5,162.3,437.6,147.3,437.6 M162.1,376
					h-39.6c-6.8,0-9.2-3.9-9.2-7.6c0-4.5,3.6-7.8,6.1-9.6c4.5,2.4,13.1,5.9,26.1,5.9c29.6,0,51.8-22.5,51.8-52.4
					c0-12.4-3.6-21.2-7.3-26.9l4.8-1c5.2-0.7,8-5.9,8-10.4v-4.6c0-6-4.8-11-10.8-11c-0.1,0-0.1,0-0.2,0h-46.2
					c-29.7,0-52.1,23.2-52.1,54c0.1,9.1,2.4,17.9,6.8,25.9c-6.3,5.2-16.3,16.2-16.3,33c0,13.5,6.9,22.5,15,27.6
					c-7,6.3-11,15.3-10.9,24.7c0,21,18.3,43.6,58.4,43.6c34.5,0,62.5-22.5,62.5-50.2c0-25.2-18-40.9-46.9-40.9"/>
				<path class="st2" d="M342.2,239.3c-11.5,0.1-20.8,9.5-20.8,21c0.1,11.5,9.5,20.8,21,20.8c11.5-0.1,20.7-9.3,20.8-20.8
					c0-11.6-9.3-21-20.8-21C342.3,239.3,342.2,239.3,342.2,239.3"/>
			</g>
			<g class="st3">
				<path class="st2" d="M520.3,189.6v181.2c-0.1,6-5,10.9-11,11h-8.5c-6-0.1-10.9-5-11-11V189.6c0.1-6,5-10.9,11-11h8.5
					C515.3,178.7,520.2,183.6,520.3,189.6 M424.3,355.7c-13.5,0-21.6-10.3-24-13.9v-49.4c6.5-2.8,13.5-4.3,20.7-4.4
					c18.8,0,30,12.5,30,33.3C451,338,441.6,355.7,424.3,355.7 M423.5,258c-8,0-15.9,1.3-23.4,3.9v-72.3c-0.1-6-5-10.9-11-11h-8.5
					c-6,0.1-10.9,5-11,11v38.7c0.9,0.8,1.8,1.6,2.6,2.4c16.1,16.2,16.1,42.4-0.1,58.5c-0.8,0.8-1.7,1.6-2.5,2.3v79.4
					c0.1,6,5,10.9,11,11h5.7c4.4-0.1,8.3-2.9,9.8-7.1c8.8,6.3,19.4,9.7,30.2,9.8c30.7,0,55.7-28.5,55.7-63.6
					C481.9,283.9,457.9,257.9,423.5,258 M342.7,301.3c5.2,0,10.4-1,15.2-2.9c1,1.7,1.6,3.6,1.6,5.6v66.9c-0.1,6-5,10.9-11,11H340
					c-6.1-0.1-11-4.9-11-11V304c0-1.6,0.4-3.2,1.1-4.7C334.2,300.6,338.4,301.3,342.7,301.3 M318.6,294.3c1.3,6.2,1.9,12.5,1.8,18.8
					v57.8c-0.1,6-5,10.9-11,11h-8.8c-6-0.1-10.9-5-11-11v-57.8c-0.1-25.1-14.3-25.1-18.9-25.1c-14.2,0-25.4,8.7-29.5,12.3v70.6
					c-0.1,6-5,10.9-11,11h-8.5c-6-0.1-10.9-5-11-11v-99.1c0.1-6,5-10.9,11-11h5.2c4.8-0.2,9,3,10.1,7.7l0.1,0.2
					c7.2-4.7,19.6-10.7,35-10.7c9.6,0,20,1.8,28.6,7.6C302.3,277.3,308.8,287.7,318.6,294.3 M147.4,286.7c13.1,0,21.5,9.7,21.5,24.8
					s-8.4,24.8-21.5,24.8c-13.5,0-22.9-10.2-22.9-24.8S133.9,286.7,147.4,286.7 M147.7,437.3c-15.4,0-27-7.3-27-16.9
					c0-10.1,10.6-14.3,13.4-15.2h29.5c13.5,0,15,8.4,15,12C178.6,429.2,162.6,437.3,147.7,437.3 M162.5,375.7H123
					c-6.8,0-9.2-3.9-9.2-7.6c0-4.5,3.6-7.8,6.1-9.6c4.5,2.4,13.1,5.8,26.1,5.8c29.6,0,51.8-22.5,51.8-52.4c0-12.4-3.6-21.2-7.3-26.9
					l4.8-1c5.2-0.7,8-5.9,8-10.4V269c0-6-4.8-11-10.8-11c-0.1,0-0.1,0-0.2,0H146c-29.7,0-52.1,23.2-52.1,54
					c0.1,9.1,2.4,17.9,6.8,25.9c-6.3,5.2-16.3,16.2-16.3,33c0,13.5,6.9,22.5,15,27.6c-7,6.3-11,15.3-10.9,24.7
					c0,21,18.3,43.6,58.4,43.6c34.5,0,62.5-22.5,62.5-50.2C209.3,391.4,191.3,375.7,162.5,375.7"/>
				<path class="st2" d="M342.7,239.1c-11.5,0.1-20.8,9.5-20.8,21c0.1,11.5,9.5,20.8,21,20.8c11.5-0.1,20.7-9.3,20.8-20.8
					c0-11.6-9.3-21-20.8-21C342.8,239.1,342.8,239.1,342.7,239.1"/>
			</g>
			<g class="st4">
				<path class="st2" d="M520.8,189.4v181.2c-0.1,6-5,10.9-11,11h-8.5c-6-0.1-10.9-5-11-11V189.4c0.1-6,5-10.9,11-11h8.5
					C515.8,178.5,520.7,183.4,520.8,189.4 M424.8,355.5c-13.5,0-21.6-10.3-24-13.9v-49.4c6.5-2.8,13.6-4.3,20.7-4.4
					c18.8,0,30,12.5,30,33.3C451.6,337.8,442.2,355.5,424.8,355.5 M424,257.8c-8,0-15.9,1.3-23.4,3.9v-72.3c-0.1-6-5-10.9-11-11H381
					c-6,0.1-10.9,5-11,11v38.7c0.9,0.8,1.8,1.6,2.6,2.4c16.1,16.2,16.1,42.4-0.1,58.5c-0.8,0.8-1.7,1.6-2.5,2.3v79.4
					c0.1,6,5,10.9,11,11h5.7c4.4-0.1,8.3-2.9,9.8-7.1c8.8,6.3,19.4,9.7,30.2,9.8c30.7,0,55.7-28.5,55.7-63.6
					C482.4,283.6,458.4,257.7,424,257.8 M343.2,301c5.2,0,10.4-1,15.2-2.9c1,1.7,1.6,3.6,1.6,5.6v66.9c-0.1,6-5,10.9-11,11h-8.5
					c-6.1-0.1-11-4.9-11-11v-66.8c0-1.6,0.4-3.2,1.1-4.7C334.6,300.4,338.9,301.1,343.2,301 M319.1,294.1c1.3,6.2,1.9,12.5,1.8,18.8
					v57.8c-0.1,6-5,10.9-11,11h-8.8c-6-0.1-10.9-5-11-11v-57.8c0-25.1-14.1-25.1-18.8-25.1c-14.2,0-25.4,8.7-29.5,12.3v70.6
					c-0.1,6-5,10.9-11,11h-8.5c-6-0.1-10.9-5-11-11v-99.1c0.1-6,5-10.9,11-11h5.2c4.8-0.2,9,3,10.1,7.7l0.1,0.2
					c7.3-4.7,19.7-10.6,35.1-10.6c9.6,0,20,1.8,28.6,7.6C302.9,277,309.4,287.4,319.1,294.1 M147.9,286.4c13.1,0,21.5,9.7,21.5,24.8
					S161,336,147.9,336c-13.5,0-22.9-10.2-22.9-24.8S134.4,286.4,147.9,286.4 M148.2,437c-15.4,0-27-7.3-27-16.9
					c0-10.1,10.6-14.3,13.4-15.2h29.5c13.5,0,15,8.4,15,12C179.1,428.9,163.1,437,148.2,437 M163,375.5h-39.5
					c-6.8,0-9.2-3.9-9.2-7.6c0-4.5,3.6-7.8,6.1-9.6c4.5,2.4,13.1,5.9,26.1,5.9c29.6,0,51.8-22.5,51.8-52.4c0-12.4-3.6-21.2-7.3-26.9
					l4.8-1c5.2-0.7,8-5.9,8-10.4v-4.6c0-6-4.8-11-10.8-11c-0.1,0-0.1,0-0.2,0h-46.2c-29.7,0-52.1,23.2-52.1,54
					c0.1,9.1,2.4,17.9,6.8,25.9c-6.3,5.2-16.3,16.2-16.3,33c0,13.5,6.9,22.5,15,27.6c-7,6.3-11,15.3-10.9,24.7
					c0,21,18.3,43.6,58.4,43.6c34.5,0,62.5-22.5,62.5-50.2C209.8,391.2,191.8,375.5,163,375.5"/>
				<path class="st2" d="M343.2,238.8c-11.5,0.1-20.8,9.5-20.8,21c0.1,11.5,9.5,20.8,21,20.8c11.5-0.1,20.7-9.3,20.8-20.8
					c0-11.6-9.3-21-20.8-21C343.3,238.8,343.3,238.8,343.2,238.8"/>
			</g>
			<g class="st0">
				<path class="st2" d="M521.4,189.2v181.2c-0.1,6-5,10.9-11,11h-8.5c-6-0.1-10.9-5-11-11V189.2c0.1-6,5-10.9,11-11h8.5
					C516.4,178.3,521.3,183.1,521.4,189.2 M425.4,355.3c-13.5,0-21.6-10.3-24-13.9V292c6.5-2.8,13.6-4.3,20.7-4.4
					c18.8,0,30,12.5,30,33.3C452.1,337.6,442.7,355.3,425.4,355.3 M424.5,257.6c-8,0-15.9,1.3-23.4,3.9v-72.3c-0.1-6-5-10.9-11-11
					h-8.5c-6,0.1-10.9,5-11,11v38.6c0.9,0.8,1.8,1.6,2.6,2.4c16.1,16.2,16.1,42.4-0.1,58.5c-0.8,0.8-1.7,1.6-2.5,2.3v79.4
					c0.1,6,5,10.9,11,11h5.7c4.4-0.1,8.3-2.9,9.8-7.1c8.8,6.3,19.4,9.7,30.2,9.8c30.7,0,55.7-28.5,55.7-63.6
					c0-37.1-24-63.1-58.4-63.1 M343.7,300.8c5.2,0,10.4-1,15.2-2.9c1,1.7,1.6,3.6,1.6,5.6v66.9c-0.1,6-5,10.9-11,11H341
					c-6.1-0.1-11-4.9-11-11v-66.8c0-1.6,0.4-3.2,1.1-4.7C335.2,300.2,339.4,300.8,343.7,300.8 M319.6,293.8
					c1.3,6.2,1.9,12.5,1.8,18.8v57.8c-0.1,6-5,10.9-11,11h-8.8c-6-0.1-10.9-5-11-11v-57.8c0-25.1-14.1-25.1-18.8-25.1
					c-14.2,0-25.4,8.7-29.5,12.3v70.6c-0.1,6-5,10.9-11,11h-8.5c-6-0.1-10.9-5-11-11v-99.1c0.1-6,5-10.9,11-11h5.1
					c4.8-0.2,9,3,10,7.7l0.1,0.2c7.3-4.7,19.6-10.6,35.1-10.6c9.6,0,20,1.8,28.6,7.6C303.3,276.8,309.8,287.3,319.6,293.8
					 M148.4,286.2c13.1,0,21.5,9.7,21.5,24.8s-8.4,24.8-21.5,24.8c-13.5,0-22.9-10.2-22.9-24.8S134.9,286.2,148.4,286.2
					 M148.7,436.9c-15.4,0-27-7.3-27-16.9c0-10.1,10.6-14.3,13.4-15.2h29.5c13.5,0,15,8.4,15,12
					C179.6,428.8,163.6,436.9,148.7,436.9 M163.5,375.3h-39.4c-6.8,0-9.2-3.9-9.2-7.6c0-4.5,3.6-7.8,6.1-9.6
					c4.5,2.4,13.1,5.9,26.1,5.9c29.6,0,51.8-22.5,51.8-52.4c0-12.4-3.6-21.2-7.3-26.9l4.8-1c5.2-0.7,8-5.9,8-10.4v-4.6
					c0-6-4.8-11-10.8-11c-0.1,0-0.1,0-0.2,0H147c-29.7,0-52.1,23.2-52.1,54c0.1,9.1,2.4,17.9,6.8,25.9c-6.3,5.2-16.3,16.2-16.3,33
					c0,13.5,6.9,22.5,15,27.6c-7,6.3-10.9,15.3-10.8,24.7c0,21,18.3,43.6,58.4,43.6c34.5,0,62.5-22.5,62.5-50.2
					C210.4,390.9,192.4,375.2,163.5,375.3"/>
				<path class="st2" d="M343.7,238.6c-11.5,0.1-20.8,9.5-20.8,21c0.1,11.5,9.5,20.8,21,20.8c11.5-0.1,20.7-9.3,20.8-20.8
					c0-11.6-9.3-21-20.8-21C343.8,238.6,343.8,238.6,343.7,238.6"/>
			</g>
			<g class="st5">
				<path class="st2" d="M521.9,189v181.2c-0.1,6-5,10.9-11,11h-8.5c-6-0.1-10.9-5-11-11V189c0.1-6,5-10.9,11-11h8.5
					C516.9,178.1,521.8,183,521.9,189 M425.9,355c-13.5,0-21.6-10.3-24-13.9v-49.4c6.5-2.8,13.6-4.3,20.7-4.4
					c18.8,0,30,12.5,30,33.3C452.6,337.3,443.2,355,425.9,355 M425,257.3c-8,0-15.9,1.3-23.4,3.9V189c-0.1-6-5-10.9-11-11H382
					c-6,0.1-10.9,5-11,11v38.6c0.9,0.8,1.8,1.6,2.6,2.4c16.1,16.2,16.1,42.4-0.1,58.5c-0.8,0.8-1.6,1.6-2.5,2.3v79.4
					c0.1,6,5,10.9,11,11h5.7c4.4-0.1,8.3-2.9,9.8-7.1c8.8,6.3,19.4,9.7,30.2,9.8c30.7,0,55.7-28.5,55.7-63.6
					C483.4,283.2,459.4,257.3,425,257.3 M344.2,300.6c5.2,0,10.4-1,15.2-2.9c1,1.7,1.6,3.6,1.6,5.6v66.9c-0.1,6-5,10.9-11,11h-8.5
					c-6.1-0.1-11-4.9-11-11v-66.8c0-1.6,0.4-3.2,1.1-4.7C335.6,299.9,339.9,300.6,344.2,300.6 M320.1,293.6
					c1.3,6.2,1.9,12.5,1.8,18.8v57.8c-0.1,6-5,10.9-11,11h-8.8c-6-0.1-10.9-5-11-11v-57.8c0-25.1-14.1-25.1-18.8-25.1
					c-14.2,0-25.4,8.7-29.5,12.3v70.6c-0.1,6-5,10.9-11,11h-8.5c-6-0.1-10.9-5-11-11v-99.1c0.1-6,5-10.9,11-11h5.2
					c4.8-0.2,9,3,10.1,7.7l0.1,0.2c7.3-4.7,19.7-10.6,35.1-10.6c9.6,0,20,1.8,28.6,7.6c1.6,11.7,8.1,22.1,17.8,28.7 M149,286
					c13.1,0,21.5,9.7,21.5,24.8s-8.5,24.8-21.5,24.8c-13.5,0-22.9-10.2-22.9-24.8S135.5,286,149,286 M149.3,436.7
					c-15.4,0-27-7.3-27-16.9c0-10.1,10.6-14.3,13.4-15.2h29.5c13.5,0,15,8.4,15,12C180.1,428.6,164.2,436.7,149.3,436.7 M164,375
					h-39.4c-6.8,0-9.2-3.9-9.2-7.6c0-4.5,3.6-7.8,6.1-9.6c4.5,2.4,13.1,5.9,26.1,5.9c29.6,0,51.8-22.5,51.8-52.4
					c0-12.4-3.6-21.2-7.3-26.9l4.8-1c5.2-0.7,8-5.9,8-10.4v-4.6c0-6-4.8-11-10.8-11c-0.1,0-0.1,0-0.2,0h-46.2
					c-29.7,0-52.1,23.2-52.1,54c0.1,9.1,2.4,17.9,6.8,25.9c-6.3,5.2-16.3,16.2-16.3,33c0,13.5,6.9,22.5,15,27.6
					c-7,6.3-11,15.3-10.9,24.7c0,21,18.3,43.6,58.4,43.6c34.5,0,62.5-22.5,62.5-50.2C210.9,390.7,192.9,375,164,375"/>
				<path class="st2" d="M344.2,238.4c-11.5,0.1-20.8,9.5-20.8,21c0.1,11.5,9.5,20.8,21,20.8c11.5-0.1,20.7-9.3,20.8-20.8
					c0-11.6-9.3-21-20.8-21C344.3,238.4,344.3,238.4,344.2,238.4"/>
			</g>
			<g class="st6">
				<path class="st2" d="M522.4,188.7V370c-0.1,6-5,10.9-11,11h-8.5c-6-0.1-10.9-5-11-11V188.7c0.1-6,5-10.9,11-11h8.5
					C517.4,177.8,522.3,182.7,522.4,188.7 M426.4,354.8c-13.5,0-21.6-10.3-24-13.9v-49.4c6.5-2.8,13.6-4.3,20.7-4.4
					c18.8,0,30,12.5,30,33.3C453.1,337.1,443.7,354.8,426.4,354.8 M425.5,257.1c-8,0-15.9,1.3-23.4,3.9v-72.3c-0.1-6-5-10.9-11-11
					h-8.5c-6,0.1-10.9,5-11,11v38.7c0.9,0.8,1.8,1.6,2.6,2.4c16.1,16.2,16.1,42.4-0.1,58.5c-0.8,0.8-1.7,1.6-2.5,2.3V370
					c0.1,6,5,10.9,11,11h5.7c4.4-0.1,8.3-2.9,9.8-7.1c8.8,6.3,19.4,9.7,30.2,9.8c30.7,0,55.7-28.5,55.7-63.6
					C484,283,460,257.1,425.5,257.1 M344.7,300.4c5.2,0,10.4-1,15.2-2.9c1,1.7,1.6,3.6,1.6,5.6V370c-0.1,6-5,10.9-11,11H342
					c-6.1-0.1-11-4.9-11-11v-66.9c0-1.6,0.4-3.2,1.1-4.7C336.2,299.7,340.4,300.4,344.7,300.4 M320.6,293.4
					c1.3,6.2,1.9,12.5,1.8,18.8V370c-0.1,6-5,10.9-11,11h-8.8c-6-0.1-10.9-5-11-11v-57.8c0-25.1-14.1-25.1-18.8-25.1
					c-14.2,0-25.4,8.7-29.5,12.3V370c-0.1,6-5,10.9-11,11h-8.5c-6-0.1-10.9-5-11-11v-99.1c0.1-6,5-10.9,11-11h5.1
					c4.8-0.2,9,3,10.1,7.7l0.1,0.2c7.3-4.7,19.7-10.6,35.1-10.6c9.6,0,20,1.8,28.6,7.6C304.4,276.4,310.9,286.9,320.6,293.4
					 M149.5,285.8c13.1,0,21.5,9.7,21.5,24.8s-8.4,24.8-21.5,24.8c-13.5,0-22.9-10.2-22.9-24.8S136,285.8,149.5,285.8 M149.7,436.5
					c-15.4,0-27-7.3-27-16.9c0-10.1,10.6-14.3,13.4-15.2h29.5c13.5,0,15,8.4,15,12C180.6,428.4,164.7,436.5,149.7,436.5
					 M164.5,374.9h-39.5c-6.8,0-9.2-3.9-9.2-7.6c0-4.5,3.6-7.8,6.1-9.6c4.5,2.4,13.1,5.9,26.1,5.9c29.6,0,51.8-22.5,51.8-52.4
					c0-12.4-3.6-21.2-7.3-26.9l4.8-1c5.2-0.7,8-5.9,8-10.4v-4.6c0-6-4.8-11-10.8-11c-0.1,0-0.1,0-0.2,0h-46.2
					c-29.7,0-52.1,23.2-52.1,54c0.1,9,2.4,17.9,6.8,25.8c-6.3,5.2-16.3,16.2-16.3,33c0,13.5,6.9,22.5,15,27.6
					c-7,6.3-11,15.3-10.9,24.7c0,21,18.3,43.6,58.4,43.6c34.5,0,62.5-22.5,62.5-50.2C211.4,390.5,193.4,374.8,164.5,374.9"/>
				<path class="st2" d="M344.7,238.1c-11.5,0.1-20.8,9.5-20.8,21c0.1,11.5,9.5,20.8,21,20.8c11.5-0.1,20.7-9.3,20.8-20.8
					c0-11.6-9.3-21-20.8-21C344.8,238.1,344.8,238.1,344.7,238.1"/>
			</g>
			<g class="st7">
				<path class="st2" d="M522.9,188.5v181.2c-0.1,6-5,10.9-11,11h-8.5c-6-0.1-10.9-5-11-11V188.5c0.1-6,5-10.9,11-11h8.5
					C517.9,177.6,522.8,182.5,522.9,188.5 M426.9,354.6c-13.5,0-21.6-10.3-24-13.9v-49.4c6.5-2.8,13.6-4.3,20.7-4.4
					c18.8,0,30,12.5,30,33.3C453.6,336.9,444.2,354.6,426.9,354.6 M426,256.9c-8,0-15.9,1.3-23.4,3.9v-72.3c-0.1-6-5-10.9-11-11
					h-8.5c-6,0.1-10.9,5-11,11v38.6c0.9,0.8,1.8,1.6,2.6,2.4c16.1,16.2,16.1,42.4-0.1,58.5c-0.8,0.8-1.7,1.6-2.6,2.3v79.4
					c0.1,6,5,10.9,11,11h5.7c4.4-0.1,8.3-2.9,9.8-7.1c8.8,6.3,19.4,9.7,30.2,9.8c30.7,0,55.7-28.5,55.7-63.6
					C484.4,282.7,460.4,256.8,426,256.9 M345.2,300.1c5.2,0,10.4-1,15.2-2.9c1,1.7,1.6,3.6,1.6,5.6v66.9c-0.1,6-5,10.9-11,11h-8.5
					c-6.1-0.1-11-4.9-11-11v-66.8c0-1.6,0.4-3.2,1.1-4.7C336.6,299.5,340.9,300.1,345.2,300.1 M321.1,293.1
					c1.3,6.2,1.9,12.5,1.9,18.9v57.8c-0.1,6-5,10.9-11,11h-8.8c-6-0.1-10.9-5-11-11V312c0-25.1-14.1-25.1-18.8-25.1
					c-14.2,0-25.4,8.7-29.5,12.3v70.6c-0.1,6-5,10.9-11,11h-8.7c-6-0.1-10.9-5-11-11v-99.1c0.1-6,5-10.9,11-11h5.2
					c4.8-0.2,9,3,10.1,7.7l0.1,0.2c7.3-4.7,19.7-10.6,35.1-10.6c9.6,0,20,1.8,28.6,7.6C304.9,276.2,311.4,286.6,321.1,293.1
					 M150,285.5c13.1,0,21.5,9.7,21.5,24.8s-8.4,24.8-21.5,24.8c-13.5,0-22.9-10.2-22.9-24.8S136.5,285.5,150,285.5 M150.3,436.2
					c-15.4,0-27-7.3-27-16.9c0-10.1,10.6-14.3,13.4-15.2h29.5c13.5,0,15,8.4,15,12C181.2,428.1,165.2,436.2,150.3,436.2 M165,374.6
					h-39.4c-6.8,0-9.2-3.9-9.2-7.6c0-4.5,3.6-7.8,6.1-9.6c4.5,2.4,13.1,5.9,26.1,5.9c29.6,0,51.8-22.5,51.8-52.4
					c0-12.4-3.6-21.2-7.3-26.9l4.8-1c5.2-0.7,8-5.9,8-10.4v-4.6c0-6-4.8-11-10.8-11c-0.1,0-0.1,0-0.2,0h-46.2
					c-29.7,0-52.1,23.2-52.1,54c0.1,9.1,2.4,17.9,6.8,25.9c-6.3,5.2-16.3,16.2-16.3,33c0,13.5,6.9,22.5,15,27.6
					c-7,6.3-11,15.3-10.9,24.7c0,21,18.3,43.6,58.4,43.6c34.5,0,62.5-22.5,62.5-50.2C211.9,390.2,193.9,374.5,165,374.6"/>
				<path class="st2" d="M345.3,237.9c-11.5,0.1-20.8,9.5-20.8,21c0.1,11.5,9.5,20.8,21,20.8c11.5-0.1,20.7-9.3,20.8-20.8
					c0-11.6-9.3-21-20.8-21C345.4,237.9,345.3,237.9,345.3,237.9"/>
			</g>
			<g class="st8">
				<path class="st2" d="M523.4,188.3v181.2c-0.1,6-5,10.9-11,11h-8.5c-6-0.1-10.9-5-11-11V188.3c0.1-6,5-10.9,11-11h8.5
					C518.4,177.4,523.3,182.2,523.4,188.3 M427.4,354.3c-13.5,0-21.6-10.3-24-13.9V291c6.5-2.8,13.6-4.3,20.7-4.4
					c18.8,0,30,12.5,30,33.3C454.1,336.6,444.7,354.3,427.4,354.3 M426.6,256.6c-8,0-15.9,1.3-23.4,3.9v-72.2c-0.1-6-5-10.9-11-11
					h-8.5c-6,0.1-10.9,5-11,11v38.7c0.9,0.8,1.8,1.6,2.6,2.4c16.1,16.2,16.1,42.4-0.1,58.5c-0.8,0.8-1.7,1.6-2.5,2.3v79.4
					c0.1,6,5,10.9,11,11h5.7c4.4-0.1,8.3-2.9,9.8-7.1c8.8,6.3,19.4,9.7,30.2,9.8c30.7,0,55.7-28.5,55.7-63.6
					C485,282.5,461,256.6,426.6,256.6 M345.8,299.9c5.2,0,10.4-1,15.2-2.9c1,1.7,1.6,3.6,1.6,5.6v66.9c-0.1,6-5,10.9-11,11H343
					c-6.1-0.1-11-4.9-11-11v-66.9c0-1.6,0.4-3.2,1.1-4.7C337.2,299.2,341.4,299.9,345.8,299.9 M321.6,292.9
					c1.3,6.2,1.9,12.5,1.8,18.8v57.7c-0.1,6-5,10.9-11,11h-8.8c-6-0.1-10.9-5-11-11v-57.8c0-25.1-14.1-25.1-18.8-25.1
					c-14.2,0-25.4,8.7-29.5,12.3v70.6c-0.1,6-5,10.9-11,11h-8.5c-6-0.1-10.9-5-11-11v-99.1c0.1-6,5-10.9,11-11h5.1
					c4.8-0.2,9,3,10.1,7.7l0.1,0.2c7.3-4.7,19.7-10.6,35.1-10.6c9.6,0,20,1.8,28.6,7.6C305.4,275.9,311.9,286.4,321.6,292.9
					 M150.5,285.3c13.1,0,21.5,9.7,21.5,24.8s-8.4,24.8-21.5,24.8c-13.5,0-22.9-10.2-22.9-24.8S137,285.3,150.5,285.3 M150.7,436
					c-15.4,0-27-7.3-27-16.9c0-10.1,10.6-14.3,13.4-15.2h29.5c13.5,0,15,8.4,15,12C181.6,427.9,165.7,436,150.7,436 M165.5,374.4
					h-39.4c-6.8,0-9.2-3.9-9.2-7.6c0-4.5,3.6-7.8,6.1-9.6c4.5,2.4,13.1,5.9,26.1,5.9c29.6,0,51.8-22.5,51.8-52.4
					c0-12.4-3.6-21.2-7.3-26.9l4.8-1c5.2-0.7,8-5.9,8-10.4v-4.6c0-6-4.8-11-10.8-11c-0.1,0-0.1,0-0.2,0h-46.2
					c-29.7,0-52.1,23.2-52.1,54c0.1,9.1,2.4,17.9,6.8,25.9c-6.3,5.2-16.3,16.2-16.3,33c0,13.5,6.9,22.5,15,27.6
					c-7,6.3-11,15.3-10.9,24.7c0,21,18.3,43.6,58.4,43.6c34.5,0,62.5-22.5,62.5-50.2C212.4,390,194.4,374.3,165.5,374.4"/>
				<path class="st2" d="M345.8,237.7c-11.5,0.1-20.8,9.5-20.8,21c0.1,11.5,9.5,20.8,21,20.8c11.5-0.1,20.7-9.3,20.8-20.8
					c0-11.6-9.3-21-20.8-21C345.9,237.7,345.8,237.7,345.8,237.7"/>
			</g>
			<g class="st9">
				<path class="st2" d="M523.9,188v181.3c-0.1,6-5,10.9-11,11h-8.5c-6-0.1-10.9-5-11-11V188c0.1-6,5-10.9,11-11h8.5
					C518.9,177.1,523.8,182,523.9,188 M427.9,354.1c-13.5,0-21.6-10.3-24-13.9v-49.4c6.5-2.8,13.6-4.3,20.7-4.4
					c18.8,0,30,12.5,30,33.3C454.6,336.4,445.2,354.1,427.9,354.1 M427.1,256.4c-8,0-15.9,1.3-23.4,3.9V188c-0.1-6-5-10.9-11-11
					h-8.5c-6,0.1-10.9,5-11,11v38.7c0.9,0.8,1.8,1.6,2.6,2.4c16.1,16.2,16.1,42.4-0.1,58.5c-0.8,0.8-1.7,1.6-2.5,2.3v79.4
					c0.1,6,5,10.9,11,11h5.7c4.4-0.1,8.3-2.9,9.8-7.1c8.8,6.3,19.4,9.7,30.2,9.8c30.7,0,55.7-28.5,55.7-63.6
					C485.5,282.3,461.5,256.3,427.1,256.4 M346.3,299.6c5.2,0,10.4-1,15.2-2.9c1,1.7,1.6,3.6,1.6,5.6v66.9c-0.1,6-5,10.9-11,11h-8.5
					c-6.1-0.1-11-4.9-11-11v-66.8c0-1.6,0.4-3.2,1.1-4.7C337.7,299,342,299.7,346.3,299.6 M322.2,292.7c1.3,6.2,1.9,12.5,1.8,18.8
					v57.8c-0.1,6-5,10.9-11,11h-8.8c-6-0.1-10.9-5-11-11v-57.8c0-25.1-14.1-25.1-18.8-25.1c-14.2,0-25.4,8.7-29.5,12.3v70.6
					c-0.1,6-5,10.9-11,11h-8.5c-6-0.1-10.9-5-11-11v-99.1c0.1-6,5-10.9,11-11h5.2c4.8-0.2,9,3,10.1,7.7l0.1,0.2
					c7.3-4.7,19.7-10.6,35.1-10.6c9.6,0,20,1.8,28.6,7.6c1.6,11.7,8.1,22.1,17.8,28.7 M151,285c13.1,0,21.5,9.7,21.5,24.8
					s-8.4,24.8-21.5,24.8c-13.5,0-22.9-10.2-22.9-24.8S137.5,285,151,285 M151.3,435.7c-15.4,0-27-7.3-27-16.9
					c0-10.1,10.6-14.3,13.4-15.2h29.5c13.5,0,15,8.4,15,12C182.2,427.6,166.2,435.7,151.3,435.7 M166,374.1h-39.4
					c-6.8,0-9.2-3.9-9.2-7.6c0-4.5,3.6-7.8,6.1-9.6c4.5,2.4,13.1,5.9,26.1,5.9c29.6,0,51.8-22.5,51.8-52.4c0-12.4-3.6-21.2-7.3-26.9
					l4.8-1c5.2-0.7,8-5.9,8-10.4v-4.6c0-6-4.8-11-10.8-11c-0.1,0-0.1,0-0.2,0h-46.2c-29.7,0-52.1,23.2-52.1,54
					c0.1,9.1,2.4,17.9,6.8,25.9c-6.3,5.2-16.3,16.2-16.3,33c0,13.5,6.9,22.5,15,27.6c-7,6.3-11,15.3-10.9,24.7
					c0,21,18.3,43.6,58.4,43.6c34.5,0,62.5-22.5,62.5-50.2C212.9,389.8,194.9,374.1,166,374.1"/>
				<path class="st2" d="M346.3,237.4c-11.5,0.1-20.8,9.5-20.8,21c0.1,11.5,9.5,20.8,21,20.8c11.5-0.1,20.7-9.3,20.8-20.8
					c0-11.6-9.3-21-20.8-21C346.4,237.4,346.3,237.4,346.3,237.4"/>
			</g>
			<g class="st10">
				<path class="st2" d="M524.4,187.8V369c-0.1,6-5,10.9-11,11h-8.5c-6-0.1-10.9-5-11-11V187.8c0.1-6,5-10.9,11-11h8.5
					C519.5,176.9,524.3,181.8,524.4,187.8 M428.4,353.9c-13.5,0-21.6-10.3-24-13.9v-49.4c6.5-2.8,13.6-4.3,20.7-4.4
					c18.8,0,30,12.5,30,33.3C455.1,336.2,445.8,353.9,428.4,353.9 M427.6,256.2c-8,0-15.9,1.3-23.4,3.9v-72.3c-0.1-6-5-10.9-11-11
					h-8.5c-6,0.1-10.9,5-11,11v38.6c0.9,0.8,1.8,1.6,2.6,2.4c16.1,16.2,16.1,42.4-0.1,58.5c-0.8,0.8-1.7,1.6-2.5,2.3V369
					c0.1,6,5,10.9,11,11h5.7c4.4-0.1,8.3-2.9,9.8-7.1c8.8,6.3,19.4,9.7,30.2,9.8c30.7,0,55.7-28.5,55.7-63.6
					c0-37.1-24-63.1-58.4-63.1 M346.8,299.4c5.2,0,10.4-1,15.2-2.9c1,1.7,1.6,3.6,1.6,5.6V369c-0.1,6-5,10.9-11,11H344
					c-6-0.1-10.9-5-11-11v-66.8c0-1.6,0.4-3.2,1.1-4.7C338.2,298.8,342.5,299.5,346.8,299.4 M322.7,292.5c1.3,6.2,1.9,12.5,1.8,18.8
					V369c-0.1,6-5,10.9-11,11h-8.8c-6-0.1-10.9-5-11-11v-57.7c0-25.1-14.1-25.1-18.8-25.1c-14.2,0-25.4,8.7-29.5,12.3V369
					c-0.1,6-5,10.9-11,11H226c-6-0.1-10.9-5-11-11v-99.1c0.1-6,5-10.9,11-11h5c4.8-0.2,9,3,10.1,7.7l0.1,0.2
					c7.3-4.7,19.7-10.6,35.1-10.6c9.6,0,20,1.8,28.6,7.6C306.4,275.4,312.9,285.9,322.7,292.5 M151.5,284.8
					c13.1,0,21.5,9.7,21.5,24.8s-8.4,24.8-21.5,24.8c-13.5,0-22.9-10.2-22.9-24.8S138,284.8,151.5,284.8 M151.7,435.5
					c-15.4,0-27-7.3-27-16.9c0-10.1,10.6-14.3,13.4-15.2h29.5c13.5,0,15,8.4,15,12C182.6,427.4,166.7,435.5,151.7,435.5
					 M166.5,373.9h-39.4c-6.8,0-9.2-3.9-9.2-7.6c0-4.5,3.6-7.8,6.1-9.6c4.5,2.4,13.1,5.9,26.1,5.9c29.6,0,51.8-22.5,51.8-52.4
					c0-12.4-3.6-21.2-7.3-26.9l4.8-1c5.2-0.7,8-5.9,8-10.4v-4.7c0-6-4.8-11-10.8-11c-0.1,0-0.1,0-0.2,0h-46.2
					c-29.7,0-52.1,23.2-52.1,54c0.1,9,2.4,17.9,6.8,25.8c-6.3,5.2-16.3,16.2-16.3,33c0,13.5,6.9,22.5,15,27.6
					c-7,6.3-11,15.3-10.9,24.7c0,21,18.3,43.6,58.4,43.6c34.5,0,62.5-22.5,62.5-50.2C213.4,389.5,195.4,373.8,166.5,373.9"/>
				<path class="st2" d="M346.8,237.2c-11.5,0.1-20.8,9.5-20.8,21c0.1,11.5,9.5,20.8,21,20.8c11.5-0.1,20.7-9.3,20.8-20.8
					c0-11.6-9.3-21-20.8-21C346.9,237.2,346.8,237.2,346.8,237.2"/>
			</g>
			<g class="st11">
				<path class="st2" d="M524.9,187.6v181.2c-0.1,6-5,10.9-11,11h-8.5c-6-0.1-10.9-5-11-11V187.6c0.1-6,5-10.9,11-11h8.5
					C519.9,176.7,524.8,181.5,524.9,187.6 M428.9,353.7c-13.5,0-21.6-10.3-24-13.9v-49.4c6.6-2.8,13.6-4.3,20.8-4.4
					c18.8,0,30,12.5,30,33.3C455.6,336,446.3,353.7,428.9,353.7 M428.1,256c-8,0-15.9,1.3-23.4,3.9v-72.3c-0.1-6-5-10.9-11-11h-8.5
					c-6,0.1-10.9,5-11,11v38.7c0.9,0.8,1.8,1.6,2.6,2.4c16.1,16.2,16.1,42.4-0.1,58.5c-0.8,0.8-1.7,1.6-2.5,2.3v79.4
					c0.1,6,5,10.9,11,11h5.7c4.4-0.1,8.3-2.9,9.8-7.1c8.8,6.3,19.4,9.7,30.2,9.8c30.7,0,55.7-28.5,55.7-63.6
					c0-37.1-24-63.1-58.4-63.1 M347.3,299.2c5.2,0,10.4-1,15.2-2.9c1,1.7,1.6,3.6,1.6,5.6v66.9c-0.1,6-5,10.9-11,11h-8.5
					c-6.1-0.1-11-4.9-11-11v-66.8c0-1.6,0.4-3.2,1.1-4.7C338.8,298.6,343.1,299.2,347.3,299.2 M323.3,292.2
					c1.2,6.2,1.8,12.5,1.7,18.8v57.8c-0.1,6-5,10.9-11,11h-8.8c-6-0.1-10.9-5-11-11V311c-0.1-25-14.2-25-18.9-25
					c-14.2,0-25.4,8.7-29.5,12.3v70.6c-0.1,6-5,10.9-11,11h-8.5c-6-0.1-10.9-5-11-11v-99.1c0.1-6,5-10.9,11-11h5.2
					c4.8-0.2,9,3,10.1,7.7l0.1,0.2c7.3-4.7,19.7-10.6,35.1-10.6c9.6,0,20,1.8,28.6,7.6C307,275.3,313.5,285.7,323.3,292.2
					 M152,284.6c13.1,0,21.5,9.7,21.5,24.8s-8.4,24.8-21.5,24.8c-13.5,0-22.9-10.2-22.9-24.8S138.5,284.6,152,284.6 M152.3,435.2
					c-15.4,0-27-7.3-27-16.9c0-10.1,10.6-14.3,13.4-15.2h29.5c13.5,0,15,8.4,15,12C183.2,427.2,167.2,435.3,152.3,435.2 M167,373.6
					h-39.4c-6.8,0-9.2-3.9-9.2-7.6c0-4.5,3.6-7.8,6.1-9.6c4.5,2.4,13.1,5.9,26.1,5.9c29.6,0,51.8-22.5,51.8-52.4
					c0-12.4-3.6-21.2-7.3-26.9l4.8-1c5.2-0.7,8-5.9,8-10.4V267c0-6-4.8-11-10.8-11c-0.1,0-0.1,0-0.2,0h-46.2
					c-29.7,0-52.1,23.2-52.1,54c0.1,9.1,2.4,17.9,6.8,25.9C99,341,88.9,352,88.9,368.8c0,13.5,6.9,22.5,15,27.6
					c-7,6.3-11,15.3-10.9,24.7c0,21,18.3,43.6,58.4,43.6c34.5,0,62.5-22.5,62.5-50.2C213.9,389.3,195.9,373.6,167,373.6"/>
				<path class="st2" d="M347.3,237c-11.5,0.1-20.8,9.5-20.8,21c0.1,11.5,9.5,20.8,21,20.8c11.5-0.1,20.7-9.3,20.8-20.8
					c0-11.6-9.3-21-20.8-21C347.4,237,347.4,237,347.3,237"/>
			</g>
			<g class="st12">
				<path class="st2" d="M525.5,187.4v181.2c-0.1,6-5,10.9-11,11H506c-6-0.1-10.9-5-11-11V187.4c0.1-6,5-10.9,11-11h8.5
					C520.5,176.5,525.3,181.3,525.5,187.4 M429.5,353.4c-13.5,0-21.6-10.3-24-13.9v-49.4c6.5-2.8,13.6-4.3,20.7-4.4
					c18.8,0,30,12.5,30,33.3C456.2,335.7,446.8,353.4,429.5,353.4 M428.6,255.7c-8,0-15.9,1.3-23.4,3.9v-72.3c-0.1-6-5-10.9-11-11
					h-8.5c-6,0.1-10.9,5-11,11V226c0.9,0.8,1.8,1.6,2.6,2.4c16.1,16.2,16.1,42.4-0.1,58.5c-0.8,0.8-1.7,1.6-2.5,2.3v79.4
					c0.1,6,5,10.9,11,11h5.7c4.4-0.1,8.3-2.9,9.8-7.1c8.8,6.3,19.4,9.7,30.2,9.8c30.7,0,55.7-28.5,55.7-63.6
					C487.1,281.6,463.1,255.6,428.6,255.7 M347.8,299c5.2,0,10.4-1,15.2-2.9c1,1.7,1.6,3.6,1.6,5.6v66.9c-0.1,6-5,10.9-11,11h-8.5
					c-6.1-0.1-11-4.9-11-11v-66.9c0-1.6,0.4-3.2,1.1-4.7C339.3,298.3,343.5,299,347.8,299 M323.7,292c1.3,6.2,1.9,12.5,1.8,18.8
					v57.8c-0.1,6-5,10.9-11,11h-8.8c-6-0.1-10.9-5-11-11v-57.8c0-25.1-14.1-25.1-18.8-25.1c-14.2,0-25.4,8.7-29.5,12.3v70.6
					c-0.1,6-5,10.9-11,11h-8.5c-6-0.1-10.9-5-11-11v-99.1c0.1-6,5-10.9,11-11h5.2c4.8-0.2,9,3,10.1,7.7l0.1,0.2
					c7.3-4.7,19.7-10.6,35.1-10.6c9.6,0,20,1.8,28.6,7.6C307.5,275,314,285.4,323.7,292 M152.5,284.4c13.1,0,21.5,9.7,21.5,24.8
					s-8.5,24.8-21.5,24.8c-13.5,0-22.9-10.2-22.9-24.8S139,284.4,152.5,284.4 M152.8,435c-15.4,0-27-7.3-27-16.9
					c0-10.1,10.6-14.3,13.4-15.2h29.5c13.5,0,15,8.4,15,12C183.7,426.9,167.7,435.1,152.8,435 M167.6,373.5h-39.5
					c-6.8,0-9.2-3.9-9.2-7.6c0-4.5,3.6-7.8,6.1-9.6c4.5,2.4,13.1,5.9,26.1,5.9c29.6,0,51.8-22.5,51.8-52.4c0-12.4-3.6-21.2-7.3-26.9
					l4.8-1c5.2-0.7,8-5.9,8-10.4v-4.6c0-6-4.8-11-10.8-11c-0.1,0-0.1,0-0.2,0h-46.2c-29.7,0-52.1,23.2-52.1,54
					c0.1,9.1,2.4,17.9,6.8,25.9c-6.3,5.2-16.3,16.2-16.3,33c0,13.5,6.9,22.5,15,27.6c-7,6.3-11,15.3-10.9,24.7
					c0,21,18.3,43.6,58.4,43.6c34.5,0,62.5-22.5,62.5-50.2C214.5,389.1,196.5,373.5,167.6,373.5"/>
				<path class="st2" d="M347.8,236.8c-11.5,0.1-20.8,9.5-20.8,21c0.1,11.5,9.5,20.8,21,20.8c11.5-0.1,20.7-9.3,20.8-20.8
					c0-11.6-9.3-21-20.8-21C347.9,236.8,347.9,236.8,347.8,236.8"/>
			</g>
			<g class="st13">
				<path class="st2" d="M526,187.1v181.2c-0.1,6-5,10.9-11,11h-8.5c-6-0.1-10.9-5-11-11V187.1c0.1-6,5-10.9,11-11h8.5
					C521,176.2,525.9,181.1,526,187.1 M430,353.2c-13.5,0-21.6-10.3-24-13.9v-49.4c6.5-2.8,13.6-4.3,20.7-4.4
					c18.8,0,30,12.5,30,33.3C456.7,335.5,447.3,353.2,430,353.2 M429.2,255.5c-8,0-15.9,1.3-23.4,3.9v-72.3c-0.1-6-5-10.9-11-11
					h-8.5c-6,0.1-10.9,5-11,11v38.6c0.9,0.8,1.8,1.6,2.6,2.4c16.1,16.2,16,42.4-0.2,58.5c-0.8,0.8-1.7,1.6-2.5,2.3v79.4
					c0.1,6,5,10.9,11,11h5.7c4.4-0.1,8.3-2.9,9.8-7.1c8.8,6.3,19.4,9.7,30.2,9.8c30.7,0,55.7-28.5,55.7-63.6
					C487.5,281.3,463.5,255.4,429.2,255.5 M348.3,298.7c5.2,0,10.4-1,15.2-2.9c1,1.7,1.6,3.6,1.6,5.6v66.9c-0.1,6-5,10.9-11,11h-8.5
					c-6.1-0.1-11-4.9-11-11v-66.8c0-1.6,0.4-3.2,1.1-4.7C339.7,298.1,344,298.8,348.3,298.7 M324.2,291.8c1.3,6.2,1.9,12.5,1.8,18.8
					v57.8c-0.1,6-5,10.9-11,11h-8.8c-6-0.1-10.9-5-11-11v-57.8c0-25.1-14.1-25.1-18.8-25.1c-14.2,0-25.4,8.7-29.5,12.3v70.6
					c-0.1,6-5,10.9-11,11h-8.5c-6-0.1-10.9-5-11-11v-99.1c0.1-6,5-10.9,11-11h5.2c4.8-0.2,9,3,10.1,7.7l0.1,0.2
					c7.3-4.7,19.7-10.6,35.1-10.6c9.6,0,20,1.8,28.6,7.6c1.6,11.7,8.1,22.1,17.8,28.7 M153,284.1c13.1,0,21.5,9.7,21.5,24.8
					s-8.4,24.8-21.5,24.8c-13.5,0-22.9-10.2-22.9-24.8S139.5,284.1,153,284.1 M153.3,434.8c-15.4,0-27-7.3-27-16.9
					c0-10.1,10.6-14.3,13.4-15.2h29.5c13.5,0,15,8.4,15,12C184.2,426.7,168.2,434.8,153.3,434.8 M168.1,373.2h-39.4
					c-6.8,0-9.2-3.9-9.2-7.6c0-4.5,3.6-7.8,6.1-9.6c4.5,2.4,13.1,5.9,26.1,5.9c29.6,0,51.8-22.5,51.8-52.4c0-12.4-3.6-21.2-7.3-26.9
					l4.8-1c5.2-0.7,8-5.9,8-10.4v-4.6c0-6-4.8-11-10.8-11c-0.1,0-0.1,0-0.2,0h-46.2c-29.7,0-52.1,23.2-52.1,54
					c0.1,9.1,2.4,17.9,6.8,25.9c-6.3,5.2-16.3,16.2-16.3,33c0,13.5,6.9,22.5,15,27.6c-7,6.3-11,15.3-10.9,24.7
					c0,21,18.3,43.6,58.4,43.6c34.5,0,62.5-22.5,62.5-50.2C215,388.9,197,373.3,168.1,373.2"/>
				<path class="st2" d="M348.3,236.5c-11.5,0.1-20.8,9.5-20.8,21c0.1,11.5,9.5,20.8,21,20.8c11.5-0.1,20.7-9.3,20.8-20.8
					c0-11.6-9.3-21-20.8-21C348.4,236.5,348.4,236.5,348.3,236.5"/>
			</g>
			<g class="st14">
				<path class="st2" d="M526.5,186.9v181.2c-0.1,6-5,10.9-11,11H507c-6-0.1-10.9-5-11-11V186.9c0.1-6,5-10.9,11-11h8.5
					C521.5,176,526.4,180.9,526.5,186.9 M430.5,353c-13.5,0-21.6-10.3-24-13.9v-49.4c6.5-2.8,13.6-4.3,20.7-4.4
					c18.8,0,30,12.5,30,33.3C457.2,335.3,447.8,353,430.5,353 M429.6,255.3c-8,0-15.9,1.3-23.4,3.9v-72.3c-0.1-6-5-10.9-11-11h-8.5
					c-6,0.1-10.9,5-11,11v38.6c0.9,0.8,1.8,1.6,2.6,2.4c16.1,16.2,16.1,42.4-0.1,58.5c-0.8,0.8-1.7,1.6-2.5,2.3v79.4
					c0.1,6,5,10.9,11,11h5.7c4.4-0.1,8.3-2.9,9.8-7.1c8.8,6.3,19.4,9.7,30.2,9.8c30.7,0,55.7-28.5,55.7-63.6
					c0-37.1-24-63.1-58.4-63.1 M348.9,298.5c5.2,0,10.4-1,15.2-2.9c1,1.7,1.6,3.6,1.6,5.6v66.9c-0.1,6-5,10.9-11,11h-8.5
					c-6.1-0.1-11-4.9-11-11v-66.8c0-1.6,0.4-3.2,1.1-4.7C340.3,297.9,344.6,298.6,348.9,298.5 M324.8,291.5
					c1.3,6.2,1.9,12.5,1.8,18.8v57.8c-0.1,6-5,10.9-11,11h-8.8c-6-0.1-10.9-5-11-11v-57.8c0-25.1-14.1-25.1-18.8-25.1
					c-14.2,0-25.4,8.7-29.5,12.3v70.6c-0.1,6-5,10.9-11,11h-8.5c-6-0.1-10.9-5-11-11V269c0.1-6,5-10.9,11-11h5.2
					c4.8-0.2,9,3,10.1,7.7l0.1,0.2c7.3-4.7,19.7-10.6,35.1-10.6c9.6,0,20,1.8,28.6,7.6c1.6,11.7,8.1,22.1,17.8,28.7 M153.6,283.9
					c13.1,0,21.5,9.7,21.5,24.8s-8.4,24.8-21.5,24.8c-13.5,0-22.9-10.2-22.9-24.8S140.1,283.9,153.6,283.9 M153.8,434.6
					c-15.4,0-27-7.3-27-16.9c0-10.1,10.6-14.3,13.4-15.2h29.5c13.5,0,15,8.4,15,12C184.7,426.5,168.8,434.6,153.8,434.6 M168.6,373
					h-39.4c-6.8,0-9.2-3.9-9.2-7.6c0-4.5,3.6-7.8,6.1-9.6c4.5,2.4,13.1,5.9,26.1,5.9c29.6,0,51.8-22.5,51.8-52.4
					c0-12.4-3.6-21.2-7.3-26.9l4.8-1c5.2-0.7,8-5.9,8-10.4v-4.6c0-6-4.8-11-10.8-11c-0.1,0-0.1,0-0.2,0h-46.2
					c-29.7,0-52.1,23.2-52.1,54c0.1,9.1,2.4,17.9,6.8,25.9c-6.3,5.2-16.3,16.2-16.3,33c0,13.5,6.9,22.5,15,27.6
					c-7,6.3-11,15.3-10.9,24.7c0,21,18.3,43.6,58.4,43.6c34.5,0,62.5-22.5,62.5-50.2C215.5,388.7,197.5,373,168.6,373"/>
				<path class="st2" d="M348.8,236.3c-11.5,0.1-20.8,9.5-20.8,21c0.1,11.5,9.5,20.8,21,20.8c11.5-0.1,20.7-9.3,20.8-20.8
					c0-11.6-9.3-21-20.8-21C348.9,236.3,348.9,236.3,348.8,236.3"/>
			</g>
			<g class="st15">
				<path class="st2" d="M527,186.7v181.2c-0.1,6-5,10.9-11,11h-8.5c-6-0.1-10.9-5-11-11V186.7c0.1-6,5-10.9,11-11h8.5
					C522,175.8,526.9,180.6,527,186.7 M431,352.7c-13.5,0-21.6-10.3-24-13.9v-49.4c6.5-2.8,13.6-4.3,20.7-4.4
					c18.8,0,30,12.5,30,33.3C457.7,335,448.3,352.7,431,352.7 M430.1,255c-8,0-15.9,1.3-23.4,3.9v-72.3c-0.1-6-5-10.9-11-11h-8.5
					c-6,0.1-10.9,5-11,11v38.7c0.9,0.8,1.8,1.6,2.6,2.4c16.1,16.2,16.1,42.4-0.1,58.5c-0.8,0.8-1.7,1.6-2.5,2.3v79.4
					c0.1,6,5,10.9,11,11h5.7c4.4-0.1,8.3-2.9,9.8-7.1c8.8,6.3,19.4,9.7,30.2,9.8c30.7,0,55.7-28.5,55.7-63.6
					C488.6,280.9,464.6,255,430.1,255 M349.4,298.3c5.2,0,10.4-1,15.2-2.9c1,1.7,1.6,3.6,1.6,5.6v66.9c-0.1,6-5,10.9-11,11h-8.5
					c-6.1-0.1-11-4.9-11-11V301c0-1.6,0.4-3.2,1.1-4.7C340.8,297.6,345.1,298.3,349.4,298.3 M325.3,291.3c1.2,6.2,1.8,12.5,1.7,18.8
					v57.8c-0.1,6-5,10.9-11,11h-8.8c-6-0.1-10.9-5-11-11v-57.8c0-25.1-14.2-25.1-18.8-25.1c-14.2,0-25.4,8.7-29.5,12.3v70.6
					c-0.1,6-5,10.9-11,11h-8.5c-6-0.1-10.9-5-11-11v-99.1c0.1-6.1,4.9-10.9,11-11h5.2c4.8-0.2,9,3,10.1,7.7l0.1,0.2
					c7.3-4.7,19.6-10.7,35-10.7c9.6,0,20,1.8,28.6,7.6C309,274.3,315.5,284.7,325.3,291.3 M154.1,283.6c13.1,0,21.5,9.7,21.5,24.8
					s-8.4,24.8-21.5,24.8c-13.5,0-22.9-10.2-22.9-24.8S140.6,283.6,154.1,283.6 M154.3,434.3c-15.4,0-27-7.3-27-16.9
					c0-10.1,10.6-14.3,13.4-15.2h29.5c13.5,0,15,8.4,15,12C185.2,426.2,169.3,434.4,154.3,434.3 M169.1,372.8h-39.5
					c-6.8,0-9.2-3.9-9.2-7.6c0-4.5,3.6-7.8,6.1-9.6c4.5,2.4,13.1,5.9,26.1,5.9c29.6,0,51.8-22.5,51.8-52.4c0-12.4-3.6-21.2-7.3-26.9
					l4.8-1c5.2-0.7,8-5.9,8-10.4v-4.6c0-6-4.8-11-10.8-11c-0.1,0-0.1,0-0.2,0h-46.2c-29.7,0-52.1,23.2-52.1,54
					c0.1,9.1,2.4,17.9,6.8,25.9c-6.3,5.2-16.3,16.2-16.3,33c0,13.5,6.9,22.5,15,27.6c-7,6.3-11,15.3-10.9,24.7
					c0,21,18.3,43.6,58.4,43.6c34.5,0,62.5-22.5,62.5-50.2C216,388.4,198,372.7,169.1,372.8"/>
				<path class="st2" d="M349.3,236.1c-11.5,0.1-20.8,9.5-20.8,21c0.1,11.5,9.5,20.8,21,20.8c11.5-0.1,20.7-9.3,20.8-20.8
					c0-11.6-9.3-21-20.8-21C349.4,236.1,349.4,236.1,349.3,236.1"/>
			</g>
			<g class="st16">
				<path class="st2" d="M527.5,186.4v181.2c-0.1,6-5,10.9-11,11H508c-6-0.1-10.9-5-11-11V186.4c0.1-6,5-10.9,11-11h8.5
					C522.5,175.5,527.4,180.4,527.5,186.4 M431.5,352.5c-13.5,0-21.6-10.3-24-13.9v-49.4c6.5-2.8,13.6-4.3,20.7-4.4
					c18.8,0,30,12.5,30,33.3C458.2,334.8,448.8,352.5,431.5,352.5 M430.6,254.8c-8,0-15.9,1.3-23.4,3.9v-72.3c-0.1-6-5-10.9-11-11
					h-8.5c-6,0.1-10.9,5-11,11v38.6c0.9,0.8,1.8,1.6,2.6,2.4c16.1,16.2,16.1,42.4-0.1,58.5c-0.8,0.8-1.7,1.6-2.5,2.3v79.4
					c0.1,6,5,10.9,11,11h5.7c4.4-0.1,8.3-2.9,9.8-7.1c8.8,6.3,19.4,9.7,30.2,9.8c30.7,0,55.7-28.5,55.7-63.6
					C489.1,280.7,465.1,254.7,430.6,254.8 M349.9,298c5.2,0,10.4-1,15.2-2.9c1,1.7,1.6,3.6,1.6,5.6v66.9c-0.1,6-5,10.9-11,11h-8.5
					c-6.1-0.1-11-4.9-11-11v-66.8c0-1.6,0.4-3.2,1.1-4.7C341.3,297.4,345.6,298.1,349.9,298 M325.8,291.1c1.3,6.2,1.9,12.5,1.8,18.8
					v57.8c-0.1,6-5,10.9-11,11h-8.8c-6-0.1-10.9-5-11-11v-57.8c0-25.1-14.1-25.1-18.8-25.1c-14.2,0-25.4,8.7-29.5,12.3v70.6
					c-0.1,6-5,10.9-11,11h-8.7c-6-0.1-10.9-5-11-11v-99.1c0.1-6.1,4.9-10.9,11-11h5.2c4.8-0.2,9,3,10.1,7.7l0.1,0.2
					c7.3-4.7,19.6-10.6,35.1-10.6c9.6,0,20,1.8,28.6,7.6C309.5,274,316,284.5,325.8,291.1 M154.6,283.4c13.1,0,21.5,9.7,21.5,24.8
					s-8.4,24.8-21.5,24.8c-13.5,0-22.9-10.2-22.9-24.8S141.1,283.4,154.6,283.4 M154.8,434.1c-15.4,0-27-7.3-27-16.9
					c0-10.1,10.6-14.3,13.4-15.2h29.5c13.5,0,15,8.4,15,12C185.7,426,169.8,434.1,154.8,434.1 M169.6,372.5h-39.4
					c-6.8,0-9.2-3.9-9.2-7.6c0-4.5,3.6-7.8,6.1-9.6c4.5,2.4,13.1,5.9,26.1,5.9c29.6,0,51.8-22.5,51.8-52.4c0-12.4-3.6-21.2-7.3-26.9
					l4.8-1c5.2-0.7,8-5.9,8-10.4v-4.6c0-6-4.8-11-10.8-11c-0.1,0-0.1,0-0.2,0h-46.2c-29.7,0-52.1,23.2-52.1,54
					c0.1,9.1,2.4,17.9,6.8,25.9c-6.3,5.2-16.3,16.2-16.3,33c0,13.5,6.9,22.5,15,27.6c-7,6.3-11,15.3-10.9,24.7
					c0,21,18.3,43.6,58.4,43.6c34.5,0,62.5-22.5,62.5-50.2C216.5,388.2,198.5,372.5,169.6,372.5"/>
				<path class="st2" d="M349.9,235.9c-11.5,0.1-20.8,9.5-20.8,21c0.1,11.5,9.5,20.8,21,20.8c11.5-0.1,20.7-9.3,20.8-20.8
					c0-11.6-9.3-21-20.8-21C350,235.8,349.9,235.8,349.9,235.9"/>
			</g>
			<g class="st17">
				<path class="st2" d="M528,186.2v181.2c-0.1,6-5,10.9-11,11h-8.5c-6-0.1-10.9-5-11-11V186.2c0.1-6,5-10.9,11-11h8.5
					C523,175.3,527.9,180.2,528,186.2 M432,352.3c-13.5,0-21.6-10.3-24-13.9V289c6.5-2.8,13.6-4.3,20.7-4.4c18.8,0,30,12.5,30,33.3
					C458.7,334.6,449.3,352.3,432,352.3 M431.2,254.6c-8,0-15.9,1.3-23.4,3.9v-72.3c-0.1-6-5-10.9-11-11h-8.5c-6,0.1-10.9,5-11,11
					v38.7c0.9,0.8,1.8,1.6,2.6,2.4c16.1,16.2,16.1,42.4-0.1,58.5c-0.8,0.8-1.7,1.6-2.5,2.3v79.4c0.1,6,5,10.9,11,11h5.7
					c4.4-0.1,8.3-2.9,9.8-7.1c8.8,6.3,19.4,9.7,30.2,9.8c30.7,0,55.7-28.5,55.7-63.6C489.6,280.4,465.6,254.5,431.2,254.6
					 M350.4,297.8c5.2,0,10.4-1,15.2-2.9c1,1.7,1.6,3.6,1.6,5.6v66.9c-0.1,6-5,10.9-11,11h-8.5c-6.1-0.1-11-4.9-11-11v-66.8
					c0-1.6,0.4-3.2,1.1-4.7C341.8,297.2,346.1,297.9,350.4,297.8 M326.3,290.9c1.3,6.2,1.9,12.5,1.8,18.8v57.8c-0.1,6-5,10.9-11,11
					h-8.8c-6-0.1-10.9-5-11-11v-57.8c0-25.1-14.1-25.1-18.8-25.1c-14.2,0-25.4,8.7-29.5,12.3v70.6c-0.1,6-5,10.9-11,11h-8.5
					c-6-0.1-10.9-5-11-11v-99.1c0.1-6.1,4.9-10.9,11-11h5.2c4.8-0.2,9,3,10.1,7.7l0.1,0.2c7.3-4.7,19.7-10.6,35.1-10.6
					c9.6,0,20,1.8,28.6,7.6c1.6,11.7,8.1,22.1,17.8,28.7 M155.3,283.2c13.1,0,21.5,9.7,21.5,24.8s-8.4,24.8-21.5,24.8
					c-13.5,0-22.9-10.2-22.9-24.8S141.8,283.2,155.3,283.2 M155.5,433.9c-15.4,0-27-7.3-27-16.9c0-10.1,10.6-14.3,13.4-15.2h29.5
					c13.5,0,15,8.4,15,12C186.4,425.8,170.5,433.9,155.5,433.9 M170.3,372.3h-39.6c-6.8,0-9.2-3.9-9.2-7.6c0-4.5,3.6-7.8,6.1-9.6
					c4.5,2.4,13.1,5.9,26.1,5.9c29.6,0,51.8-22.5,51.8-52.4c0-12.4-3.6-21.2-7.3-26.9l4.8-1c5.2-0.7,8-5.9,8-10.4v-4.7
					c0-6-4.8-11-10.8-11c-0.1,0-0.1,0-0.2,0h-46.2c-29.7,0-52.1,23.2-52.1,54c0.1,9.1,2.4,17.9,6.8,25.9c-6.3,5.2-16.3,16.2-16.3,33
					c0,13.5,6.9,22.5,15,27.6c-7,6.3-11,15.3-10.9,24.7c0,21,18.3,43.6,58.4,43.6c34.5,0,62.5-22.5,62.5-50.2
					c0-25.2-18-40.9-46.9-40.9"/>
				<path class="st2" d="M350.4,235.6c-11.5,0.1-20.8,9.5-20.8,21c0.1,11.5,9.5,20.8,21,20.8c11.5-0.1,20.7-9.3,20.8-20.8
					c0-11.6-9.3-21-20.8-21C350.5,235.6,350.4,235.6,350.4,235.6"/>
			</g>
			<g class="st18">
				<path class="st2" d="M528.5,186v181.2c-0.1,6-5,10.9-11,11H509c-6-0.1-10.9-5-11-11V186c0.1-6,5-10.9,11-11h8.5
					C523.5,175.1,528.4,180,528.5,186 M432.5,352c-13.5,0-21.6-10.3-24-13.9v-49.4c6.5-2.8,13.6-4.3,20.7-4.4
					c18.8,0,30,12.5,30,33.3C459.2,334.3,449.8,352,432.5,352 M431.7,254.3c-8,0-15.9,1.3-23.4,3.9V186c-0.1-6-5-10.9-11-11h-8.5
					c-6,0.1-10.9,5-11,11v38.6c0.9,0.8,1.8,1.6,2.6,2.4c16.1,16.2,16.1,42.4-0.1,58.5c-0.8,0.8-1.7,1.6-2.5,2.3v79.4
					c0.1,6,5,10.9,11,11h5.7c4.4-0.1,8.3-2.9,9.8-7.1c8.8,6.3,19.4,9.7,30.2,9.8c30.7,0,55.7-28.5,55.7-63.6
					C490.1,280.2,466.1,254.3,431.7,254.3 M350.9,297.6c5.2,0,10.4-1,15.2-2.9c1,1.7,1.6,3.6,1.6,5.6v66.9c-0.1,6-5,10.9-11,11h-8.5
					c-6.1-0.1-11-4.9-11-11v-66.8c0-1.6,0.4-3.2,1.1-4.7C342.3,297,346.6,297.6,350.9,297.6 M326.8,290.6c1.3,6.2,1.9,12.5,1.8,18.8
					v57.8c-0.1,6-5,10.9-11,11h-8.8c-6-0.1-10.9-5-11-11v-57.8c0-25.1-14.1-25.1-18.8-25.1c-14.2,0-25.4,8.7-29.5,12.3v70.6
					c-0.1,6-5,10.9-11,11h-8.5c-6-0.1-10.9-5-11-11v-99.1c0.1-6.1,4.9-10.9,11-11h5.2c4.8-0.2,9,3,10.1,7.7l0.1,0.2
					c7.3-4.7,19.7-10.6,35.1-10.6c9.6,0,20,1.8,28.6,7.6c1.6,11.7,8.1,22.1,17.8,28.7 M155.6,283c13.1,0,21.5,9.7,21.5,24.8
					s-8.4,24.8-21.5,24.8c-13.5,0-22.9-10.2-22.9-24.8S142.1,283,155.6,283 M155.9,433.7c-15.4,0-27-7.3-27-16.9
					c0-10.1,10.6-14.3,13.4-15.2h29.5c13.5,0,15,8.4,15,12C186.7,425.6,170.8,433.7,155.9,433.7 M170.6,372h-39.4
					c-6.8,0-9.2-3.9-9.2-7.6c0-4.5,3.6-7.8,6.1-9.6c4.5,2.4,13.1,5.9,26.1,5.9c29.6,0,51.8-22.5,51.8-52.4c0-12.4-3.6-21.2-7.3-26.9
					l4.8-1c5.2-0.7,8-5.9,8-10.4v-4.6c0-6-4.8-11-10.8-11c-0.1,0-0.1,0-0.2,0h-46.2c-29.7,0-52.1,23.2-52.1,54
					c0.1,9.1,2.4,17.9,6.8,25.9c-6.3,5.2-16.3,16.2-16.3,33c0,13.5,6.9,22.5,15,27.6c-7,6.3-11,15.3-10.9,24.7
					c0,21,18.3,43.6,58.4,43.6c34.5,0,62.5-22.5,62.5-50.2C217.5,387.7,199.5,372,170.6,372"/>
				<path class="st2" d="M350.9,235.4c-11.5,0.1-20.8,9.5-20.8,21c0.1,11.5,9.5,20.8,21,20.8c11.5-0.1,20.7-9.3,20.8-20.8
					c0-11.6-9.3-21-20.8-21C351,235.4,350.9,235.4,350.9,235.4"/>
			</g>
			<g class="st19">
				<path class="st2" d="M529,185.8V367c-0.1,6-5,10.9-11,11h-8.5c-6-0.1-10.9-5-11-11V185.8c0.1-6,5-10.9,11-11h8.5
					C524,174.9,528.9,179.7,529,185.8 M433,351.8c-13.5,0-21.6-10.3-24-13.9v-49.4c6.5-2.8,13.6-4.3,20.7-4.4
					c18.8,0,30,12.5,30,33.3C459.7,334.1,450.3,351.8,433,351.8 M432.2,254.1c-8,0-15.9,1.3-23.4,3.9v-72.2c-0.1-6-5-10.9-11-11
					h-8.5c-6,0.1-10.9,5-11,11v38.6c0.9,0.8,1.8,1.6,2.6,2.4c16.1,16.2,16.1,42.4-0.1,58.5c-0.8,0.8-1.7,1.6-2.5,2.3V367
					c0.1,6,5,10.9,11,11h5.7c4.4-0.1,8.3-2.9,9.8-7.1c8.8,6.3,19.4,9.7,30.2,9.8c30.7,0,55.7-28.5,55.7-63.6
					C490.6,280,466.6,254.1,432.2,254.1 M351.4,297.4c5.2,0,10.4-1,15.2-2.9c1,1.7,1.6,3.6,1.6,5.6V367c-0.1,6-5,10.9-11,11h-8.5
					c-6.1-0.1-11-4.9-11-11v-66.9c0-1.6,0.4-3.2,1.1-4.7C342.9,296.7,347.2,297.4,351.4,297.4 M327.4,290.4
					c1.3,6.2,1.9,12.5,1.8,18.8V367c-0.1,6-5,10.9-11,11h-8.8c-6-0.1-10.9-5-11-11v-57.8c0-25.1-14.1-25.1-18.8-25.1
					c-14.2,0-25.4,8.7-29.5,12.3V367c-0.1,6-5,10.9-11,11h-8.5c-6-0.1-10.9-5-11-11v-99.1c0.1-6.1,4.9-10.9,11-11h5.2
					c4.8-0.2,9,3,10.1,7.7l0.1,0.2c7.3-4.7,19.7-10.6,35.1-10.6c9.6,0,20,1.8,28.6,7.6c1.6,11.7,8.1,22.1,17.8,28.7 M156.1,282.8
					c13.1,0,21.5,9.7,21.5,24.8s-8.4,24.8-21.5,24.8c-13.5,0-22.9-10.2-22.9-24.8S142.6,282.8,156.1,282.8 M156.4,433.4
					c-15.4,0-27-7.3-27-16.9c0-10.1,10.6-14.3,13.4-15.2h29.5c13.5,0,15,8.4,15,12C187.3,425.4,171.3,433.5,156.4,433.4
					 M171.2,371.9h-39.4c-6.8,0-9.2-3.9-9.2-7.6c0-4.5,3.6-7.8,6.1-9.6c4.5,2.4,13.1,5.9,26.1,5.9c29.6,0,51.8-22.5,51.8-52.4
					c0-12.4-3.6-21.2-7.3-26.9l4.8-1c5.2-0.7,8-5.9,8-10.4v-4.6c0-6-4.8-11-10.8-11c-0.1,0-0.1,0-0.2,0h-46.2
					c-29.7,0-52.1,23.2-52.1,54c0.1,9,2.4,17.9,6.8,25.8c-6.3,5.2-16.4,16.2-16.4,33c0,13.5,6.9,22.5,15,27.6
					c-7,6.3-11,15.3-10.9,24.7c0,21,18.3,43.6,58.4,43.6c34.5,0,62.5-22.5,62.5-50.2C218,387.5,200,371.8,171.2,371.9"/>
				<path class="st2" d="M351.4,235.2c-11.5,0.1-20.8,9.5-20.8,21c0.1,11.5,9.5,20.8,21,20.8c11.5-0.1,20.7-9.3,20.8-20.8
					c0-11.6-9.3-21-20.8-21C351.5,235.2,351.4,235.2,351.4,235.2"/>
			</g>
			<g class="st20">
				<path class="st2" d="M529.5,185.5v181.2c-0.1,6-5,10.9-11,11H510c-6-0.1-10.9-5-11-11V185.5c0.1-6,5-10.9,11-11h8.5
					C524.5,174.6,529.4,179.5,529.5,185.5 M433.5,351.6c-13.5,0-21.6-10.3-24-13.9v-49.4c6.5-2.8,13.6-4.3,20.7-4.4
					c18.8,0,30,12.5,30,33.3C460.2,333.9,450.8,351.6,433.5,351.6 M432.6,253.9c-8,0-15.9,1.3-23.4,3.9v-72.3c-0.1-6-5-10.9-11-11
					h-8.5c-6,0.1-10.9,5-11,11v38.7c0.9,0.8,1.8,1.6,2.6,2.4c16.1,16.2,16.1,42.4-0.1,58.5c-0.8,0.8-1.7,1.6-2.5,2.3v79.4
					c0.1,6,5,10.9,11,11h5.7c4.4-0.1,8.3-2.9,9.8-7.1c8.8,6.3,19.4,9.7,30.2,9.8c30.7,0,55.7-28.5,55.7-63.6
					C491.1,279.7,467.1,253.8,432.6,253.9 M351.9,297.1c5.2,0,10.4-1,15.2-2.9c1,1.7,1.6,3.6,1.6,5.6v66.9c-0.1,6-5,10.9-11,11h-8.5
					c-6.1-0.1-11-4.9-11-11v-66.8c0-1.6,0.4-3.2,1.1-4.7C343.3,296.5,347.6,297.2,351.9,297.1 M327.8,290.2
					c1.3,6.2,1.9,12.5,1.8,18.8v57.8c-0.1,6-5,10.9-11,11h-8.8c-6-0.1-10.9-5-11-11V309c0-25.1-14.1-25.1-18.8-25.1
					c-14.2,0-25.4,8.7-29.5,12.3v70.6c-0.1,6-5,10.9-11,11h-8.5c-6-0.1-10.9-5-11-11v-99.1c0.1-6.1,4.9-10.9,11-11h5.2
					c4.8-0.2,9,3,10.1,7.7l0.1,0.2c7.3-4.7,19.7-10.6,35.1-10.6c9.6,0,20,1.8,28.6,7.6c1.6,11.7,8.1,22.1,17.8,28.7 M156.7,282.5
					c13.1,0,21.5,9.7,21.5,24.8s-8.4,24.8-21.5,24.8c-13.5,0-22.9-10.2-22.9-24.8S143.3,282.5,156.7,282.5 M157,433.2
					c-15.4,0-27-7.3-27-16.9c0-10.1,10.6-14.3,13.4-15.2h29.5c13.5,0,15,8.4,15,12C187.9,425.1,172,433.2,157,433.2 M171.8,371.6
					h-39.6c-6.8,0-9.2-3.9-9.2-7.6c0-4.5,3.6-7.8,6.1-9.6c4.5,2.4,13.1,5.9,26.1,5.9c29.6,0,51.8-22.5,51.8-52.4
					c0-12.4-3.6-21.2-7.3-26.9l4.8-1c5.2-0.7,8-5.9,8-10.4V265c0-6-4.8-11-10.8-11c-0.1,0-0.1,0-0.2,0h-46.2
					c-29.7,0-52.1,23.2-52.1,54c0.1,9,2.4,17.9,6.8,25.9c-6.3,5.2-16.3,16.2-16.3,33c0,13.5,6.9,22.5,15,27.6
					c-7,6.3-10.9,15.2-10.9,24.6c0,21,18.3,43.6,58.4,43.6c34.5,0,62.5-22.5,62.5-50.2c0-25.2-18-40.9-46.9-40.9"/>
				<path class="st2" d="M351.9,234.9c-11.5,0.1-20.8,9.5-20.8,21c0.1,11.5,9.5,20.8,21,20.8c11.5-0.1,20.7-9.3,20.8-20.8
					c0-11.6-9.3-21-20.8-21C352,234.9,352,234.9,351.9,234.9"/>
			</g>
			<g class="st21">
				<path class="st2" d="M530,185.3v181.2c-0.1,6-5,10.9-11,11h-8.5c-6-0.1-10.9-5-11-11V185.3c0.1-6,5-10.9,11-11h8.5
					C525,174.4,529.9,179.3,530,185.3 M434,351.4c-13.5,0-21.6-10.3-24-13.9v-49.4c6.5-2.8,13.6-4.3,20.7-4.4
					c18.8,0,30,12.5,30,33.3C460.7,333.6,451.3,351.4,434,351.4 M433.1,253.6c-8,0-15.9,1.3-23.4,3.9v-72.3c-0.1-6-5-10.9-11-11
					h-8.5c-6,0.1-10.9,5-11,11v38.7c0.9,0.8,1.8,1.6,2.6,2.4c16.1,16.2,16.1,42.4-0.1,58.5c-0.8,0.8-1.7,1.6-2.5,2.3v79.4
					c0.1,6,5,10.9,11,11h5.8c4.4-0.1,8.3-2.9,9.8-7.1c8.8,6.3,19.4,9.7,30.2,9.8c30.7,0,55.7-28.5,55.7-63.6
					C491.6,279.5,467.6,253.6,433.1,253.6 M352.4,296.9c5.2,0,10.4-1,15.2-2.9c1,1.7,1.6,3.6,1.6,5.6v66.9c-0.1,6-5,10.9-11,11h-8.5
					c-6.1-0.1-11-4.9-11-11v-66.8c0-1.6,0.4-3.2,1.1-4.7C343.9,296.3,348.2,296.9,352.4,296.9 M328.4,289.9
					c1.3,6.2,1.9,12.5,1.8,18.8v57.8c-0.1,6-5,10.9-11,11h-8.9c-6-0.1-10.9-5-11-11v-57.8c0-25.1-14.1-25.1-18.8-25.1
					c-14.2,0-25.4,8.7-29.5,12.3v70.6c-0.1,6-5,10.9-11,11h-8.5c-6-0.1-10.9-5-11-11v-99.1c0.1-6.1,4.9-10.9,11-11h5.2
					c4.8-0.2,9,3,10.1,7.7l0.1,0.2c7.3-4.7,19.7-10.6,35.1-10.6c9.6,0,20,1.8,28.6,7.6C312.1,272.9,318.6,283.3,328.4,289.9
					 M157.2,282.3c13.1,0,21.5,9.7,21.5,24.8s-8.4,24.8-21.5,24.8c-13.5,0-22.9-10.2-22.9-24.8S143.7,282.3,157.2,282.3 M157.4,433
					c-15.4,0-27-7.3-27-16.9c0-10.1,10.6-14.3,13.4-15.2h29.5c13.5,0,15,8.4,15,12C188.3,424.9,172.3,433.1,157.4,433 M172.2,371.5
					h-39.4c-6.8,0-9.2-3.9-9.2-7.6c0-4.5,3.6-7.8,6.1-9.6c4.5,2.4,13.1,5.9,26.1,5.9c29.6,0,51.8-22.5,51.8-52.4
					c0-12.4-3.6-21.2-7.3-26.9l4.8-1c5.2-0.7,8-5.9,8-10.4v-4.6c0-6-4.8-11-10.8-11c-0.1,0-0.1,0-0.2,0h-46.2
					c-29.7,0-52.1,23.2-52.1,54c0.1,9,2.4,17.9,6.8,25.9c-6.3,5.2-16.3,16.2-16.3,33c0,13.4,7,22.4,15,27.5
					c-7,6.3-11,15.3-10.9,24.7c0,21,18.3,43.6,58.4,43.6c34.5,0,62.5-22.5,62.5-50.2c0-25.2-18-40.9-46.9-40.9"/>
				<path class="st2" d="M352.4,234.7c-11.5,0.1-20.8,9.5-20.8,21s9.5,20.8,21,20.8c11.5-0.1,20.7-9.3,20.8-20.8
					c0-11.6-9.3-21-20.8-21C352.5,234.7,352.5,234.7,352.4,234.7"/>
			</g>
			<g class="st22">
				<path class="st2" d="M530.5,185.1v181.2c-0.1,6-5,10.9-11,11H511c-6-0.1-10.9-5-11-11V185.1c0.1-6,5-10.9,11-11h8.5
					C525.5,174.2,530.4,179,530.5,185.1 M434.5,351.1c-13.5,0-21.6-10.3-24-13.9v-49.4c6.5-2.8,13.6-4.3,20.7-4.4
					c18.8,0,30,12.5,30,33.3C461.2,333.4,451.8,351.1,434.5,351.1 M433.6,253.4c-8,0-15.9,1.3-23.4,3.9v-72.3c-0.1-6-5-10.9-11-11
					h-8.5c-6,0.1-10.9,5-11,11v38.6c0.9,0.8,1.8,1.6,2.6,2.4c16.1,16.2,16.1,42.4-0.1,58.5c-0.8,0.8-1.7,1.6-2.5,2.3v79.4
					c0.1,6,5,10.9,11,11h5.7c4.4-0.1,8.3-2.9,9.8-7.1c8.8,6.3,19.4,9.7,30.2,9.8c30.7,0,55.7-28.5,55.7-63.6
					C492.1,279.3,468.1,253.3,433.6,253.4 M352.9,296.6c5.2,0,10.4-1,15.2-2.9c1,1.7,1.6,3.6,1.6,5.6v66.9c-0.1,6-5,10.9-11,11h-8.5
					c-6.1-0.1-11-4.9-11-11v-66.8c0-1.6,0.4-3.2,1.1-4.7C344.3,296,348.6,296.7,352.9,296.6 M328.8,289.7c1.3,6.2,1.9,12.5,1.8,18.8
					v57.8c-0.1,6-5,10.9-11,11h-8.8c-6-0.1-10.9-5-11-11v-57.8c0-25.1-14.1-25.1-18.8-25.1c-14.2,0-25.4,8.7-29.5,12.3v70.6
					c-0.1,6-5,10.9-11,11H232c-6-0.1-10.9-5-11-11v-99.1c0.1-6.1,4.9-10.9,11-11h5.2c4.8-0.2,9,3,10.1,7.7l0.1,0.2
					c7.3-4.7,19.6-10.6,35.1-10.6c9.6,0,20,1.8,28.6,7.6C312.6,272.7,319.1,283.1,328.8,289.7 M157.7,282c13.1,0,21.5,9.7,21.5,24.8
					s-8.4,24.8-21.5,24.8c-13.5,0-22.9-10.2-22.9-24.8S144.2,282,157.7,282 M157.9,432.7c-15.4,0-27-7.3-27-16.9
					c0-10.1,10.6-14.3,13.4-15.2h29.5c13.5,0,15,8.4,15,12C188.8,424.6,172.9,432.8,157.9,432.7 M172.7,371.2h-39.5
					c-6.8,0-9.2-3.9-9.2-7.6c0-4.5,3.6-7.8,6.1-9.6c4.5,2.4,13.1,5.9,26.1,5.9c29.6,0,51.8-22.5,51.8-52.4c0-12.4-3.6-21.2-7.3-26.9
					l4.8-1c5.2-0.7,8-5.9,8-10.4v-4.6c0-6-4.8-11-10.8-11c-0.1,0-0.1,0-0.2,0h-46.2c-29.7,0-52.1,23.2-52.1,54
					c0.1,9,2.4,17.9,6.8,25.9c-6.3,5.2-16.3,16.2-16.3,33c0,13.5,6.9,22.5,15,27.6c-7,6.3-11,15.3-10.9,24.7
					c0,21,18.3,43.6,58.4,43.6c34.5,0,62.5-22.5,62.5-50.2C219.6,386.8,201.6,371.2,172.7,371.2"/>
				<path class="st2" d="M352.9,234.5c-11.5,0.1-20.8,9.5-20.8,21s9.5,20.8,21,20.8c11.5-0.1,20.7-9.3,20.8-20.8
					c0-11.6-9.3-21-20.8-21C353,234.5,353,234.5,352.9,234.5"/>
			</g>
			<g class="st23">
				<path class="st2" d="M531.1,184.8v181.2c-0.1,6-5,10.9-11,11h-8.5c-6-0.1-10.9-5-11-11V184.8c0.1-6,5-10.9,11-11h8.4
					C526,173.9,530.9,178.8,531.1,184.8 M435,350.9c-13.5,0-21.6-10.3-24-13.9v-49.4c6.5-2.8,13.6-4.3,20.7-4.4
					c18.8,0,30,12.5,30,33.3C461.7,333.2,452.3,350.9,435,350.9 M434.1,253.2c-8,0-15.9,1.3-23.4,3.9v-72.3c-0.1-6-5-10.9-11-11
					h-8.5c-6,0.1-10.9,5-11,11v38.7c0.9,0.8,1.8,1.6,2.6,2.4c16.1,16.2,16.1,42.4-0.1,58.5c-0.8,0.8-1.7,1.6-2.5,2.3v79.4
					c0.1,6,5,10.9,11,11h5.8c4.4-0.1,8.3-2.9,9.8-7.1c8.8,6.3,19.4,9.7,30.2,9.8c30.7,0,55.7-28.5,55.7-63.6
					C492.6,279,468.6,253.1,434.1,253.2 M353.4,296.4c5.2,0,10.4-1,15.2-2.9c1,1.7,1.6,3.6,1.6,5.6V366c-0.1,6-5,10.9-11,11h-8.5
					c-6.1-0.1-11-4.9-11-11v-66.8c0-1.6,0.4-3.2,1.1-4.7C344.9,295.8,349.2,296.5,353.4,296.4 M329.4,289.5
					c1.3,6.2,1.9,12.5,1.8,18.8v57.8c-0.1,6-5,10.9-11,11h-8.8c-6-0.1-10.9-5-11-11v-57.8c0-25.1-14.1-25.1-18.8-25.1
					c-14.2,0-25.5,8.7-29.5,12.3v70.6c-0.1,6-5,10.9-11,11h-8.5c-6-0.1-10.9-5-11-11V267c0.1-6.1,4.9-10.9,11-11.1h5.2
					c4.8-0.2,9,3,10.1,7.7l0.1,0.2c7.3-4.7,19.6-10.6,35.1-10.6c9.6,0,20,1.8,28.6,7.6c1.6,11.7,8.1,22.1,17.8,28.7 M158.3,281.9
					c13.1,0,21.5,9.7,21.5,24.8s-8.4,24.8-21.5,24.8c-13.5,0-22.9-10.2-22.9-24.8S144.8,281.9,158.3,281.9 M158.6,432.5
					c-15.4,0-27-7.3-27-16.9c0-10.1,10.6-14.3,13.4-15.2h29.3c13.5,0,15,8.4,15,12c0,12.1-15.9,20.2-30.8,20.2 M173.2,371h-39.5
					c-6.8,0-9.2-3.9-9.2-7.6c0-4.5,3.6-7.8,6.1-9.6c4.5,2.4,13.1,5.9,26.1,5.9c29.6,0,51.8-22.5,51.8-52.4c0-12.4-3.6-21.2-7.3-26.9
					l4.8-1c5.2-0.7,8-5.9,8-10.4v-4.6c0-6-4.8-11-10.8-11c-0.1,0-0.1,0-0.2,0h-46.2c-29.7,0-52.1,23.2-52.1,54
					c0.1,9,2.4,17.9,6.8,25.9c-6.3,5.2-16.3,16.2-16.3,33c0,13.5,6.9,22.5,15,27.6c-7,6.3-11,15.3-10.9,24.7
					c0,21,18.3,43.6,58.4,43.6c34.5,0,62.5-22.5,62.5-50.2C220.1,386.6,202.1,371,173.2,371"/>
				<path class="st2" d="M353.4,234.2c-11.5,0.1-20.8,9.5-20.8,21c0.1,11.5,9.5,20.8,21,20.8c11.5-0.1,20.7-9.3,20.8-20.8
					c0-11.6-9.3-21-20.8-21C353.5,234.2,353.5,234.2,353.4,234.2"/>
			</g>
			<g class="st24">
				<path class="st2" d="M531.6,184.6v181.2c-0.1,6-5,10.9-11,11H512c-6-0.1-10.9-5-11-11V184.6c0.1-6,5-10.9,11-11h8.5
					C526.5,173.7,531.4,178.6,531.6,184.6 M435.5,350.7c-13.5,0-21.6-10.3-24-13.9v-49.4c6.6-2.8,13.6-4.3,20.8-4.4
					c18.8,0,30,12.5,30,33.3C462.3,333,452.9,350.7,435.5,350.7 M434.8,253c-8,0-15.9,1.3-23.4,3.9v-72.3c-0.1-6-5-10.9-11-11h-8.5
					c-6,0.1-10.9,5-11,11v38.7c0.9,0.8,1.8,1.6,2.6,2.4c16.1,16.2,16.1,42.4-0.1,58.5c-0.8,0.8-1.7,1.6-2.5,2.3v79.4
					c0.1,6,5,10.9,11,11h5.7c4.4-0.1,8.3-2.9,9.8-7.1c8.8,6.3,19.4,9.7,30.2,9.8c30.7,0,55.7-28.5,55.7-63.6
					c0-37.1-24-63.1-58.4-63.1 M354,296.2c5.2,0,10.4-1,15.2-2.9c1,1.7,1.6,3.6,1.6,5.6v66.9c-0.1,6-5,10.9-11,11h-8.5
					c-6.1-0.1-11-4.9-11-11V299c0-1.6,0.4-3.2,1.1-4.7c4.1,1.3,8.4,2,12.7,2 M329.9,289.3c1.3,6.2,1.9,12.5,1.8,18.8v57.8
					c-0.1,6-5,10.9-11,11H312c-6-0.1-10.9-5-11-11v-57.8c-0.2-25.1-14.3-25.1-19-25.1c-14.2,0-25.5,8.7-29.5,12.3v70.6
					c-0.1,6-5,10.9-11,11H233c-6-0.1-10.9-5-11-11v-99.1c0.1-6.1,4.9-10.9,11-11.1h5.2c4.8-0.2,9,3,10.1,7.7l0.1,0.2
					c7.3-4.7,19.7-10.6,35.1-10.6c9.6,0,20,1.8,28.6,7.6C313.6,272.3,320.1,282.7,329.9,289.3 M158.7,281.6
					c13.1,0,21.5,9.7,21.5,24.8s-8.4,24.8-21.5,24.8c-13.5,0-22.9-10.2-22.9-24.8S145.2,281.6,158.7,281.6 M158.9,432.3
					c-15.4,0-27-7.3-27-16.9c0-10.1,10.6-14.3,13.4-15.2h29.5c13.5,0,15,8.4,15,12C189.8,424.2,173.9,432.4,158.9,432.3
					 M173.7,370.8h-39.5c-6.8,0-9.2-3.9-9.2-7.6c0-4.5,3.6-7.8,6.1-9.6c4.5,2.4,13.1,5.9,26.1,5.9c29.6,0,51.8-22.5,51.8-52.4
					c0-12.4-3.6-21.2-7.3-26.9l4.8-1c5.2-0.7,8-5.9,8-10.4V264c0-6-4.8-11-10.8-11c-0.1,0-0.1,0-0.2,0h-46.2
					c-29.7,0-52.1,23.2-52.1,54c0.1,9,2.4,17.9,6.8,25.9c-6.3,5.2-16.3,16.2-16.3,33c0,13.5,6.9,22.5,15,27.6
					c-7,6.3-11,15.3-10.9,24.7c0,21,18.3,43.6,58.4,43.6c34.5,0,62.5-22.5,62.5-50.2C220.6,386.4,202.6,370.7,173.7,370.8"/>
				<path class="st2" d="M353.9,234c-11.5,0.1-20.8,9.5-20.8,21c0.1,11.5,9.5,20.8,21,20.8c11.5-0.1,20.7-9.3,20.8-20.8
					c0-11.6-9.3-21-20.8-21C354,234,354,234,353.9,234"/>
			</g>
			<g class="st25">
				<path class="st2" d="M532.1,184.4v181.2c-0.1,6-5,10.9-11,11h-8.5c-6-0.1-10.9-5-11-11V184.4c0.1-6,5-10.9,11-11h8.4
					C527,173.5,531.9,178.3,532.1,184.4 M436,350.5c-13.5,0-21.6-10.3-24-13.9v-49.4c6.5-2.8,13.6-4.3,20.7-4.4
					c18.8,0,30,12.5,30,33.3C462.7,332.7,453.3,350.5,436,350.5 M435.1,252.7c-8,0-15.9,1.3-23.4,3.9v-72.3c-0.1-6-5-10.9-11-11
					h-8.5c-6,0.1-10.9,5-11,11V223c0.9,0.8,1.8,1.6,2.6,2.4c16.1,16.2,16.1,42.4-0.1,58.5c-0.8,0.8-1.7,1.6-2.5,2.3v79.4
					c0.1,6,5,10.9,11,11h5.8c4.4-0.1,8.3-2.9,9.8-7.1c8.8,6.3,19.4,9.7,30.2,9.8c30.7,0,55.7-28.5,55.7-63.6
					C493.6,278.6,469.6,252.7,435.1,252.7 M354.5,296c5.2,0,10.4-1,15.2-2.9c1,1.7,1.6,3.6,1.6,5.6v66.9c-0.1,6-5,10.9-11,11h-8.5
					c-6.1-0.1-11-4.9-11-11v-66.9c0-1.6,0.4-3.2,1.1-4.7C345.9,295.4,350.1,296,354.5,296 M330.3,289c1.3,6.2,1.9,12.5,1.8,18.8
					v57.7c-0.1,6-5,10.9-11,11h-8.8c-6-0.1-10.9-5-11-11v-57.8c0-25.1-14.1-25.1-18.8-25.1c-14.2,0-25.5,8.7-29.5,12.3v70.6
					c-0.1,6-5,10.9-11,11h-8.6c-6-0.1-10.9-5-11-11v-99.1c0.1-6.1,4.9-10.9,11-11.1h5.2c4.8-0.2,9,3,10.1,7.7l0.1,0.2
					c7.3-4.7,19.7-10.6,35.1-10.6c9.6,0,20,1.8,28.6,7.6C314.1,272,320.6,282.4,330.3,289 M159.2,281.4c13.1,0,21.5,9.7,21.5,24.8
					s-8.4,24.8-21.5,24.8c-13.5,0-22.9-10.2-22.9-24.8S145.7,281.4,159.2,281.4 M159.4,432c-15.4,0-27-7.3-27-16.9
					c0-10.1,10.6-14.3,13.4-15.2h29.5c13.5,0,15,8.4,15,12C190.3,423.9,174.4,432.1,159.4,432 M174.2,370.5h-39.5
					c-6.8,0-9.2-3.9-9.2-7.6c0-4.5,3.6-7.8,6.1-9.6c4.5,2.4,13.1,5.9,26.1,5.9c29.6,0,51.8-22.5,51.8-52.4c0-12.4-3.6-21.2-7.3-26.9
					l4.8-1c5.2-0.7,8-5.9,8-10.4v-4.6c0-6-4.8-11-10.8-11c-0.1,0-0.1,0-0.2,0h-46.2c-29.7,0-52.1,23.2-52.1,54
					c0.1,9,2.4,17.9,6.8,25.9c-6.3,5.2-16.3,16.2-16.3,33c0,13.5,6.9,22.5,15,27.6c-7,6.3-11,15.3-10.9,24.7
					c0,21,18.3,43.6,58.4,43.6c34.5,0,62.5-22.5,62.5-50.2C221.1,386.1,203.1,370.4,174.2,370.5"/>
				<path class="st2" d="M354.5,233.8c-11.5,0.1-20.8,9.5-20.8,21s9.5,20.8,21,20.8c11.5-0.1,20.7-9.3,20.8-20.8
					c0-11.6-9.3-21-20.8-21C354.6,233.8,354.5,233.8,354.5,233.8"/>
			</g>
			<g class="st26">
				<path class="st2" d="M532.6,184.1v181.2c-0.1,6-5,10.9-11,11h-8.5c-6-0.1-10.9-5-11-11V184.1c0.1-6,5-10.9,11-11h8.5
					C527.6,173.3,532.5,178.1,532.6,184.1 M436.6,350.2c-13.5,0-21.6-10.3-24-13.9v-49.4c6.5-2.8,13.6-4.3,20.7-4.4
					c18.8,0,30,12.5,30,33.3C463.3,332.5,453.9,350.2,436.6,350.2 M435.7,252.5c-8,0-15.9,1.3-23.4,3.9v-72.3c-0.1-6-5-10.9-11-11
					h-8.5c-6,0.1-10.9,5-11,11v38.7c0.9,0.8,1.8,1.6,2.6,2.4c16.1,16.2,16,42.4-0.2,58.5c-0.8,0.8-1.7,1.6-2.5,2.3v79.4
					c0.1,6,5,10.9,11,11h5.7c4.4-0.1,8.3-2.9,9.8-7.1c8.8,6.3,19.4,9.7,30.2,9.8c30.7,0,55.7-28.5,55.7-63.6
					C494.1,278.3,470.1,252.4,435.7,252.5 M355,295.8c5.2,0,10.4-1,15.2-2.9c1,1.7,1.6,3.6,1.6,5.6v66.9c-0.1,6-5,10.9-11,11h-8.5
					c-6.1-0.1-11-4.9-11-11v-66.9c0-1.6,0.4-3.2,1.1-4.7C346.4,295.1,350.7,295.8,355,295.8 M330.9,288.8c1.3,6.2,1.9,12.5,1.8,18.8
					v57.8c-0.1,6-5,10.9-11,11H313c-6-0.1-10.9-5-11-11v-57.8c0-25.1-14.1-25.1-18.8-25.1c-14.2,0-25.5,8.7-29.5,12.3v70.6
					c-0.1,6.1-5,10.9-11.1,11H234c-6-0.1-10.9-5-11-11v-99.1c0.1-6.1,4.9-10.9,11-11.1h5.2c4.8-0.2,9,3,10.1,7.7l0.1,0.2
					c7.3-4.7,19.7-10.6,35.1-10.6c9.6,0,20,1.8,28.6,7.6C314.6,271.8,321.1,282.2,330.9,288.8 M159.7,281.1
					c13.1,0,21.5,9.7,21.5,24.8s-8.4,24.8-21.5,24.8c-13.5,0-22.9-10.2-22.9-24.8S146.2,281.1,159.7,281.1 M160,431.8
					c-15.4,0-27-7.3-27-16.9c0-10.1,10.6-14.3,13.4-15.2h29.5c13.5,0,15,8.4,15,12C190.9,423.7,174.9,431.9,160,431.8 M174.8,370.2
					h-39.5c-6.8,0-9.2-3.9-9.2-7.6c0-4.5,3.6-7.8,6.1-9.6c4.5,2.4,13.1,5.9,26.1,5.9c29.6,0,51.8-22.5,51.8-52.4
					c0-12.4-3.6-21.2-7.3-26.9l4.8-1c5.2-0.7,8-5.9,8-10.4v-4.6c0-6-4.8-11-10.8-11c-0.1,0-0.1,0-0.2,0h-46.2
					c-29.7,0-52.1,23.2-52.1,54c0.1,9,2.4,17.9,6.8,25.9c-6.3,5.2-16.3,16.2-16.3,33c0,13.5,6.9,22.5,15,27.6
					c-7,6.3-11,15.3-10.9,24.7c0,21,18.3,43.6,58.4,43.6c34.5,0,62.5-22.5,62.5-50.2C221.6,385.9,203.6,370.2,174.8,370.2"/>
				<path class="st2" d="M355,233.6c-11.5,0.1-20.8,9.5-20.8,21c0.1,11.5,9.5,20.8,21,20.8c11.5-0.1,20.7-9.3,20.8-20.8
					c0-11.6-9.3-21-20.8-21C355.1,233.6,355.1,233.6,355,233.6"/>
			</g>
			<g class="st27">
				<path class="st2" d="M533.1,183.9v181.2c-0.1,6-5,10.9-11,11h-8.5c-6-0.1-10.9-5-11-11V183.9c0.1-6,5-10.9,11-11h8.5
					C528.1,173,533,177.9,533.1,183.9 M437.1,350c-13.5,0-21.6-10.3-24-13.9v-49.4c6.5-2.8,13.6-4.3,20.7-4.4
					c18.8,0,30,12.5,30,33.3C463.8,332.3,454.4,350,437.1,350 M436.2,252.3c-8,0-15.9,1.3-23.4,3.9v-72.3c-0.1-6-5-10.9-11-11h-8.5
					c-6,0.1-10.9,5-11,11v38.7c0.9,0.8,1.8,1.6,2.6,2.4c16.1,16.2,16.1,42.4-0.1,58.5c-0.8,0.8-1.7,1.6-2.5,2.3v79.4
					c0.1,6,5,10.9,11,11h5.7c4.4-0.1,8.3-2.9,9.8-7.1c8.8,6.3,19.4,9.7,30.2,9.8c30.7,0,55.7-28.5,55.7-63.6
					C494.6,278.1,470.6,252.2,436.2,252.3 M355.4,295.5c5.2,0,10.4-1,15.2-2.9c1,1.7,1.6,3.6,1.6,5.6v66.9c-0.1,6-5,10.9-11,11h-8.5
					c-6.1-0.1-11-4.9-11-11v-66.8c0-1.6,0.4-3.2,1.1-4.7C346.9,294.9,351.2,295.6,355.4,295.5 M331.3,288.6
					c1.3,6.2,1.9,12.5,1.8,18.8v57.8c-0.1,6-5,10.9-11,11h-8.8c-6-0.1-10.9-5-11-11v-57.8c0-25.1-14.1-25.1-18.8-25.1
					c-14.2,0-25.5,8.7-29.5,12.3v70.6c-0.1,6.1-5,10.9-11.1,11h-8.5c-6-0.1-10.9-5-11-11V266c0.1-6.1,4.9-10.9,11-11.1h5.2
					c4.8-0.2,9,3,10.1,7.7l0.1,0.2c7.3-4.7,19.7-10.6,35.1-10.6c9.6,0,20,1.8,28.6,7.6C315.2,271.5,321.7,281.9,331.3,288.6
					 M160.3,280.9c13.1,0,21.5,9.7,21.5,24.8s-8.4,24.8-21.5,24.8c-13.5,0-22.9-10.2-22.9-24.8S146.8,280.9,160.3,280.9
					 M160.5,431.5c-15.4,0-27-7.3-27-16.9c0-10.1,10.6-14.3,13.4-15.2h29.5c13.5,0,15,8.4,15,12
					C191.4,423.5,175.5,431.6,160.5,431.5 M175.2,370h-39.4c-6.8,0-9.2-3.9-9.2-7.6c0-4.5,3.6-7.8,6.1-9.6
					c4.5,2.4,13.1,5.9,26.1,5.9c29.6,0,51.8-22.5,51.8-52.4c0-12.4-3.6-21.2-7.3-26.9l4.8-1c5.2-0.7,8-5.9,8-10.4v-4.7
					c0-6-4.8-11-10.8-11c-0.1,0-0.1,0-0.2,0h-46.2c-29.7,0-52.1,23.2-52.1,54c0.1,9,2.4,17.9,6.8,25.9c-6.3,5.2-16.3,16.2-16.3,33
					c0,13.5,6.9,22.5,15,27.6c-7,6.3-11,15.3-10.9,24.7c0,21,18.3,43.6,58.4,43.6c34.5,0,62.5-22.5,62.5-50.2
					C222.1,385.7,204.1,370,175.2,370"/>
				<path class="st2" d="M355.5,233.3c-11.5,0.1-20.8,9.5-20.8,21s9.5,20.8,21,20.8c11.5-0.1,20.7-9.3,20.8-20.8
					c0-11.6-9.3-21-20.8-21C355.6,233.3,355.5,233.3,355.5,233.3"/>
			</g>
			<g class="st28">
				<path class="st2" d="M533.6,183.7v181.2c-0.1,6-5,10.9-11,11h-8.5c-6-0.1-10.9-5-11-11V183.7c0.1-6,5-10.9,11-11h8.5
					C528.7,172.8,533.5,177.7,533.6,183.7 M437.6,349.8c-13.5,0-21.6-10.3-24-13.9v-49.4c6.5-2.8,13.6-4.3,20.7-4.4
					c18.8,0,30,12.5,30,33.3C464.3,332,455,349.8,437.6,349.8 M436.8,252c-8,0-15.9,1.4-23.4,4v-72.3c-0.1-6-5-10.9-11-11h-8.5
					c-6,0.1-10.9,5-11,11v38.6c0.9,0.8,1.8,1.6,2.6,2.4c16.1,16.2,16.1,42.4-0.1,58.5c-0.8,0.8-1.7,1.6-2.5,2.3v79.4
					c0.1,6,5,10.9,11,11h5.7c4.4-0.1,8.3-2.9,9.8-7.1c8.8,6.3,19.4,9.7,30.2,9.8c30.7,0,55.7-28.5,55.7-63.6
					C495.2,277.9,471.2,252,436.8,252 M356,295.3c5.2,0,10.4-1,15.2-2.9c1,1.7,1.6,3.6,1.6,5.6v66.9c-0.1,6-5,10.9-11,11h-8.5
					c-6.1-0.1-11-4.9-11-11V298c0-1.6,0.4-3.2,1.1-4.7C347.4,294.6,351.7,295.3,356,295.3 M331.9,288.3c1.3,6.2,1.9,12.5,1.8,18.8
					v57.8c-0.1,6-5,10.9-11,11H314c-6-0.1-10.9-5-11-11v-57.7c0-25.1-14.1-25.1-18.8-25.1c-14.2,0-25.5,8.7-29.5,12.3v70.6
					c-0.1,6-5,10.9-11.1,11H235c-6-0.1-10.9-5-11-11v-99.1c0.1-6.1,4.9-10.9,11-11.1h5.2c4.8-0.2,9,3,10.1,7.7l0.1,0.2
					c7.3-4.7,19.7-10.7,35.1-10.7c9.6,0,20,1.8,28.6,7.6C315.6,271.3,322.1,281.7,331.9,288.3 M160.7,280.7
					c13.1,0,21.5,9.7,21.5,24.8s-8.4,24.8-21.5,24.8c-13.5,0-22.9-10.2-22.9-24.8S147.2,280.7,160.7,280.7 M161,431.4
					c-15.4,0-27-7.3-27-16.9c0-10.1,10.6-14.3,13.4-15.2h29.5c13.5,0,15,8.4,15,12C191.9,423.3,175.9,431.4,161,431.4 M175.8,369.8
					h-39.5c-6.8,0-9.2-3.9-9.2-7.6c0-4.5,3.6-7.8,6.1-9.6c4.5,2.4,13.1,5.9,26.1,5.9c29.6,0,51.8-22.5,51.8-52.4
					c0-12.4-3.6-21.2-7.3-26.9l4.8-1c5.2-0.7,8-5.9,8-10.4v-4.6c0-6-4.8-11-10.8-11c-0.1,0-0.1,0-0.2,0h-46.2
					c-29.7,0-52.1,23.2-52.1,54c0.1,9,2.4,17.9,6.8,25.8c-6.3,5.2-16.3,16.2-16.3,33c0,13.5,6.9,22.5,15,27.6
					c-7,6.3-11,15.3-10.9,24.7c0,21,18.3,43.6,58.4,43.6c34.5,0,62.5-22.5,62.5-50.2C222.7,385.4,204.7,369.7,175.8,369.8"/>
				<path class="st2" d="M356,233.1c-11.5,0.1-20.8,9.5-20.8,21c0.1,11.5,9.5,20.8,21,20.8c11.5-0.1,20.7-9.3,20.8-20.8
					c0-11.6-9.3-21-20.8-21C356.1,233.1,356.1,233.1,356,233.1"/>
			</g>
			<g class="st29">
				<path class="st2" d="M534.1,183.5v181.2c-0.1,6-5,10.9-11,11h-8.5c-6-0.1-10.9-5-11-11V183.5c0.1-6,5-10.9,11-11h8.5
					C529.2,172.6,534,177.4,534.1,183.5 M438.1,349.5c-13.5,0-21.6-10.3-24-13.9v-49.4c6.5-2.8,13.6-4.3,20.7-4.4
					c18.8,0,30,12.5,30,33.3C464.8,331.8,455.5,349.5,438.1,349.5 M437.3,251.8c-8,0-15.9,1.3-23.4,3.9v-72.3c-0.1-6-5-10.9-11-11
					h-8.5c-6,0.1-10.9,5-11,11v38.7c0.9,0.8,1.8,1.6,2.6,2.4c16.1,16.2,16.1,42.4-0.1,58.5c-0.8,0.8-1.7,1.6-2.5,2.3v79.4
					c0.1,6,5,10.9,11,11h5.7c4.4-0.1,8.3-2.9,9.8-7.1c8.8,6.3,19.4,9.7,30.2,9.8c30.7,0,55.7-28.5,55.7-63.6
					C495.7,277.7,471.7,251.8,437.3,251.8 M356.5,295.1c5.2,0,10.4-1,15.2-2.9c1,1.7,1.6,3.6,1.6,5.6v66.9c-0.1,6-5,10.9-11,11h-8.5
					c-6.1-0.1-11-4.9-11-11v-66.8c0-1.6,0.4-3.2,1.1-4.7C348,294.4,352.2,295.1,356.5,295.1 M332.4,288.1c1.3,6.2,1.9,12.5,1.8,18.8
					v57.8c-0.1,6-5,10.9-11,11h-8.8c-6-0.1-10.9-5-11-11v-57.8c0-25.1-14.1-25.1-18.8-25.1c-14.2,0-25.5,8.7-29.5,12.3v70.6
					c-0.1,6-5,10.9-11.1,11h-8.5c-6-0.1-10.9-5-11-11v-99.1c0.1-6.1,4.9-10.9,11-11.1h5.2c4.8-0.2,9,3,10.1,7.7l0.1,0.2
					c7.3-4.7,19.7-10.6,35.1-10.6c9.6,0,20,1.8,28.6,7.6C316.3,271.1,322.8,281.5,332.4,288.1 M161.4,280.4
					c13.1,0,21.5,9.7,21.5,24.8s-8.4,24.8-21.5,24.8c-13.5,0-22.9-10.2-22.9-24.8S147.9,280.4,161.4,280.4 M161.6,431.1
					c-15.4,0-27-7.3-27-16.9c0-10.1,10.6-14.3,13.4-15.2h29.5c13.5,0,15,8.4,15,12C192.5,423,176.6,431.2,161.6,431.1 M176.4,369.6
					h-39.6c-6.8,0-9.2-3.9-9.2-7.6c0-4.5,3.6-7.8,6.1-9.6c4.5,2.4,13.1,5.9,26.1,5.9c29.6,0,51.8-22.5,51.8-52.4
					c0-12.4-3.6-21.2-7.3-26.9l4.8-1c5.2-0.7,8-5.9,8-10.4v-4.6c0-6-4.8-11-10.8-11c-0.1,0-0.1,0-0.2,0h-46.2
					c-29.7,0-52.1,23.2-52.1,54c0.1,9,2.4,17.9,6.8,25.9c-6.3,5.2-16.3,16.2-16.3,33c0,13.5,6.9,22.5,15,27.6
					c-7,6.3-11,15.3-10.9,24.7c0,21,18.3,43.6,58.4,43.6c34.5,0,62.5-22.5,62.5-50.2c0-25.2-18-40.9-46.9-40.9"/>
				<path class="st2" d="M356.5,232.9c-11.5,0.1-20.8,9.5-20.8,21c0.1,11.5,9.5,20.8,21,20.8c11.5-0.1,20.7-9.3,20.8-20.8
					c0-11.6-9.3-21-20.8-21C356.6,232.9,356.6,232.9,356.5,232.9"/>
			</g>
			<g class="st30">
				<path class="st2" d="M534.6,183.2v181.2c-0.1,6-5,10.9-11,11h-8.5c-6-0.1-10.9-5-11-11V183.2c0.1-6,5-10.9,11-11h8.5
					C529.6,172.3,534.5,177.2,534.6,183.2 M438.6,349.3c-13.5,0-21.6-10.3-24-13.9V286c6.5-2.8,13.6-4.3,20.7-4.4
					c18.8,0,30,12.5,30,33.3C465.3,331.6,455.9,349.3,438.6,349.3 M437.7,251.6c-8,0-15.9,1.3-23.4,3.9v-72.3c-0.1-6-5-10.9-11-11
					h-8.5c-6,0.1-10.9,5-11,11v38.7c0.9,0.8,1.8,1.6,2.6,2.4c16.1,16.2,16.1,42.4-0.1,58.5c-0.8,0.8-1.7,1.6-2.5,2.3v79.4
					c0.1,6,5,10.9,11,11h5.7c4.4-0.1,8.3-2.9,9.8-7.1c8.8,6.3,19.4,9.7,30.2,9.8c30.7,0,55.7-28.5,55.7-63.6
					C496.2,277.5,472.2,251.5,437.7,251.6 M357,294.9c5.2,0,10.4-1,15.2-2.9c1,1.7,1.6,3.6,1.6,5.6v66.9c-0.1,6-5,10.9-11,11h-8.5
					c-6.1-0.1-11-4.9-11-11v-66.9c0-1.6,0.4-3.2,1.1-4.7C348.4,294.2,352.7,294.9,357,294.9 M332.9,287.9c1.3,6.2,1.9,12.5,1.8,18.8
					v57.8c-0.1,6-5,10.9-11,11h-8.8c-6-0.1-10.9-5-11-11v-57.8c0-25.1-14.1-25.1-18.8-25.1c-14.2,0-25.5,8.7-29.5,12.3v70.6
					c-0.1,6-5,10.9-11.1,11h-8.5c-6-0.1-10.9-5-11-11v-99.1c0.1-6.1,4.9-10.9,11-11.1h5.2c4.8-0.2,9,3,10.1,7.7l0.1,0.2
					c7.3-4.7,19.7-10.6,35.1-10.6c9.6,0,20,1.8,28.6,7.6C316.7,270.8,323.2,281.3,332.9,287.9 M161.8,280.2
					c13.1,0,21.5,9.7,21.5,24.8s-8.4,24.8-21.5,24.8c-13.5,0-22.9-10.2-22.9-24.8S148.3,280.2,161.8,280.2 M162,430.9
					c-15.4,0-27-7.3-27-16.9c0-10.1,10.6-14.3,13.4-15.2h29.5c13.5,0,15,8.4,15,12C192.9,422.8,176.9,430.9,162,430.9 M176.8,369.3
					h-39.4c-6.8,0-9.2-3.9-9.2-7.6c0-4.5,3.6-7.8,6.1-9.6c4.5,2.4,13.1,5.9,26.1,5.9c29.6,0,51.8-22.5,51.8-52.4
					c0-12.4-3.6-21.2-7.3-26.9l4.8-1c5.2-0.7,8-5.9,8-10.4v-4.6c0-6-4.8-11-10.8-11c-0.1,0-0.1,0-0.2,0h-46.2
					c-29.7,0-52.1,23.2-52.1,54c0.1,9,2.4,17.9,6.8,25.8c-6.3,5.2-16.3,16.2-16.3,33c-0.3,11.2,5.5,21.7,15,27.6
					c-7,6.3-11,15.3-10.9,24.7c0,21,18.3,43.6,58.4,43.6c34.5,0,62.5-22.5,62.5-50.2C223.7,385,205.7,369.3,176.8,369.3"/>
				<path class="st2" d="M357,232.6c-11.5,0.1-20.8,9.5-20.8,21s9.5,20.8,21,20.8c11.5-0.1,20.7-9.3,20.8-20.8
					c0-11.6-9.3-21-20.8-21C357.1,232.6,357.1,232.6,357,232.6"/>
			</g>
			<path class="st2" d="M535.2,183v181.2c-0.1,6-5,10.9-11,11h-8.5c-6-0.1-10.9-5-11-11V183c0.1-6,5-10.9,11-11h8.5
				C530.2,172.1,535,177,535.2,183 M439.2,349.1c-13.5,0-21.6-10.3-24-13.9v-49.4c6.5-2.8,13.6-4.3,20.7-4.4c18.8,0,30,12.5,30,33.3
				C465.9,331.4,456.5,349.1,439.2,349.1 M438.3,251.4c-8,0-15.9,1.3-23.4,3.9V183c-0.1-6-5-10.9-11-11h-8.5c-6,0.1-10.9,5-11,11
				v38.6c0.9,0.8,1.8,1.6,2.6,2.4c16.1,16.2,16.1,42.4-0.1,58.5c-0.8,0.8-1.7,1.6-2.5,2.3v79.4c0.1,6,5,10.9,11,11h5.7
				c4.4-0.1,8.3-2.9,9.8-7.1c8.8,6.3,19.4,9.7,30.2,9.8c30.7,0,55.7-28.5,55.7-63.6C496.8,277.2,472.8,251.3,438.3,251.4
				 M357.5,294.6c5.2,0,10.4-1,15.2-2.9c1,1.7,1.6,3.6,1.6,5.6v66.9c-0.1,6-5,10.9-11,11h-8.5c-6.1-0.1-11-4.9-11-11v-66.8
				c0-1.6,0.4-3.2,1.1-4.7C349,294,353.3,294.7,357.5,294.6 M333.5,287.6c1.3,6.2,1.9,12.5,1.8,18.8v57.8c-0.1,6-5,10.9-11,11h-8.8
				c-6-0.1-10.9-5-11-11v-57.8c0-25.1-14.1-25.1-18.8-25.1c-14.2,0-25.5,8.7-29.5,12.3v70.6c-0.1,6-5,10.9-11.1,11h-8.5
				c-6-0.1-10.9-5-11-11v-99.1c0.1-6.1,4.9-10.9,11-11.1h5.2c4.8-0.2,9,3,10.1,7.7l0.1,0.2c7.3-4.7,19.7-10.6,35.1-10.6
				c9.6,0,20,1.8,28.6,7.6C317.3,270.6,323.8,281,333.5,287.6 M162.2,280c13.1,0,21.5,9.7,21.5,24.8s-8.4,24.8-21.5,24.8
				c-13.5,0-22.9-10.2-22.9-24.8S148.8,280,162.2,280 M162.5,430.7c-15.4,0-27-7.3-27-16.9c0-10.1,10.6-14.3,13.4-15.2h29.5
				c13.5,0,15,8.4,15,12C193.4,422.6,177.4,430.7,162.5,430.7 M177.3,369.1h-39.4c-6.8,0-9.2-3.9-9.2-7.6c0-4.5,3.6-7.8,6.1-9.6
				c4.5,2.4,13.1,5.9,26.1,5.9c29.6,0,51.8-22.5,51.8-52.4c0-12.4-3.6-21.2-7.3-26.9l4.8-1c5.2-0.7,8-5.9,8-10.4v-4.6
				c0-6-4.8-11-10.8-11c-0.1,0-0.1,0-0.2,0h-46.2c-29.7,0-52.1,23.2-52.1,54c0.1,9,2.4,17.9,6.8,25.9c-6.3,5.2-16.3,16.2-16.3,33
				c-0.3,11.2,5.5,21.7,15,27.6c-7,6.3-11,15.3-10.9,24.7c0,21,18.3,43.6,58.4,43.6c34.5,0,62.5-22.5,62.5-50.2
				C224.2,384.8,206.2,369.1,177.3,369.1"/>
			<path class="st2" d="M357.5,232.4c-11.5,0.1-20.8,9.5-20.8,21c0.1,11.5,9.5,20.8,21,20.8c11.5-0.1,20.7-9.3,20.8-20.8
				c0-11.6-9.3-21-20.8-21C357.6,232.4,357.6,232.4,357.5,232.4"/>
		</g>
		<path class="st31" d="M535.2,183v181.2c-0.1,6-5,10.9-11,11h-8.5c-6-0.1-10.9-5-11-11V183c0.1-6,5-10.9,11-11h8.5
			C530.2,172.1,535,177,535.2,183 M439.2,349.1c-13.5,0-21.6-10.3-24-13.9v-49.4c6.5-2.8,13.6-4.3,20.7-4.4c18.8,0,30,12.5,30,33.3
			C465.9,331.4,456.5,349.1,439.2,349.1 M438.3,251.4c-8,0-15.9,1.3-23.4,3.9V183c-0.1-6-5-10.9-11-11h-8.5c-6,0.1-10.9,5-11,11
			v38.6c0.9,0.8,1.8,1.6,2.6,2.4c16.1,16.2,16.1,42.4-0.1,58.5c-0.8,0.8-1.7,1.6-2.5,2.3v79.4c0.1,6,5,10.9,11,11h5.7
			c4.4-0.1,8.3-2.9,9.8-7.1c8.8,6.3,19.4,9.7,30.2,9.8c30.7,0,55.7-28.5,55.7-63.6C496.8,277.2,472.8,251.3,438.3,251.4
			 M357.5,294.6c5.2,0,10.4-1,15.2-2.9c1,1.7,1.6,3.6,1.6,5.6v66.9c-0.1,6-5,10.9-11,11h-8.5c-6.1-0.1-11-4.9-11-11v-66.8
			c0-1.6,0.4-3.2,1.1-4.7C349,294,353.3,294.7,357.5,294.6 M333.5,287.6c1.3,6.2,1.9,12.5,1.8,18.8v57.8c-0.1,6-5,10.9-11,11h-8.8
			c-6-0.1-10.9-5-11-11v-57.8c0-25.1-14.1-25.1-18.8-25.1c-14.2,0-25.5,8.7-29.5,12.3v70.6c-0.1,6-5,10.9-11.1,11h-8.5
			c-6-0.1-10.9-5-11-11v-99.1c0.1-6.1,4.9-10.9,11-11.1h5.2c4.8-0.2,9,3,10.1,7.7l0.1,0.2c7.3-4.7,19.7-10.6,35.1-10.6
			c9.6,0,20,1.8,28.6,7.6C317.3,270.6,323.8,281,333.5,287.6 M162.6,430.6c-15.4,0-27-7.3-27-16.9c0-10.1,10.6-14.3,13.4-15.2h29.5
			c13.5,0,15,8.4,15,12C193.5,422.5,177.6,430.6,162.6,430.6 M162.2,280c13.1,0,21.5,9.7,21.5,24.8s-8.4,24.8-21.5,24.8
			c-13.5,0-22.9-10.2-22.9-24.8S148.8,280,162.2,280 M177.2,369h-39.4c-6.8,0-9.2-3.9-9.2-7.6c0-4.5,3.6-7.8,6.1-9.6
			c4.5,2.4,13.1,5.9,26.1,5.9c29.6,0,51.8-22.5,51.8-52.4c0-12.4-3.6-21.2-7.3-26.9l4.8-1c5.2-0.7,8-5.9,8-10.4v-4.6
			c0-6-4.8-11-10.8-11c-0.1,0-0.1,0-0.2,0h-46.2c-29.7,0-52.1,23.2-52.1,54c0.1,9,2.4,17.9,6.8,25.9c-6.3,5.2-16.3,16.2-16.3,33
			c-0.3,11.2,5.5,21.7,15,27.6c-7,6.3-11,15.3-10.9,24.7c0,21,18.3,43.6,58.4,43.6c34.5,0,62.5-22.5,62.5-50.2
			C224.2,384.7,206.2,369,177.2,369"/>
		<path class="st32" d="M357.5,232.4c-11.5,0.1-20.8,9.5-20.8,21c0.1,11.5,9.5,20.8,21,20.8c11.5-0.1,20.7-9.3,20.8-20.8
			c0-11.6-9.3-21-20.8-21C357.6,232.4,357.6,232.4,357.5,232.4"/>
	</g>
</g>
</svg>
