<svg xmlns="http://www.w3.org/2000/svg" viewBox="0 0 20 15.98"><defs><style>.a{fill:#57e073;}</style></defs><title>Asset 2</title><path class="a" d="M15.67,5.33c-.38,1.54.79,3.57-1.72,4.25.53.29,1.11.73,1.41.58,1.42-.72,2.77-1.59,4.25-2.48L15.67,5.33M.4,7.69c1.17.7,2.28,1.25,3.26,2A1.82,1.82,0,0,0,6.3,9.51a11.71,11.71,0,0,0-1.07-.7,1.39,1.39,0,0,1-.81-1.54c.06-.61,0-1.23,0-2L.4,7.69M5.19,16l3.7-2.2a1.4,1.4,0,0,0,0-2.51l-.86-.57A2.19,2.19,0,0,0,5.34,11a.77.77,0,0,0-.14.46c0,1.43,0,2.87,0,4.49m9.62,0c0-1.44,0-2.69,0-3.95a5,5,0,0,0,0-.69c-.08-.55-1.49-1.36-1.95-1.1-.73.41-1.44.84-2.14,1.3-.44.29-.52,1.63-.08,1.91,1.33.84,2.68,1.63,4.18,2.52M0,8.38c0,1.52,0,2.84,0,4.16a.74.74,0,0,0,.17.53c1.36.94,2.74,1.85,4.24,2.86,0-1.62,0-3.05,0-4.49a.77.77,0,0,0-.28-.56C2.82,10.06,1.49,9.28,0,8.38m9.62,2.35c0-1.65,0-3.11,0-4.57a.59.59,0,0,0-.2-.44C8,4.9,6.68,4.09,5.2,3.2c0,1.5,0,2.83,0,4.15A1,1,0,0,0,5.58,8c1.27.88,2.58,1.73,4,2.7m6,5.23c1.46-.87,2.75-1.63,4-2.41.16-.1.36-.28.37-.43,0-1.54,0-3.07,0-4.73-1.45.86-2.74,1.61-4,2.4a.86.86,0,0,0-.38.6c0,1.46,0,2.93,0,4.57m-5.19-5.19c1.49-.89,2.84-1.7,4.18-2.52a.58.58,0,0,0,.22-.42c0-1.49,0-3,0-4.64-1.48.89-2.84,1.69-4.18,2.51a.58.58,0,0,0-.23.42c0,1.49,0,3,0,4.64M5.6,2.5C7.07,3.38,8.4,4.18,9.73,5a.56.56,0,0,0,.46,0c1.38-.8,2.75-1.62,4.23-2.5C13,1.63,11.68.84,10.37.09a.84.84,0,0,0-.7,0C8.34.83,7,1.62,5.6,2.5"/><path class="a" d="M5.6,2.5C7,1.62,8.34.83,9.66.07a.84.84,0,0,1,.7,0C11.68.84,13,1.63,14.42,2.5c-1.48.88-2.85,1.7-4.23,2.5a.56.56,0,0,1-.46,0C8.4,4.18,7.07,3.38,5.6,2.5"/><path class="a" d="M10.39,10.78c0-1.66,0-3.15,0-4.64a.58.58,0,0,1,.23-.42c1.34-.82,2.7-1.62,4.18-2.51,0,1.66,0,3.15,0,4.64a.58.58,0,0,1-.22.42c-1.34.82-2.69,1.63-4.18,2.52"/><path class="a" d="M15.59,16c0-1.65,0-3.11,0-4.57a.87.87,0,0,1,.38-.6c1.27-.79,2.57-1.54,4-2.4,0,1.66,0,3.2,0,4.73,0,.15-.21.33-.37.43-1.28.78-2.57,1.54-4,2.41"/><path class="a" d="M9.62,10.74c-1.46-1-2.76-1.81-4-2.7a1,1,0,0,1-.37-.69c0-1.32,0-2.64,0-4.15C6.68,4.09,8,4.9,9.41,5.73a.59.59,0,0,1,.2.44c0,1.46,0,2.92,0,4.57"/><path class="a" d="M0,8.38c1.49.89,2.82,1.68,4.13,2.5a.77.77,0,0,1,.28.56c0,1.43,0,2.87,0,4.49-1.5-1-2.88-1.92-4.24-2.86A.75.75,0,0,1,0,12.54C0,11.22,0,9.9,0,8.38"/><path class="a" d="M14.82,16c-1.49-.9-2.85-1.69-4.18-2.53-.44-.28-.36-1.62.08-1.91.7-.46,1.41-.89,2.14-1.3.46-.26,1.87.55,1.95,1.1a5.12,5.12,0,0,1,0,.69c0,1.26,0,2.51,0,3.95"/><path class="a" d="M5.19,16c0-1.62,0-3.06,0-4.49A.62.62,0,0,1,5.34,11c1.07-.82,1.9-.87,2.73-.32l.86.57a1.4,1.4,0,0,1,0,2.51L5.19,16"/><path class="a" d="M.4,7.68l4-2.42c0,.77,0,1.39,0,2A1.39,1.39,0,0,0,5.22,8.8a11.94,11.94,0,0,1,1.07.71,1.82,1.82,0,0,1-2.63.16c-1-.73-2.1-1.29-3.26-2"/><path class="a" d="M15.67,5.33l3.94,2.35c-1.48.88-2.82,1.76-4.25,2.48-.29.15-.88-.29-1.41-.58,2.5-.68,1.34-2.71,1.72-4.25"/></svg>