<svg preserveAspectRatio="xMinYMax slice" xmlns="http://www.w3.org/2000/svg" viewBox="0 0 1355 120"><defs><style>.a{fill:#fff;}</style></defs><title>Artboard 1</title><path class="a" d="M1355,0H0V76C12.08,78.13,19.26,87.66,28.11,94.7c10.43,8.2,21.84,10.56,35,8C75.1,100.36,82,91.27,91,84.77c4.5-3.26,9.82-5.49,15-7.63a27,27,0,0,1,9.84-2c9-.09,16.61,3.56,23.28,9.44,4.32,3.8,8.66,7.59,13.16,11.16,10,7.92,21.4,9.39,33.7,6.92,10.43-2.09,18.07-8.17,25.43-15.33,7.91-7.7,17.26-13.09,28.84-12.23,9.15.64,16.72,4.87,23.6,11,5.83,5.26,12,10.78,19,14,16.79,7.68,32.31,4,46.14-8,5.53-4.79,10.87-10.31,17.3-13.43a31.94,31.94,0,0,1,23.53-2.25c10.42,2.93,17.56,9.62,24.91,16.12,12.66,11.18,32.61,15.41,47.39,6.51,7.21-4.33,13.35-10.43,20-15.7,7.7-6.1,16.49-9.45,26.25-8.21a38.36,38.36,0,0,1,22.63,11.22,77.79,77.79,0,0,0,14,11.56c15,9.15,33.47,7.8,47.29-3.73,6.25-5.22,12.22-11.24,19.36-14.85,16.57-8.39,29-4.47,42.34,7.43,5.93,5.29,11.43,11.1,19.06,13.91a43.26,43.26,0,0,0,21.42,2.7c13.2-1.79,22.59-9.28,31.59-18,7.95-7.71,17.66-11.47,28.54-10.15,9,1.09,16.74,5.91,23.09,12.4,8.91,9.11,18.91,16,32.11,16.35,12.45.35,23.07-4.11,32.32-12.54,5.27-4.81,10.8-9.79,17.1-12.88a29.7,29.7,0,0,1,22.37-2.14c8.8,2.56,14.78,8,21.2,13.44,8.75,7.33,18,13.68,29.75,14.06A41.38,41.38,0,0,0,944,91.73c5-4.9,10.57-9.66,16.72-12.9,13.66-7.19,30.85-4.07,42.14,6.68,8.73,8.27,17.53,16.49,30.62,18,8.82,1,17.07-.23,24.46-4.49,5.68-3.3,10.68-8.06,15.68-12.45,8.14-7.09,17.24-11.86,28.24-11.49,9.67.32,17.61,4.76,24.87,11.16,6.15,5.41,12.57,11.24,19.94,14.41,15.75,6.77,30.54,3,43.69-7.72,5.84-4.81,11.34-10.3,17.9-13.81,11.79-6.29,23.79-6,34.78,2.59,5.49,4.31,10.75,8.92,16.22,13.26,9.13,7.22,19.28,9.52,31,8.52,14-1.16,22.61-10.35,32-18.59,8.15-7.17,17.41-10.6,28.15-9.83A23.87,23.87,0,0,1,1355,76Z"/></svg>
