<svg xmlns="http://www.w3.org/2000/svg" viewBox="0 0 100 102.42"><defs><style>.a{fill:#e5e5e5;}.b{fill:#e63a3a;}</style></defs><title>2</title><circle class="a" cx="50" cy="52.42" r="50"/><path class="b" d="M51.59,58.3c1.26.56,1.26,1.12.56,1.82-1.54,1.26-.7,3.36-1.4,5.18-.14.7-.14,1.68-.28,2.38-.14,2.1-.7,2.38-2.66,1.82-1.54-.56-2,1.12-2.8,1.54s.42,1.4,1.54,1.4a4.59,4.59,0,0,1,2,0c.28,1.12,1.26,2.38-.28,3.08-.14,0-.28.56-.28.56.84,1.54-.14,2.1-.56,3.36-.84,1.54-1.12,3.5-1.68,5.18a2.74,2.74,0,0,0-.14,1,3.07,3.07,0,0,0,1.12-.14,69.71,69.71,0,0,1,7.42-3.22C57,80.7,60.27,81.4,63.77,82c1,.28,2.1.84,3.08.42,1.54-.28,2.38.56,3.36,1.82.56.84,1.68,1.82,2.38,2.8,1.26,1.68.84,3.22-1.12,3.22a15,15,0,0,1-4.06-.84c-5.18-1.26-8.4-1-11.48,3.36a11.42,11.42,0,0,1-3.08,2.8c0,.28-.42.14-.56.28-.7,2.66-3.36,2.94-5.32,4.48a10.78,10.78,0,0,1-3.5,1.4,5.17,5.17,0,0,1-4.34-1,16.79,16.79,0,0,0-5.74-3.36c-1.12-.56-1.54-1.12-1.4-2a16.41,16.41,0,0,1,.7-3.78c2.24-6.72,4.62-13.58,6.72-20.3,2.24-8.12,4.2-16.52,6.16-24.78,1.54-6,2.94-12,4.06-18.2.7-4.62,1-9.38,1.26-14.14.14-1.54.28-3.08.28-4.48,0-1.68-.56-2.24-2.1-1.4a18.94,18.94,0,0,0-3.64,2.52.14.14,0,0,1-.14.14c-2.66,2.24-5.6,4.06-8.12,6.72a3.37,3.37,0,0,1-2.1.56c-2.1.28-3.64-1.4-2.8-3.22a23.2,23.2,0,0,1,3.64-5.46c1.82-2.24,4.34-3.64,6.58-5.46A18.19,18.19,0,0,1,51.17.2c3.36-.84,6.3,1.12,9.1,2.8l.42.42c.56,2.52,2.24,4.76,2,7.28-.42,3.08-.14,6.44-1,9.38-.56,2.38-.14,5-1.54,7-.7,1.12,0,2.94-.14,4.48a39.26,39.26,0,0,1-.84,3.92c-.56,3.08-2.1,5.74-1.54,8.82a3.07,3.07,0,0,1-.14,1.12c-2.24,2.1-1.4,6.44-4.2,8.4-.14,0-.14.42,0,.56,1.12.7.56,1.54,0,2a4.32,4.32,0,0,1-1.54.28,9.07,9.07,0,0,0-.56-1.82h.28C48.37,56.48,48.37,56.48,51.59,58.3Zm-16,34.16c.28-.28.42-.7.7-.84a3.07,3.07,0,0,1,.42-.7c0-.56.14-.84.14-1.26a3.47,3.47,0,0,0-1.26.56c-.28.14-.28.7-.42,1.12A9.67,9.67,0,0,1,35.63,92.46Zm1.26-4.76A6.08,6.08,0,0,0,38,86.3l-.7-.56a4.7,4.7,0,0,0-1.54,1A5.3,5.3,0,0,0,36.89,87.7ZM38.71,82a6.44,6.44,0,0,0-1,1c0,.14.7,1.12.84.84.42-.14.56-.42,1.4-1C39.41,82.38,38.85,81.82,38.71,82Zm.14-1.54c.14.14.7.28.84.14.56-.56,1.54-1.26,1-2.52q-.63-.42,0-1.26A37.2,37.2,0,0,0,42.91,71a31.27,31.27,0,0,0,1.4-6,7,7,0,0,0,.42-1.82,11.33,11.33,0,0,0-1.26,1.4c-.14.28-.42.56-.42.84a35.54,35.54,0,0,1-3.64,11.48,17.6,17.6,0,0,0-.7,3.36A.14.14,0,0,0,38.85,80.42ZM45.29,60c.42-1.12,1-2.38,1.26-3.36a2,2,0,0,0-.28-.42c-.14,0-.56.14-.7.14-.28,1.26-.42,2-.7,3.08l.28.28Zm2.94-9.24c-.14-.14-.42-.7-.42-.56-.28,0-.7.42-1,.7.14.28.56.42.84.7C47.81,51.3,48.09,51,48.23,50.74Zm.56,14.7a4.11,4.11,0,0,0,.42-1.4,5.82,5.82,0,0,0-.42-1.12,2.21,2.21,0,0,0-1,1A9.49,9.49,0,0,0,48.79,65.44ZM48.51,44.3v.14h.28ZM49.63,60l.14-.28v-.14Zm2-9.94v.28c.14-.14.28-.14.28-.28Z"/></svg>