<svg xmlns="http://www.w3.org/2000/svg" viewBox="0 0 100 112.17"><defs><style>.a{fill:#e5e5e5;}.b{fill:#e63a3a;}</style></defs><title>4</title><circle class="a" cx="50" cy="55.02" r="50"/><path class="b" d="M77.23,74.48a2.43,2.43,0,0,1,2.38,2.24,2.56,2.56,0,0,1-1.82,2.1c-.84.28-1.82-.28-2.66.14s-1.68,1.26-2.66,1.68c-2.38.28-3.78,2-3.92,4.9A2.52,2.52,0,0,1,68,86.8c-.84.56-.84.7,0,1.26a3.6,3.6,0,0,1,.7,1.68c-.14,1.4-.42,2.8-.7,4.2-.42,2.24-.84,4.62-1.4,6.86a2.9,2.9,0,0,1-1.26,1.82c-1.26.7-1.54,1.68-1.26,3.22a6.9,6.9,0,0,1-.84,3.92c-1.12,2.38-1,3.78-5.18.42C54,107.1,57.77,103,58.19,98c0-.7,1-1.4,1-2S58,94.78,57.91,94.36A39.44,39.44,0,0,1,58,90.3c.14-2.8-.7-3.5-2.94-2.66a26.59,26.59,0,0,0-2.94,1.26,11.49,11.49,0,0,1-9.1.56c-2.38-.7-4.48-1.4-6.58-2.1s-3.08-2.1-3.08-4.48q-.21-4.2,0-8.4a21.34,21.34,0,0,1,.42-4.2c.14-1.54.56-3.08.56-4.76s-.14-3.36-.14-5V59.22c1.26-2.94.56-5.88.56-9,0-3.78,0-7.7.28-11.62.14-3.36.42-6.86.56-10.22.42-6.58.56-13.16.7-19.6a20,20,0,0,0-.84-5C35.23,2.1,36.35,0,38.31,0a8,8,0,0,1,3.92.84,10.15,10.15,0,0,1,3.22,2.52A8.46,8.46,0,0,1,48,11.06a49.83,49.83,0,0,0-.84,7.84c-.14,1,.42,2,.42,2.8-.14,3.92-.28,7.7-.42,11.62,0,3.08.14,6-1.12,9-.42,1.4-.28,3.08-.84,4.76-.28.56.42,2,.42,3.08,1,5.32-.28,10.36-1,15.54a32.61,32.61,0,0,0,.28,6.44,7.43,7.43,0,0,1-.14,2.52A5.58,5.58,0,0,0,44.89,78c.42,1.26,0,2.8,0,4.34,0,2.1,0,2.1,1.82,1.26,3.22-1.26,6.44-2.52,9.94-3.64,1.26-.28,1.68-.84,1.68-2.52-.14-3.36,0-6.86,0-10.5V55.44a22.9,22.9,0,0,1,.28-3.22c.7-2.38,2-3.08,3.92-2.24,2.24.7,3.64,2.94,5,4.76.84,1.26,1,3.78,1,5.74.14,4.76-.14,9.52-.14,14.28,0,2,.7,2.66,2.24,2.1,1.54-.28,3.64-1.68,5.32-2.24A4.81,4.81,0,0,1,77.23,74.48ZM39,72c-.14-.14-.14-.28-.28-.42l-.42.42.14.28A.73.73,0,0,0,39,72Zm-.14-25.48c0,.14.14.14.14.28a.44.44,0,0,1,.28-.14c0-.14-.14-.14-.28-.28ZM41,64.68v0a1.26,1.26,0,0,0-.7-.14c-.56,0-1,.14-1.4.14.14.42.14.84.28.84h1.4C40.55,65.38,40.69,64.82,41,64.68ZM39,50.82c-.14.14.28.7.7,1.12A10.72,10.72,0,0,0,41,50.68c-.42-.28-.7-.7-1.12-.7S39.15,50.4,39,50.82ZM40.13,68.6,40,68.46l-.14.14Zm.42-15.26c-.14.14-.28.14-.42.28l.14.14a.3.3,0,0,0,.28-.28ZM41.67,72.1,41.39,72l.14.14Z"/></svg>