<svg xmlns="http://www.w3.org/2000/svg" viewBox="0 0 17.95 17.95"><defs><style>.a{fill:#57e073;}</style></defs><title>Asset 3</title><path class="a" d="M9.65,15.59a2.68,2.68,0,0,0,2,.86,10.49,10.49,0,0,0,3.19-.5A3.42,3.42,0,0,0,13,15a11.53,11.53,0,0,0-3.33.59M12,18h-.34c-3.24-.17-3.74-2.57-3.77-2.67a.75.75,0,0,1,.51-.85c.13,0,3.41-1.09,4.82-.9A5.21,5.21,0,0,1,16.8,16a.75.75,0,0,1,.05.62.74.74,0,0,1-.43.45A14.55,14.55,0,0,1,12,18"/><path class="a" d="M15.59,9.67A11.85,11.85,0,0,0,15,13a3.41,3.41,0,0,0,1,1.92,10.4,10.4,0,0,0,.5-3.2,2.69,2.69,0,0,0-.86-2.05m.74,7.25a.75.75,0,0,1-.37-.09,5.24,5.24,0,0,1-2.44-3.63c-.19-1.43.79-4.48.9-4.82a.74.74,0,0,1,.86-.5c.1,0,2.5.53,2.67,3.76a14,14,0,0,1-.93,4.8.73.73,0,0,1-.45.43.78.78,0,0,1-.25,0"/><path class="a" d="M7,13a2.72,2.72,0,0,0,2.05.86,10.5,10.5,0,0,0,3.19-.5,3.42,3.42,0,0,0-1.91-1A11.07,11.07,0,0,0,7,13m2.31,2.36H9c-3.24-.17-3.75-2.57-3.77-2.67a.75.75,0,0,1,.5-.86c.13,0,3.41-1.09,4.82-.91a5.22,5.22,0,0,1,3.63,2.44.77.77,0,0,1,.05.62.73.73,0,0,1-.43.44,14.56,14.56,0,0,1-4.46.93"/><path class="a" d="M13,7.05a11.82,11.82,0,0,0-.59,3.33,3.43,3.43,0,0,0,1,1.91,10.39,10.39,0,0,0,.5-3.19A2.7,2.7,0,0,0,13,7.05m.73,7.25a.76.76,0,0,1-.37-.09,5.22,5.22,0,0,1-2.44-3.63c-.18-1.42.79-4.47.9-4.82a.75.75,0,0,1,.85-.5c.1,0,2.5.53,2.67,3.77a14.06,14.06,0,0,1-.92,4.8.74.74,0,0,1-.45.43.68.68,0,0,1-.25,0"/><path class="a" d="M4.4,10.37a2.71,2.71,0,0,0,2.05.86,10.33,10.33,0,0,0,3.19-.5,3.42,3.42,0,0,0-1.9-1,11.48,11.48,0,0,0-3.33.6m2.31,2.36H6.37C3.13,12.55,2.62,10.15,2.6,10a.75.75,0,0,1,.5-.86c.13,0,3.41-1.09,4.82-.9a5.23,5.23,0,0,1,3.63,2.44.75.75,0,0,1-.38,1.07,14.57,14.57,0,0,1-4.46.93"/><path class="a" d="M4.24,4.27A3.87,3.87,0,0,0,5.39,7,4.56,4.56,0,0,0,8,8,4.49,4.49,0,0,0,7,5.41,3.85,3.85,0,0,0,4.24,4.27m4.49,5.3A6.58,6.58,0,0,1,4.33,8,5.38,5.38,0,0,1,2.81,3.42a.75.75,0,0,1,.59-.59,4.41,4.41,0,0,1,.78-.06A5.41,5.41,0,0,1,8,4.35c1.6,1.6,1.54,4.37,1.53,4.49a.75.75,0,0,1-.73.73Z"/><path class="a" d="M10.34,4.42a11.69,11.69,0,0,0-.59,3.33,3.41,3.41,0,0,0,1,1.91,10.4,10.4,0,0,0,.5-3.2,2.7,2.7,0,0,0-.86-2.05m.73,7.25a.71.71,0,0,1-.37-.1A5.2,5.2,0,0,1,8.26,7.95c-.19-1.42.79-4.47.91-4.82a.75.75,0,0,1,.86-.5c.1,0,2.5.53,2.67,3.77a14,14,0,0,1-.93,4.8.75.75,0,0,1-.7.48"/><path class="a" d="M3.17,3.6a.37.37,0,0,1-.27-.11L.11.64a.37.37,0,0,1,0-.53.37.37,0,0,1,.53,0L3.44,3a.38.38,0,0,1,0,.53.36.36,0,0,1-.26.11"/><path class="a" d="M3.55,9.54a.38.38,0,0,1-.27-.11L.11,6.25a.37.37,0,0,1,.53-.53L3.81,8.9a.38.38,0,0,1,0,.53.39.39,0,0,1-.26.11"/><path class="a" d="M9.19,3.92a.36.36,0,0,1-.26-.11L5.75.64a.37.37,0,0,1,0-.53.37.37,0,0,1,.53,0L9.45,3.28a.37.37,0,0,1,0,.53.36.36,0,0,1-.26.11"/></svg>