<svg xmlns="http://www.w3.org/2000/svg" viewBox="0 0 19.28 19.28"><defs><style>.a{fill:#57e073;}</style></defs><title>Asset 1</title><path class="a" d="M18.45,7.35l.08-.06.6-.6a.52.52,0,0,0,0-.74l-1.6-1.59L18,3.88a.52.52,0,0,0,0-.74L16.11,1.25a.52.52,0,0,0-.74,0l-.47.47L13.33.15a.52.52,0,0,0-.74,0l-.6.6-.06.08a.52.52,0,0,0,.07.66l5.8,5.8a.52.52,0,0,0,.66.07"/><path class="a" d="M9.65,18.66l1.1-1.1a.52.52,0,0,0,0-.74l-3.3-3.29.34-.34.34-.34,4.71-4.7.34-.34.34-.34,3.3,3.29a.52.52,0,0,0,.74,0l1.11-1.1a.52.52,0,0,0,0-.74L10.37.65a.52.52,0,0,0-.74,0l-1.1,1.1a.52.52,0,0,0,0,.74L11.8,5.76l-.34.34-.34.34-4.71,4.7-.34.34-.34.34L2.46,8.54a.52.52,0,0,0-.74,0L.62,9.65a.52.52,0,0,0,0,.74l8.29,8.28a.52.52,0,0,0,.74,0"/><path class="a" d="M4,17.85l.32-.32L6,19.13a.53.53,0,0,0,.74,0l.6-.6.07-.08a.52.52,0,0,0-.07-.66L1.49,12a.52.52,0,0,0-.66-.06L.75,12l-.6.6a.52.52,0,0,0,0,.74L1.73,14.9l-.32.32a.52.52,0,0,0,0,.74L3.3,17.85a.52.52,0,0,0,.74,0"/></svg>