<svg xmlns="http://www.w3.org/2000/svg" viewBox="0 0 103.58 101.48"><defs><style>.a{fill:#e5e5e5;}.b{fill:#e63a3a;}</style></defs><title>Asset 6</title><circle class="a" cx="51.56" cy="51.48" r="50"/><path class="b" d="M98,25.14C91.8,16.82,81.74,14.83,72.27,15a2.7,2.7,0,0,0-1.13.27,88.62,88.62,0,0,1-9.79-.5,33.1,33.1,0,0,1,7.57-8.89C72,3.36,68.56-1.89,65.45.7A41.55,41.55,0,0,0,54.93,13.54a86.22,86.22,0,0,1-9.48-3.41,2.69,2.69,0,0,0-.94-.69c-8.64-3.88-18.69-6-27.66-.71C9,13.33,4.36,22,1.94,31.24c-5.35,20.41.49,46.16,15.79,58.18a2.87,2.87,0,0,0,.78.43,2.89,2.89,0,0,0,1.25.89c7.62,2.76,15.46,1.8,22.92-2.09l.1-.06H43l.17.07.06.1c5.35,6.48,12.21,10.42,20.3,10.83A2.88,2.88,0,0,0,65,99.24a2.87,2.87,0,0,0,.89-.09C84.63,94,100,72.57,103,51.68,104.38,42.25,103.5,32.45,98,25.14ZM96.47,54.81C92.18,72.06,80.09,88.62,64.11,93L64,93c-6.81-.56-12.22-3.73-16.8-9.29a2.73,2.73,0,0,0-.72-.61,2.76,2.76,0,0,0-.49-.37,2.52,2.52,0,0,0-1.67-.9,2.53,2.53,0,0,0-1.89.18,2.78,2.78,0,0,0-.6.15,2.72,2.72,0,0,0-.9.28c-6.38,3.34-12.59,4.16-19.09,2l-.09-.09C8.71,74.19,4,54.23,6.76,36.67,8,28.9,11.12,21,17,16.11c7.32-6.11,16.81-4.25,24.39-.92a2.6,2.6,0,0,0,1,.74c3.3,1.34,6.6,2.72,10,3.74a40.25,40.25,0,0,0-1.56,7.39A17.7,17.7,0,0,1,47,24.63c-3.13-2.57-7.31,2.11-4.18,4.68a22.65,22.65,0,0,0,20.65,4.6c3.93-.94,1.88-6.87-2-5.94a17.54,17.54,0,0,1-4.44.48,37.47,37.47,0,0,1,1.58-7.39,88.92,88.92,0,0,0,13.11.78,2.6,2.6,0,0,0,1.24-.28C81.2,21.45,90.66,23.42,95,31.89,98.54,38.68,98.37,47.18,96.47,54.81Z"/><path class="b" d="M33.21,73.56a14.41,14.41,0,0,1-6.69,2.09c-4,.36-3.61,6.62.44,6.26a21.16,21.16,0,0,0,9.73-3.13C40.1,76.61,36.62,71.38,33.21,73.56Z"/><path class="b" d="M85.71,42.06c-.59,15.65-6.21,32.15-22.34,37.53-3.84,1.28-1.81,7.22,2,5.94,19-6.34,25.88-25.4,26.57-43.91C92.12,37.58,85.86,38,85.71,42.06Z"/></svg>