<svg xmlns="http://www.w3.org/2000/svg" viewBox="0 0 100 112.23"><defs><style>.a{fill:#e5e5e5;}.b{fill:#e63a3a;}</style></defs><title>Asset 3</title><circle class="a" cx="50" cy="56.74" r="50"/><path class="b" d="M92.5,27.23l.05-.2a3.13,3.13,0,0,0-.27-2.38,2.41,2.41,0,0,0-1.62-1.09L78.38,20.88l.11-.55q.23-1.11.47-2.22a3.16,3.16,0,0,0,.07-.79v-.09l0-.08a3.12,3.12,0,0,0-.27-2.39,2.41,2.41,0,0,0-1.63-1.1l-7-1.53L69.65,12l.11-.55A48.94,48.94,0,0,0,70.65,5a2.63,2.63,0,0,0-2.19-2.51l-.16,0-.13,0L57.32.07a2.41,2.41,0,0,0-2.11.46,3.27,3.27,0,0,0-1.1,2.55v.17L54,3.4a2.87,2.87,0,0,0-.4.94l-.81,3.75-.57-.14c-2.35-.58-4.69-1.18-7-1.81l-.12,0a2.74,2.74,0,0,0-.72-.05H44.3l-.08,0h0a2.64,2.64,0,0,0-3.3,2.07c-.21.94-.45,1.86-.71,2.78l-.14.52-.52-.11A124.54,124.54,0,0,0,26.77,9.1a2.8,2.8,0,0,0-.42,0h-.19a2.57,2.57,0,0,0-3.24,2.08L20.65,21.69a2.79,2.79,0,0,0,.1,1.64l.06.16,0,.17c-5.14,23.64-9.85,45-15.58,66.62a3,3,0,0,0-.09.85v.12l0,.11a2.51,2.51,0,0,0-.08,2,2.12,2.12,0,0,0,1.28,1.12C27,102.24,48,107.08,71.43,112.16a2.46,2.46,0,0,0,2.8-1.32l.06-.11.11-.08a2.67,2.67,0,0,0,1-1.67L92.76,29.22a2.73,2.73,0,0,0-.17-1.8ZM58.77,6.18,65,7.53l-.09.53q-.18,1.09-.41,2.18l-.12.57-1.94-.44-3.82-.88-.54-.13.69-3.18ZM42.18,23.72c.52-1.46,1.5-5.05,2.29-7.94.36-1.33.68-2.49.88-3.19l.16-.53.54.14c9.15,2.4,18.25,4.44,26.73,6.29l.55.12-.11.55c-1.23,6-2,10.14-2.21,11.77l-.08.65-.63-.16c-4.81-1.25-9.71-2.46-14.45-3.63C51.41,26.69,47,25.6,42.57,24.46L42,24.31Zm28.34,82.45L70,106C49,101.47,30,97.13,11.32,90.29l-.49-.18.13-.5C16.56,68.27,21.3,46.79,26.48,23a2.79,2.79,0,0,0-.1-1.65l-.06-.16,1.36-6.26.52.07c3.49.49,6.89,1.18,9.47,1.73l.63.14-.22.61c-.07.19-.42,1.65-.7,2.83-.46,1.93-.69,2.86-.77,3.08a4.31,4.31,0,0,0-.27,1.51V25l0,.11a3.37,3.37,0,0,0,0,2.71A2.55,2.55,0,0,0,38,29.14c5.54,1.47,11.21,2.86,16.69,4.2s11.15,2.73,16.71,4.21l.15,0a2.18,2.18,0,0,0,1.81-.32,2.28,2.28,0,0,0,1.36-.77l.1-.13A2,2,0,0,0,75,36c.1-.22.17-.44.26-.66A2.11,2.11,0,0,0,76.08,34c0-.42.33-2,.74-4.08.25-1.3.48-2.52.52-2.83l.08-.62,9.93,2.16L70.51,106.17Z"/><path class="b" d="M71,47a2.36,2.36,0,0,0-.75.31C58.16,55,47.94,61.41,37.39,67.34l-3.32-6.45a2,2,0,0,0-1.35-1.1,2.17,2.17,0,0,0-1.42.21l-.08,0a81.2,81.2,0,0,1-8.14,2.6,2,2,0,0,0-1.52,1.44,2.09,2.09,0,0,0,0,2.39c1.66,2.46,3.12,5.09,4.54,7.64a95.76,95.76,0,0,0,5,8.38,2.55,2.55,0,0,0,.23.28,2,2,0,0,0,1.36,1.13,2.05,2.05,0,0,0,1.32-.17,174.36,174.36,0,0,0,20-11.2l4.6-2.91c5.49-3.46,11.16-7,16.6-10.75A2.29,2.29,0,0,0,76,58a2,2,0,0,0,.4-2.22c-1-2.62-1.88-5-2.62-7.43a2.12,2.12,0,0,0-1.58-1.5A2.35,2.35,0,0,0,71,47ZM59.62,63.55q-3.15,2-6.29,4a181,181,0,0,1-19.2,11.09c-1.48-2.26-2.82-4.66-4.11-7-1-1.77-2-3.6-3.09-5.37,1.32-.4,2.68-.84,4.1-1.34l3.47,6.74a2,2,0,0,0,1.36,1.1,2.18,2.18,0,0,0,1.54-.27,2.28,2.28,0,0,0,.43-.19C49.08,66.11,60.1,59.19,70.37,52.61c.34,1,.73,2,1.18,3.24C67.62,58.49,63.55,61.06,59.62,63.55Z"/></svg>