<svg xmlns="http://www.w3.org/2000/svg" viewBox="0 0 512 512"><defs><style>.a{fill:#fff;}</style></defs><title>Asset 1</title><path class="a" d="M222.9,388h51.5a8,8,0,0,0,8-8V264.1h26.8a8.1,8.1,0,0,0,8-7.2l4.5-43.8a8.19,8.19,0,0,0-2-6.2,7.88,7.88,0,0,0-5.9-2.6H282.5V186.6c0-3.7,1.2-3.9,2.9-3.9H313a8,8,0,0,0,8-8V132.2a8,8,0,0,0-8-8l-38.2-.2c-26.8,0-41,11.8-48.3,21.6-10.1,13.8-11.7,29.9-11.7,38.3v20.3H198.3a8,8,0,0,0-8,8V256a8,8,0,0,0,8,8h16.5V380A8.18,8.18,0,0,0,222.9,388ZM206.4,248.1V220.3h16.5a8,8,0,0,0,8-8V184c0-5.2.8-18.4,8.5-28.9,7.4-10,19.3-15.1,35.4-15.1l30.2.1v26.5H285.3c-9.4,0-18.9,6.2-18.9,19.9v25.7a8,8,0,0,0,8,8h30.4L301.9,248H274.4a8,8,0,0,0-8,8V372H230.9V256.1a8,8,0,0,0-8-8Z"/><path class="a" d="M437,75A256,256,0,0,0,0,256,256.07,256.07,0,0,0,256,512,256.07,256.07,0,0,0,512,256,254,254,0,0,0,437,75ZM425.7,425.7A240,240,0,1,1,86.3,86.3,240,240,0,1,1,425.7,425.7Z"/><path class="a" d="M430,115a8,8,0,0,0-12.5,10.1,208.68,208.68,0,0,1,46.4,131A207.92,207.92,0,0,1,117.3,411a8,8,0,0,0-11.3.6,8,8,0,0,0,.6,11.3A224,224,0,0,0,430,115Z"/><path class="a" d="M48,256C48,141.3,141.3,48,256,48a207.53,207.53,0,0,1,138.7,53,8,8,0,1,0,10.7-11.9A224,224,0,0,0,82,397a8.22,8.22,0,0,0,6.2,3,7.68,7.68,0,0,0,5-1.8,8.07,8.07,0,0,0,1.2-11.3A208.2,208.2,0,0,1,48,256Z"/></svg>