<svg xmlns="http://www.w3.org/2000/svg" viewBox="0 0 105.03 103.27"><defs><style>.a{fill:#e5e5e5;}.b{fill:#e63a3a;}</style></defs><title>Asset 1</title><circle class="a" cx="50" cy="51.44" r="50"/><path class="b" d="M86.39,15.22c-.87-.21-1.75-.38-2.62-.5-9.08-1.34-18.48,2.08-26.56,9.68-4.39-11.74-14.14-21-25-23.59A28.5,28.5,0,0,0,24.94,0,24.5,24.5,0,0,0,5.7,10.58a29.07,29.07,0,0,0-4.49,25c3.4,11.19,11.86,19.55,20,27.64a131.54,131.54,0,0,1,12,13,43.07,43.07,0,0,1,3.38,4.94c-2.18,1.31-7.08,6.24-7.14,6.31-1.65,2-4.35,6.55-3.93,10.51A5.83,5.83,0,0,0,27.77,102a5.69,5.69,0,0,0,2.15,1.07c3.37.82,7.28-1.63,10-3.81,4.91-4,6.71-9,5.37-14.94,5.48-3,11.28-5.57,16.91-8.09,9.66-4.32,19.66-8.78,28.35-15.34,4.24-3.2,17.77-14.81,13.78-29.65C102.22,23.44,95.52,17.43,86.39,15.22ZM36.63,92.72A9.41,9.41,0,0,1,33.85,95a15.46,15.46,0,0,1,2.52-4.52,27.65,27.65,0,0,1,2.25-2.13A7.57,7.57,0,0,1,36.63,92.72ZM46,18.37a33.29,33.29,0,0,1,4.1,7.13c.13.29.3.84.5,1.48,1.13,3.65,2.45,7.26,4.67,7.79,1.1.27,2.21-.27,3.33-1.63,7.09-8.63,16-12.62,25.18-11.28.53.08,1.07.19,1.59.32,6.85,1.66,11.9,7.14,12.57,13.61.89,8.54-5.8,16.79-20.4,25.22a208.15,208.15,0,0,1-19.47,9.53C53,72.82,47.74,75.16,42.69,77.82c-2.72-5-6.79-9.69-10-13.21-1.93-2.09-4.07-4.19-6.31-6.42C15.27,47.24,2.71,34.86,9,19,12.61,9.89,21.09,5.49,30.59,7.8c.7.17,1.4.38,2.11.62A28.9,28.9,0,0,1,46,18.37Z"/></svg>