<svg xmlns="http://www.w3.org/2000/svg" viewBox="0 0 409.6 409.6"><defs><style>.a{fill:#fff;}</style></defs><title>Asset 1</title><path class="a" d="M349.6,60A204.78,204.78,0,1,0,60,349.6,204.78,204.78,0,1,0,349.6,60Zm-9,280.6A192.05,192.05,0,0,1,69,69,192.05,192.05,0,0,1,340.6,340.6Z"/><path class="a" d="M344,92a6.4,6.4,0,1,0-9.9,8.1,166.58,166.58,0,0,1-11.6,222.5,166.41,166.41,0,0,1-228.6,6.3,6.37,6.37,0,0,0-8.5,9.5A179.16,179.16,0,0,0,344,92Z"/><path class="a" d="M38.4,204.8C38.4,113,113,38.4,204.8,38.4A165.64,165.64,0,0,1,315.7,80.8a6.37,6.37,0,0,0,8.5-9.5A179.13,179.13,0,0,0,65.6,317.6a6.34,6.34,0,0,0,5,2.4,6.71,6.71,0,0,0,4-1.4,6.37,6.37,0,0,0,.9-9A167,167,0,0,1,38.4,204.8Z"/><path class="a" d="M258.6,102.1H151.4a49.34,49.34,0,0,0-49.3,49.3V258.6a49.34,49.34,0,0,0,49.3,49.3H258.6a49.34,49.34,0,0,0,49.3-49.3V151.4A49.34,49.34,0,0,0,258.6,102.1Zm36.3,156.5a36.36,36.36,0,0,1-36.3,36.3H151.4a36.36,36.36,0,0,1-36.3-36.3V151.4a36.36,36.36,0,0,1,36.3-36.3H258.6a36.36,36.36,0,0,1,36.3,36.3V258.6Z"/><path class="a" d="M262.5,139.7a7.9,7.9,0,1,0,7.9,7.9A7.85,7.85,0,0,0,262.5,139.7Z"/><path class="a" d="M205,154.6A50.4,50.4,0,1,0,255.4,205,50.45,50.45,0,0,0,205,154.6Zm0,87.9A37.45,37.45,0,1,1,242.4,205,37.51,37.51,0,0,1,205,242.5Z"/></svg>