<svg xmlns="http://www.w3.org/2000/svg" viewBox="0 0 100 104.92"><defs><style>.a{fill:#e5e5e5;}.b{fill:#e63a3a;}</style></defs><title>Asset 2</title><circle class="a" cx="50" cy="52.11" r="50"/><path class="b" d="M40.83.94a2.77,2.77,0,0,0-.69.25,2.93,2.93,0,0,0-.59.11c-16.69,5-29,17-26.53,35.37C15.3,53.34,27.22,68,40.52,77.79a5.82,5.82,0,0,0,2.1,9.54,6.09,6.09,0,0,0-1.11,4.75c.63,2.85,3.3,4.24,5.81,5.14a2.43,2.43,0,0,0,.28.07,4.65,4.65,0,0,0-.34,2.91c.53,2.39,2.78,3.56,4.89,4.32a2.33,2.33,0,0,0,.42.1,2.15,2.15,0,0,0,1.62.22c9-2.16,18-4.48,26.07-9.19a2.06,2.06,0,0,0,1-1.16,2.28,2.28,0,0,0,.24-1A7.65,7.65,0,0,0,79,87.63q.86-.47,1.71-1a2.45,2.45,0,0,0,1.15-1.38,2.7,2.7,0,0,0,.28-1.18,9.06,9.06,0,0,0-3.11-7.18,2.38,2.38,0,0,0,.3-.6,2.7,2.7,0,0,0,.28-1.18A9,9,0,0,0,76,67.52C88.83,39.64,80.1-7.22,40.83.94Zm8.29,91.35a2.91,2.91,0,0,0-.46-.22A8.8,8.8,0,0,1,47,91.26a1.16,1.16,0,0,1-.28-.36,3.07,3.07,0,0,1,1.07-1.59,2.84,2.84,0,0,0,.74-.1q13.6-3.87,27-8.3a3.4,3.4,0,0,1,1.17,1.91C68.09,87.56,58.65,90,49.11,92.29Zm-2.53-8.95a2.93,2.93,0,0,0-.46-.22,8.81,8.81,0,0,1-1.66-.82,1.17,1.17,0,0,1-.28-.36,3.08,3.08,0,0,1,1.07-1.59,2.85,2.85,0,0,0,.74-.1q13.6-3.87,27-8.3a3.4,3.4,0,0,1,1.17,1.91C65.56,78.61,56.12,81.06,46.58,83.35Zm7.07,17a2.41,2.41,0,0,0-.38-.18,7.35,7.35,0,0,1-1.4-.69,1,1,0,0,1-.24-.3,2.6,2.6,0,0,1,.9-1.34,2.37,2.37,0,0,0,.62-.09q11.44-3.26,22.73-7a2.86,2.86,0,0,1,1,1.6C69.61,96.4,61.67,98.46,53.65,100.38ZM71,65.71a2.68,2.68,0,0,0-.27,1.39c-3.38,1.11-6.78,2.18-10.18,3.24-1.46-6.92-3.3-13.73-5.22-20.53a31.22,31.22,0,0,0,4.83-18.39C60,28,54.68,28,54.85,31.45a26.39,26.39,0,0,1-3.57,14.83A23.58,23.58,0,0,1,40,36.58c-1.76-2.94-6.31-.19-4.55,2.75A29.19,29.19,0,0,0,50.3,51.57C52.2,58.31,54,65.06,55.46,71.91c-3.34,1-6.69,2-10,3a2.94,2.94,0,0,0-.49-.43c-12-8.33-22.14-20.63-26-34.92C14.44,22.59,25.49,11,41,6.42a2.78,2.78,0,0,0,.66-.3,3.07,3.07,0,0,0,.62-.06C77-1.16,82.2,42.45,71,65.71Z"/></svg>