<svg xmlns="http://www.w3.org/2000/svg" viewBox="0 0 68.99 45.75"><defs><style>.a{fill:#fff;}</style></defs><title>Asset 2 1</title><path class="a" d="M60.8,45.75H8.18A8.19,8.19,0,0,1,0,37.57V8.18A8.19,8.19,0,0,1,8.18,0H60.8A8.19,8.19,0,0,1,69,8.18V37.57A8.19,8.19,0,0,1,60.8,45.75ZM8.18,1A7.19,7.19,0,0,0,1,8.18V37.57a7.19,7.19,0,0,0,7.18,7.18H60.8A7.19,7.19,0,0,0,68,37.57V8.18A7.19,7.19,0,0,0,60.8,1Z"/><path class="a" d="M6.06,37.89a6.13,6.13,0,0,1-1-3.38V11.24a6.18,6.18,0,0,1,6.17-6.17H57.77a6.13,6.13,0,0,1,2.33.46l.75-.75a7.12,7.12,0,0,0-3.08-.7H11.22A7.18,7.18,0,0,0,4,11.24V34.51a7.13,7.13,0,0,0,1.3,4.1Z"/><path class="a" d="M63.35,6.75l-.71.71a6.14,6.14,0,0,1,1.3,3.78V34.51a6.18,6.18,0,0,1-6.17,6.17H11.22A6.13,6.13,0,0,1,8.42,40l-.74.74a7.12,7.12,0,0,0,3.53.94H57.77a7.18,7.18,0,0,0,7.17-7.17V11.24A7.14,7.14,0,0,0,63.35,6.75Z"/><path class="a" d="M57.49,30.51a.47.47,0,0,0-.23-.06.47.47,0,0,0-.23.06.43.43,0,0,0-.18.17.45.45,0,0,0-.06.23.47.47,0,0,0,.06.23.46.46,0,0,0,.17.17.48.48,0,0,0,.23.06.47.47,0,0,0,.23-.06.45.45,0,0,0,.17-.17.46.46,0,0,0,.06-.23.47.47,0,0,0-.06-.23A.43.43,0,0,0,57.49,30.51Zm-.11.67,0-.08a.42.42,0,0,0-.09-.12l-.06,0h0v.22h-.08v-.51h.3a.11.11,0,0,1,.06,0,.13.13,0,0,1,0,.07.14.14,0,0,1,0,.1.16.16,0,0,1-.1,0l0,0,.08.1.06.1h-.1Zm0-.31a.14.14,0,0,1-.1,0h-.1v-.15h.17l0,0a.08.08,0,0,1,0,0A.07.07,0,0,1,57.33,30.87Zm-.46-5.09a.35.35,0,0,0-.15.15.4.4,0,0,0-.05.19.39.39,0,0,0,.2.34.4.4,0,0,0,.19.05.39.39,0,0,0,.19-.05.38.38,0,0,0,.15-.15.39.39,0,0,0,.05-.19.4.4,0,0,0-.05-.19.38.38,0,0,0-.15-.15.38.38,0,0,0-.19-.05A.4.4,0,0,0,56.87,25.78Zm.35.16a.12.12,0,0,1,0,.07.14.14,0,0,1,0,.1.16.16,0,0,1-.1,0l0,0,.07.1.06.1h-.1l0-.08a.4.4,0,0,0-.08-.12l-.07,0h0v.21h-.08v-.5H57l.13,0Zm-.19,0h.08l0,0a.07.07,0,0,1,0,0,.08.08,0,0,1,0,.06.16.16,0,0,1-.1,0h-.1v-.15H57ZM46.32,23.87a1,1,0,0,1,.34,0c0,.26-.16,1.48-1.09,1.48a.56.56,0,0,1-.6-.58C45,24.38,45.19,23.87,46.32,23.87Zm-25,0a.94.94,0,0,1,.34,0c0,.26-.16,1.48-1.09,1.48a.56.56,0,0,1-.6-.58C19.94,24.38,20.17,23.87,21.3,23.87ZM44.21,8.38a14.44,14.44,0,0,0-9.72,3.75,14.44,14.44,0,0,0-9.72-3.74h-.09a14.5,14.5,0,1,0,9.81,25.25A14.34,14.34,0,0,1,33,32h3a14.49,14.49,0,0,1-1.47,1.55h0l0,0A14.49,14.49,0,0,0,58.71,22.87h0A14.49,14.49,0,0,0,44.21,8.38Zm-11,5.24h2.76a15.11,15.11,0,0,1,1.13,1.55H32.14C32.45,14.65,32.8,14.12,33.17,13.62ZM31.28,16.7h6.61a15.49,15.49,0,0,1,.63,1.55h-8C30.58,18.1,30.86,17.49,31.28,16.7ZM16.19,26.57,17.07,21l-2,5.54H14L13.89,21l-.94,5.54H11.46l1.23-7.35h2.25L15,23.73l1.52-4.51H19l-1.22,7.35Zm5.27,0,.05-.59a2,2,0,0,1-1.58.71A1.46,1.46,0,0,1,18.44,25c0-1.72,1.4-2.29,2.74-2.29.21,0,.66,0,.66,0a1,1,0,0,0,.05-.39c0-.47-.42-.53-1-.53a4.89,4.89,0,0,0-1.68.27l.22-1.33a5.34,5.34,0,0,1,1.87-.34,1.82,1.82,0,0,1,2.12,1.86l-.61,4.25H21.46Zm5.74-1.87c0,2.05-2,2-2.33,2a5,5,0,0,1-1.73-.19l.21-1.35a5,5,0,0,0,1.37.24c.42,0,1,0,1-.54,0-.74-1.93-.57-1.93-2.33,0-1.56,1.16-2,2.3-2a7.2,7.2,0,0,1,1.42.12l-.19,1.36s-.84-.07-1.05-.07c-.55,0-.85.12-.85.5C25.36,23.15,27.2,22.77,27.2,24.68Zm2.39.54c.14,0,.29,0,.4,0l-.19,1.31a4,4,0,0,1-1.16.2,1.15,1.15,0,0,1-1.23-1.31c0-.61.88-5.66.91-5.69h1.54l-.16.9h.77L30.28,22h-.82L29,24.72C29,24.94,29.05,25.22,29.59,25.22ZM33,20.42a2.07,2.07,0,0,1,2.2,2.26,11,11,0,0,1-.2,1.41H31.84s-.29,1.24,1.37,1.24a4.81,4.81,0,0,0,1.64-.38l-.27,1.49a3.91,3.91,0,0,1-1.63.25A2.42,2.42,0,0,1,30.28,24C30.28,22.1,31.43,20.42,33,20.42Zm4.09,10.12H31.93A14.33,14.33,0,0,1,31.07,29h6.84A14.69,14.69,0,0,1,37.07,30.55Zm-.35-4H35.14l1-6h1.44l-.14.87s.51-.94,1.2-.94a1.65,1.65,0,0,1,.3,0,5.94,5.94,0,0,0-.57,1.79C37.26,21.95,37.18,24,36.73,26.58Zm6-.09a7.12,7.12,0,0,1-1.35.21c-1.84,0-2.78-1.27-2.78-3.2,0-2.9,1.73-4.45,3.51-4.45a5.53,5.53,0,0,1,1.74.38l-.25,1.64a2.75,2.75,0,0,0-1.42-.44c-1,0-2,1-2,2.82a1.53,1.53,0,0,0,1.53,1.73A3.7,3.7,0,0,0,43,24.8Zm3.72.07.05-.59a2,2,0,0,1-1.58.71A1.46,1.46,0,0,1,43.45,25c0-1.72,1.4-2.29,2.74-2.29.21,0,.66,0,.66,0a1,1,0,0,0,.05-.39c0-.47-.42-.53-1-.53a4.88,4.88,0,0,0-1.68.27l.22-1.33a5.34,5.34,0,0,1,1.87-.34,1.82,1.82,0,0,1,2.12,1.86l-.61,4.25Zm3.21,0H48.1l1-6H50.5l-.14.87s.51-.94,1.2-.94a1.63,1.63,0,0,1,.3,0,5.94,5.94,0,0,0-.57,1.79C50.22,21.95,50.13,24,49.68,26.58Zm7.78-.69a.47.47,0,0,1-.17.64.47.47,0,0,1-.46,0,.47.47,0,0,1-.24-.41.48.48,0,0,1,.06-.23.44.44,0,0,1,.17-.17.48.48,0,0,1,.23-.06.47.47,0,0,1,.23.06A.43.43,0,0,1,57.46,25.89Zm-2.25-4.6.33-2.07h1.55l-1.18,7.34h-1.5l.07-.55a1.93,1.93,0,0,1-1.44.65c-1.28,0-1.91-1.24-1.91-2.51,0-2,1.18-3.67,2.59-3.67A2,2,0,0,1,55.21,21.29ZM33.7,22.86H32c0-.1.16-1.06,1-1.06S33.7,22.78,33.7,22.86ZM54,22c.56,0,.84.38.84,1.28s-.4,1.9-1.24,1.9c-.56,0-.82-.47-.82-1.2C52.77,22.76,53.31,22,54,22Z"/></svg>