<svg xmlns="http://www.w3.org/2000/svg" viewBox="0 0 105.71 106.89"><defs><style>.a{fill:#e5e5e5;}.b{fill:#e63a3a;}</style></defs><title>Asset 5</title><circle class="a" cx="52.24" cy="54.87" r="50"/><path class="b" d="M85.46,45.81a46.28,46.28,0,0,0,3.92-7.7,2.23,2.23,0,0,0-1.46-2.84l-1.08-.34a33,33,0,0,0-6.45-1.59,25,25,0,0,0,.36-8.18,2.23,2.23,0,0,0-2.59-1.9A75.48,75.48,0,0,0,70.11,25l-.18-.95A31.55,31.55,0,0,0,68,16.93a2.22,2.22,0,0,0-2.46-1.28c-2.91.56-5.18,2.62-7.19,4.43l-.44.4c-1.13-1.64-2.32-3.24-3.48-4.81l-1.36-1.85a2.23,2.23,0,0,0-3.69.14c-.58.93-1.1,1.9-1.61,2.85A30.28,30.28,0,0,1,45.21,21l-.22.28L44.34,21A54.84,54.84,0,0,1,38,16.82,2.23,2.23,0,0,0,34.51,19c-.05.54-.29,1.87-.72,4-.08.41-.14.7-.15.77-.08.51-.13,1-.17,1.45a11.47,11.47,0,0,1-.18,1.34,4.11,4.11,0,0,1-.68,0,34,34,0,0,1-4.93-.77c-.91-.19-1.82-.37-2.7-.52a2.23,2.23,0,0,0-2.53,2.73c.05.21.16.78.31,1.56.53,2.76.93,4.77,1.3,6.25a44.9,44.9,0,0,0-7.7,2.41A2.24,2.24,0,0,0,15,39.78a2.26,2.26,0,0,0,.59,2c.58.61,3.52,4.39,4.8,6.33a30.91,30.91,0,0,1-6.55,5,2.23,2.23,0,0,0-.27,3.69,15.53,15.53,0,0,0,3.49,1.81c1.18.49,3.26,1.37,3.81,2.13a37.69,37.69,0,0,1-4,6.75,2.23,2.23,0,0,0,.53,4.16h0a24.43,24.43,0,0,0,3.47.33,28.58,28.58,0,0,1,5.12.58A38.68,38.68,0,0,1,25,80.18a2.23,2.23,0,0,0,2.2,3.58,21.1,21.1,0,0,0,3.34-1.14,15.18,15.18,0,0,1,4.3-1.29,2.29,2.29,0,0,1,.76.07c.72.64,1.17,4.16,1.36,5.66a26.53,26.53,0,0,0,.44,2.76,2.23,2.23,0,0,0,2.25,1.69c.78,0,.78,0,3.93-2.7L45,87.57c.74-.6,2-1.67,2.67-1.5A35.51,35.51,0,0,1,52,91.83a2.23,2.23,0,0,0,4.17,1h0a26.75,26.75,0,0,0,1.16-2.49c.82-1.93,2-4.8,3.41-5.07a26.69,26.69,0,0,1,5.89,3.21,2.23,2.23,0,0,0,4.24.06h0a46.17,46.17,0,0,0,1-5.67c.15-1,.28-1.79.38-2.45l.57.13a28.41,28.41,0,0,0,7.13,1h0a10.51,10.51,0,0,0,1.06-.09A2.23,2.23,0,0,0,83,79.05c-.05-.52-.37-1.85-1.37-5.87L81,70.65l1.17-.4a25.36,25.36,0,0,1,6.41-1.62A2.23,2.23,0,0,0,90.4,65.4a39.19,39.19,0,0,0-4.6-6.67c.6-.43,1.33-1,2.22-1.64,4.12-3.14,4.48-3.83,4.68-4.2a2.23,2.23,0,0,0-.49-2.7A33.62,33.62,0,0,0,85.46,45.81ZM81.87,56a2.23,2.23,0,0,0-1.15,3.57l.36.44c1.24,1.5,2.58,3.12,3.71,4.74-1.41.35-2.76.82-4.09,1.28-1,.35-2,.68-3,1-2.09.6-1.62,2.53-1.25,4.08.21.85.49,2,.79,3.19.21.83.46,1.85.69,2.77-1.29-.17-2.7-.49-4.07-.81-1.09-.25-2.12-.49-3.1-.65a2.23,2.23,0,0,0-2.57,1.83,2.2,2.2,0,0,0,0,.32c-.07.64-.49,3.45-.88,5.85-2.41-1.46-5.4-2.78-6.56-2.75-3.49.14-5.38,3.16-6.7,6-1.55-2.11-3.41-4.24-4.18-4.64a5,5,0,0,0-2.52-.57c-2.17.08-4,1.54-5.15,2.5l-1.06.9c-.45-3.21-1.18-6.46-3.63-7.6a6.22,6.22,0,0,0-2.89-.53,15.07,15.07,0,0,0-4.7,1.18c.53-3,1-6.91-.12-8.22-1.32-1.61-3.87-2-7.56-2.22,1.52-2.38,3.5-5.85,3.18-7.45-.57-2.89-3.41-4.3-5.93-5.37A32.89,32.89,0,0,0,24.78,50c1.44-1.65.07-3.5-2.42-6.86-.45-.6-1-1.27-1.45-1.91a23.36,23.36,0,0,1,5.37-1.27,2,2,0,0,1,.43,0,2.23,2.23,0,0,0,2.12-3.66,58.61,58.61,0,0,1-1.4-6.07,33.24,33.24,0,0,0,5,.73c.3,0,.57,0,.82,0,4.17-.16,4.52-3.54,4.7-5.36,0-.39.08-.8.14-1.21l.12-.58.25-1.26a39,39,0,0,0,3.86,2.35,6.24,6.24,0,0,0,3.14,1,4.48,4.48,0,0,0,3.31-2.18,32.44,32.44,0,0,0,2.79-4.5c1.39,1.88,2.79,3.81,4,5.75a2.23,2.23,0,0,0,3.2.6c.89-.65,1.75-1.43,2.59-2.18a22.81,22.81,0,0,1,3.31-2.65c.37,1.3.64,2.7.91,4.14.22,1.16.44,2.37.74,3.54A2.23,2.23,0,0,0,69.2,30a51.69,51.69,0,0,1,7.28-1.89c0,2.43-.4,5.09-1.27,6.47a2.23,2.23,0,0,0,2.56,3.32,3.84,3.84,0,0,1,1-.15,18.19,18.19,0,0,1,5.42,1A47.34,47.34,0,0,1,81,44.44a2.23,2.23,0,0,0-.14,4l1.74.93c1.59.84,3.21,1.69,4.65,2.65A64.91,64.91,0,0,1,81.87,56Z"/><path class="b" d="M95.36,43.52c.63-1,1.37-2.24,2.27-3.93A74.24,74.24,0,0,0,101,32.71a2.23,2.23,0,0,0-1.46-2.84l-1.45-.46a39.37,39.37,0,0,0-9.36-2.17,31.91,31.91,0,0,0,.69-11.52,2.23,2.23,0,0,0-2.59-1.9,96,96,0,0,0-11.47,2.56c-.14-.68-.27-1.37-.4-2.08a41.62,41.62,0,0,0-2.53-9.37A2.23,2.23,0,0,0,70,3.65C66.28,4.37,63.32,7,60.7,9.39l-1.23,1.1c-1.64-2.42-3.39-4.78-5.09-7.08L52.53.91a2.23,2.23,0,0,0-3.69.14c-.76,1.22-1.46,2.52-2.14,3.77a41.18,41.18,0,0,1-3.48,5.7c-.33.42-.54.68-.69.83-.41-.16-1.09-.51-1.42-.68a73.79,73.79,0,0,1-8.54-5.59h0a2.19,2.19,0,0,0-3.08.53A2.27,2.27,0,0,0,30,8.7h0a2.05,2.05,0,0,1-.88-1.55,54.88,54.88,0,0,1-1,5.65c-.11.52-.18.89-.19,1-.1.67-.17,1.3-.23,1.9-.25,2.45-.25,2.45-1.31,2.49h-.63A46.21,46.21,0,0,1,19,17.13c-1.21-.25-2.41-.5-3.59-.69a2.23,2.23,0,0,0-2.53,2.73c.07.28.22,1.07.42,2.12.82,4.27,1.41,7.15,1.93,9.1A56.29,56.29,0,0,0,4.33,33.7a2.24,2.24,0,0,0-.7,3.63,104.13,104.13,0,0,1,6.84,9.08,41.79,41.79,0,0,1-9.34,7.26,2.23,2.23,0,0,0-.27,3.69,20.4,20.4,0,0,0,4.5,2.31c2.14.9,5,2.12,5.62,3.49a47.7,47.7,0,0,1-5.71,9.69,2.23,2.23,0,0,0,.41,4.22,32.13,32.13,0,0,0,4.52.43c2.08.11,6.26.34,7.55,1a48.35,48.35,0,0,1-1.52,11.07,2.23,2.23,0,0,0,2.11,3.68,27.57,27.57,0,0,0,4.34-1.48,20.78,20.78,0,0,1,6-1.78,3.17,3.17,0,0,1,1.46.23c1.18.55,1.91,6.23,2.14,8.09a35.06,35.06,0,0,0,.57,3.61,2.23,2.23,0,0,0,2.25,1.69c.79,0,.79,0,4.93-3.55l1.85-1.57c1.33-1.08,3.18-2.63,4.44-2.07a45.3,45.3,0,0,1,6.19,8.17,2.23,2.23,0,0,0,4.17,1.15h0a35.51,35.51,0,0,0,1.51-3.26c1.26-3,3-7,5.31-7.25,1.53.39,7.14,3.31,8.48,4.65a2.23,2.23,0,0,0,4.29.25c.09-.25.31-.91,1.34-7.46.28-1.75.48-3.07.63-4.07l1.56.36a37.35,37.35,0,0,0,9.33,1.35h0a13.2,13.2,0,0,0,1.34-.12,2.23,2.23,0,0,0,1.9-2.44c-.07-.68-.61-2.88-1.82-7.75-.34-1.36-.72-2.9-1-4.06l2.21-.75A34.57,34.57,0,0,1,100.55,73a2.23,2.23,0,0,0,1.84-3.23,54.62,54.62,0,0,0-6.57-9.41c.89-.62,2.06-1.46,3.6-2.64,5.38-4.1,5.85-5,6-5.37a2.23,2.23,0,0,0-.49-2.7A47.69,47.69,0,0,0,95.36,43.52Zm-3.43,14a2.23,2.23,0,0,0-1.24,3.6h0l.49.6A88.32,88.32,0,0,1,96.8,69,56.09,56.09,0,0,0,90.33,71c-1.37.47-2.67.92-4,1.3-2.08.61-1.64,2.44-1.14,4.55.27,1.14.66,2.67,1,4.25s.82,3.31,1.17,4.74a46.42,46.42,0,0,1-6.59-1.21c-1.45-.33-2.81-.65-4.11-.86a2.23,2.23,0,0,0-2.57,1.83,2.55,2.55,0,0,0,0,.35c-.09.91-.8,5.57-1.37,9-3.2-2.09-7.78-4.22-9.3-4.18-4.71.18-7.12,4.85-8.84,8.78-2.1-3-5-6.47-6.09-7a5.87,5.87,0,0,0-3-.68c-2.65.1-4.85,1.88-6.44,3.18l-1.92,1.63-.53.45C36,92.59,35.28,87.69,32,86.17a7.59,7.59,0,0,0-3.51-.64,23,23,0,0,0-7.26,2c.77-4,1.58-10,.21-11.7-1.72-2.09-5.58-2.47-10.86-2.77,2-3.06,5.26-8.45,4.85-10.49-.76-3.81-5-5.58-8.35-7l-.37-.16a43.84,43.84,0,0,0,8-7.08c1.41-1.62.36-3.34-3.27-8.23-.79-1.06-1.73-2.3-2.58-3.37a35.59,35.59,0,0,1,8.39-2.08,3.34,3.34,0,0,1,.76,0h0a2.23,2.23,0,0,0,2-3.76,85.61,85.61,0,0,1-2.18-9.48l.23,0a49.28,49.28,0,0,0,7.38,1.14q.56,0,1,0c4.93-.19,5.31-4,5.57-6.49.05-.53.11-1.09.2-1.66,0-.11.08-.39.16-.79.22-1.08.4-2,.56-2.81a56.07,56.07,0,0,0,6,3.74,7.8,7.8,0,0,0,3.82,1.26c1.88-.07,3-1.49,3.86-2.63a45.13,45.13,0,0,0,3.88-6.32L51,6.31C53.06,9.13,55.21,12,57.09,15a2.23,2.23,0,0,0,3.2.6c1.16-.85,2.3-1.88,3.4-2.87a25.21,25.21,0,0,1,5.37-4.08,51.34,51.34,0,0,1,1.5,6.5c.29,1.55.59,3.14,1,4.69a2.23,2.23,0,0,0,2.91,1.56,72.94,72.94,0,0,1,10.72-2.72c.13,3.62-.43,7.8-1.81,10a2.23,2.23,0,0,0,2.56,3.32,5.84,5.84,0,0,1,1.54-.24c2.48-.1,5.63.83,8.34,1.69A65.68,65.68,0,0,1,91,42a2.23,2.23,0,0,0-.29,4L93,47.31a63,63,0,0,1,7.12,4.16A88.93,88.93,0,0,1,91.93,57.55Z"/><path class="b" d="M40,43.81c-.57-2.69-4.63-1.38-4.07,1.29q.76,3.62,1.65,7.2-3.22-3.12-6.58-6.1a2.18,2.18,0,0,0-3.5,2.23,2.41,2.41,0,0,0,0,.41c.77,3.9,1.52,7.79,2.09,11.73.39,2.69,4.65,2.56,4.26-.17-.33-2.28-.71-4.54-1.12-6.8q3.6,3.4,7.05,7c.94,2.3,4.71,1,4-1.53Q41.59,51.49,40,43.81Z"/><path class="b" d="M52.39,48.38l-4.07.16c-.26-1.2-.51-2.4-.74-3.6l1.69-.07c2.75-.11,2.58-4.37-.17-4.26l-4,.16a2.06,2.06,0,0,0-1.92,2.62,2.29,2.29,0,0,0,0,.79C44,48.81,45,53.4,46.23,57.93a2.05,2.05,0,0,0,.43.82,2.14,2.14,0,0,0,1.92,1.08l3-.12a2.13,2.13,0,1,0-.17-4.26L50,55.51c-.24-.91-.47-1.83-.7-2.75l3.27-.13C55.31,52.53,55.14,48.27,52.39,48.38Z"/><path class="b" d="M71.59,40.87c-.56,3.43-1,6.87-1.43,10.32-.76-1-1.54-1.9-2.39-2.79a1.88,1.88,0,0,0-2.93.15,2.24,2.24,0,0,0-.61.63q-.91,1.41-1.8,2.83-1.93-4.73-3.53-9.59c-.87-2.6-4.93-1.32-4.07,1.29,1.47,4.42,3.11,8.77,5,13l.08.14a2.27,2.27,0,0,0,4.07.64c.87-1.35,1.72-2.71,2.58-4.07,1.1,1.36,2.11,2.79,3.11,4.24.61,1.82,4,1.4,4.17-1,.44-5,1.09-9.94,1.91-14.87C76.19,39.14,72,38.16,71.59,40.87Z"/></svg>