<svg xmlns="http://www.w3.org/2000/svg" viewBox="0 0 68.99 45.75"><defs><style>.a{fill:#fff;}</style></defs><title>Asset 3</title><path class="a" d="M60.8,45.75H8.18A8.19,8.19,0,0,1,0,37.57V8.18A8.19,8.19,0,0,1,8.18,0H60.8A8.19,8.19,0,0,1,69,8.18V37.57A8.19,8.19,0,0,1,60.8,45.75ZM8.18,1A7.19,7.19,0,0,0,1,8.18V37.57a7.19,7.19,0,0,0,7.18,7.18H60.8A7.19,7.19,0,0,0,68,37.57V8.18A7.19,7.19,0,0,0,60.8,1Z"/><path class="a" d="M6.06,37.89a6.13,6.13,0,0,1-1-3.38V11.24a6.18,6.18,0,0,1,6.17-6.17H57.77a6.13,6.13,0,0,1,2.33.46l.75-.75a7.12,7.12,0,0,0-3.08-.7H11.22A7.18,7.18,0,0,0,4,11.24V34.51a7.13,7.13,0,0,0,1.3,4.1Z"/><path class="a" d="M63.35,6.75l-.71.71a6.14,6.14,0,0,1,1.3,3.78V34.51a6.18,6.18,0,0,1-6.17,6.17H11.22A6.13,6.13,0,0,1,8.42,40l-.74.74a7.12,7.12,0,0,0,3.53.94H57.77a7.18,7.18,0,0,0,7.17-7.17V11.24A7.14,7.14,0,0,0,63.35,6.75Z"/><path class="a" d="M18.32,18.28a2,2,0,0,0-.75-.81A3.51,3.51,0,0,0,16.38,17a9.75,9.75,0,0,0-1.62-.13H11.89a.72.72,0,0,0-.66.52L9.3,25.83a.41.41,0,0,0,.41.52h1.37a.7.7,0,0,0,.66-.52l.47-2a.7.7,0,0,1,.66-.52h.39a6.5,6.5,0,0,0,3.91-1,3.21,3.21,0,0,0,1.4-2.72A2.55,2.55,0,0,0,18.32,18.28Zm-3,2.74a2.89,2.89,0,0,1-1.74.46h-.34a.41.41,0,0,1-.42-.52l.41-1.78a.69.69,0,0,1,.65-.52h.45a2.2,2.2,0,0,1,1.19.27.91.91,0,0,1,.4.82A1.49,1.49,0,0,1,15.36,21Zm18.87-1.1-5.47,9.25a1.15,1.15,0,0,1-.86.52H26.48c-.3,0-.39-.24-.21-.52l1.22-2.12s.1-.12,0-.81c-.19-1.25-1.12-6.57-1.12-6.57a.41.41,0,0,1,.41-.52H28a.76.76,0,0,1,.75.54l.61,3.69h.23c.19-.34,2.16-3.71,2.16-3.71a1.19,1.19,0,0,1,.86-.52h1.65C34.76,19.13,34.24,19.92,34.24,19.92Zm9-1.62a2.12,2.12,0,0,0-.76-.81,3.37,3.37,0,0,0-1.19-.44,9.44,9.44,0,0,0-1.61-.13H36.82a.71.71,0,0,0-.66.52l-1.93,8.41a.41.41,0,0,0,.41.52H36a.71.71,0,0,0,.66-.52l.47-2a.71.71,0,0,1,.66-.52h.39a6.54,6.54,0,0,0,3.92-1,3.25,3.25,0,0,0,1.4-2.73A2.68,2.68,0,0,0,43.26,18.31Zm-3,2.75a2.92,2.92,0,0,1-1.73.45h-.34A.41.41,0,0,1,37.8,21l.42-1.78a.7.7,0,0,1,.66-.52h.44a2.22,2.22,0,0,1,1.19.27.92.92,0,0,1,.4.82A1.51,1.51,0,0,1,40.3,21.06ZM24.94,19.48A5.21,5.21,0,0,0,22.49,19a10.85,10.85,0,0,0-1.66.13c-.41.06-.45.08-.7.13a.81.81,0,0,0-.6.64l-.17.69c-.1.44.16.42.27.39a7.14,7.14,0,0,1,.82-.24,5.89,5.89,0,0,1,1.29-.17,3.39,3.39,0,0,1,1.25.18.63.63,0,0,1,.41.62l0,.19-.2.12c-.78,0-1.34.12-2,.22a6.28,6.28,0,0,0-1.74.48,2.71,2.71,0,0,0-1.18.93,2.54,2.54,0,0,0-.39,1.44,1.7,1.7,0,0,0,.56,1.3,2.1,2.1,0,0,0,1.45.49,4,4,0,0,0,.86-.08l.66-.23.56-.31.52-.34h0l-.05.22h0a.41.41,0,0,0,.37.51h1.3a.71.71,0,0,0,.59-.51l1-4.33.05-.35,0-.33A1.45,1.45,0,0,0,24.94,19.48Zm-2.21,4.87-.21.28-.54.28a1.92,1.92,0,0,1-.72.16,1.65,1.65,0,0,1-.78-.15l-.27-.51a1,1,0,0,1,.2-.67l.58-.4a5,5,0,0,1,.9-.2l1-.11.1.17C23,23.28,22.82,24,22.73,24.35ZM57,16.43h.46v.19H57v.78l0,.11.07.07.14,0,.12,0,.09,0h0v.2l-.14,0H57.2l-.31-.11-.11-.35v-.71h-.15v-.19h.15v-.38H57v.38Zm-7.13,3A5.22,5.22,0,0,0,47.43,19a10.45,10.45,0,0,0-1.66.13c-.41.06-.45.07-.71.13a.8.8,0,0,0-.6.64l-.17.69c-.09.44.15.42.27.39a8.13,8.13,0,0,1,.81-.24,6.14,6.14,0,0,1,1.29-.17,3.37,3.37,0,0,1,1.25.18.63.63,0,0,1,.41.62l0,.19-.2.13c-.79,0-1.35.12-2,.22a6.28,6.28,0,0,0-1.74.48,2.7,2.7,0,0,0-1.18.93,2.51,2.51,0,0,0-.39,1.43,1.68,1.68,0,0,0,.56,1.31,2.1,2.1,0,0,0,1.44.5,3.83,3.83,0,0,0,.86-.08l.66-.23.57-.31.51-.35h0l0,.22h0a.4.4,0,0,0,.37.51H49a.7.7,0,0,0,.58-.52l1-4.33.05-.35,0-.33A1.45,1.45,0,0,0,49.88,19.48Zm-2.21,4.87-.22.28-.53.28a1.94,1.94,0,0,1-.72.16,1.6,1.6,0,0,1-.78-.15l-.27-.51a1.07,1.07,0,0,1,.2-.67,1.41,1.41,0,0,1,.59-.4,5.1,5.1,0,0,1,.9-.2l1-.11.1.17C47.93,23.29,47.75,24,47.67,24.35ZM55,17.52h0L53.2,25.85l-.07.1a.7.7,0,0,1-.59.42H51.26l0,0a.39.39,0,0,1-.35-.49h0l.06-.24,1.72-7.81.06-.27.07-.11a.7.7,0,0,1,.59-.42h1.23A.4.4,0,0,1,55,17.52Zm4.56-1,.1.37v.87h-.22v-.93l0-.13-.08-.08-.15,0-.19,0-.19.12v1h-.22v-.93l0-.13-.08-.08-.15,0-.19,0-.19.12v1h-.22V16.43H58v.15l.21-.14.22,0,.23.06.14.16.25-.17.24,0Z"/></svg>