<svg xmlns="http://www.w3.org/2000/svg" viewBox="0 0 109.64 100"><defs><style>.a{fill:#e5e5e5;}.b{fill:#e63a3a;}</style></defs><title>Asset 8</title><circle class="a" cx="54.72" cy="50" r="50"/><path class="b" d="M100.6,24.64c-4.34-2.61-8.74-5.05-13.24-7.36a2.74,2.74,0,0,0-1.62-.3,2.5,2.5,0,0,0-.91.11c-4,1.24-8,2.4-12.11,3.27-.48-1.79-1-3.58-1.47-5.38a2.62,2.62,0,0,0-3.71-1.68,2.63,2.63,0,0,0-.85.08C45.43,18.93,24,23.82,2.51,28.37A2.31,2.31,0,0,0,.66,30a2.16,2.16,0,0,0-.5,2.38c4.75,14.33,7.48,29.18,11,43.84a2.45,2.45,0,0,0,.42.92,2.8,2.8,0,0,0,1.62,1.45,2.44,2.44,0,0,0,2.09.36c2.2-.58,4.44-1.13,6.67-1.68.63-.11,1.27-.25,1.9-.33a3.41,3.41,0,0,0,.45-.11c-1.58,3.15-1.87,6.72.41,10,4,5.79,13.57,5.34,18.82,1.58a11.38,11.38,0,0,0,3.93-14.09,8.45,8.45,0,0,0-1.71-2.47c11.55-2.53,23.12-5,34.62-7.75a2.48,2.48,0,0,0,.72-.09l1.35-.33C81,67.5,81.22,72.25,83.83,75.29c4.11,4.8,13.22,3.58,17-.65a11.47,11.47,0,0,0,1.88-13.26A10.85,10.85,0,0,0,101,59.12l5.56-1.36a2.61,2.61,0,0,0,3-3.19l-6.61-27A2.42,2.42,0,0,0,101.71,26,2.43,2.43,0,0,0,100.6,24.64ZM41.25,83.51c-2.64,2.62-8.63,3.46-11.56,1-3.28-2.76-.14-7,2.56-9.06a2,2,0,0,0,.49-.12c2.88-1,7.55-2.26,9.72.81C44.13,78.52,43.17,81.61,41.25,83.51ZM20.58,72.19c-1.58.3-3.16.6-4.73.92-3.18-13.39-5.79-26.9-10-40,20.41-4.35,40.76-9,60.95-14.27C70.51,32.3,74.37,45.74,78,59.23,59,63.78,39.65,67.49,20.58,72.19Zm73.89.51-.08,0a7.21,7.21,0,0,1-7.23-1.4c-1.56-3.7-.43-6.89,2.56-9.17,3-1.25,6.86-1.53,8.74,1.62C100.55,67.25,97.23,70.87,94.48,72.7ZM103.73,53,83.21,58c-3-10.88-6-21.73-9.05-32.58,3.91-.83,7.72-1.94,11.54-3.11,4.13,2.14,8.21,4.4,12.19,6.81a0,0,0,0,1,0,0L103.73,53Z"/><path class="b" d="M94.43,30.39a28.24,28.24,0,0,1-7.87-4.09.69.69,0,0,0-.15-.09,2.09,2.09,0,0,0-1.75-.31l-4.8,1.18a2.43,2.43,0,0,0-.52.19h0a2.26,2.26,0,0,0-1.76,2.58,82.22,82.22,0,0,0,3.07,12.53l.15.35a2.21,2.21,0,0,0,2.56,1.59l11.36-2.24.6-.13a2,2,0,0,0,.55-.22,2.24,2.24,0,0,0,1.54-2.51c-.2-1.19-.45-2.35-.67-3.53s-.46-2.32-.66-3.49a1.92,1.92,0,0,0-.37-.89A2.64,2.64,0,0,0,94.43,30.39Zm-2.56,3.74c.17,1,.37,2,.57,2.93l.19.93-8.29,1.64A77.63,77.63,0,0,1,82.19,31l2.58-.63A31.52,31.52,0,0,0,91.87,34.13Zm3.24,7.29Z"/><path class="b" d="M57.5,31.62a23.73,23.73,0,0,0-5.81-1.16c-6.65-.43-13.24,2-19.47,4S16.76,40.48,15.92,48c-.72,6.37,6.44,10.48,11.67,11.27,11.26,1.69,36-2,38.59-16.18C67,38.21,61.86,33.1,57.5,31.62Zm2.18,11.12c-3.21,6.07-12.41,9-18.6,10.41-4.35,1-11.83,1.94-15.91-.25a5,5,0,0,1-2.09-6.38c2.77-6.68,12.4-8.74,18.71-9.59C45.26,36.51,63.87,34.82,59.68,42.74Z"/></svg>